<ttFont>
    <TTGlyph name=".ttfautohint" xMin="0" yMin="0" xMax="0" yMax="0">
      <contour>
        <pt x="0" y="0" on="1"/>
      </contour>
    </TTGlyph>
    <TTGlyph name="A" xMin="-7" yMin="0" xMax="598" yMax="626">
      <contour>
        <pt x="208" y="41" on="1"/>
        <pt x="208" y="0" on="1"/>
        <pt x="-7" y="0" on="1"/>
        <pt x="-7" y="40" on="1"/>
        <pt x="65" y="63" on="1"/>
        <pt x="253" y="613" on="1"/>
        <pt x="324" y="626" on="1"/>
        <pt x="526" y="63" on="1"/>
        <pt x="598" y="41" on="1"/>
        <pt x="598" y="0" on="1"/>
        <pt x="341" y="0" on="1"/>
        <pt x="341" y="41" on="1"/>
        <pt x="404" y="60" on="1"/>
        <pt x="373" y="153" on="1"/>
        <pt x="168" y="153" on="1"/>
        <pt x="138" y="62" on="1"/>
      </contour>
      <contour>
        <pt x="185" y="204" on="1"/>
        <pt x="354" y="204" on="1"/>
        <pt x="267" y="447" on="1"/>
      </contour>
    </TTGlyph>
    <TTGlyph name="AE" xMin="-39" yMin="0" xMax="683" yMax="613">
      <contour>
        <pt x="-39" y="40" on="1"/>
        <pt x="33" y="63" on="1"/>
        <pt x="293" y="556" on="1"/>
        <pt x="227" y="572" on="1"/>
        <pt x="227" y="613" on="1"/>
        <pt x="643" y="613" on="1"/>
        <pt x="643" y="472" on="1"/>
        <pt x="593" y="472" on="1"/>
        <pt x="571" y="551" on="1"/>
        <pt x="429" y="551" on="1"/>
        <pt x="446" y="314" on="1"/>
        <pt x="528" y="314" on="1"/>
        <pt x="547" y="380" on="1"/>
        <pt x="594" y="380" on="1"/>
        <pt x="594" y="192" on="1"/>
        <pt x="547" y="192" on="1"/>
        <pt x="526" y="261" on="1"/>
        <pt x="449" y="261" on="1"/>
        <pt x="463" y="65" on="1"/>
        <pt x="607" y="65" on="1"/>
        <pt x="633" y="157" on="1"/>
        <pt x="683" y="157" on="1"/>
        <pt x="683" y="0" on="1"/>
        <pt x="263" y="0" on="1"/>
        <pt x="263" y="41" on="1"/>
        <pt x="350" y="63" on="1"/>
        <pt x="336" y="257" on="1"/>
        <pt x="207" y="257" on="1"/>
        <pt x="107" y="63" on="1"/>
        <pt x="176" y="41" on="1"/>
        <pt x="176" y="0" on="1"/>
        <pt x="-39" y="0" on="1"/>
      </contour>
      <contour>
        <pt x="332" y="310" on="1"/>
        <pt x="321" y="478" on="1"/>
        <pt x="234" y="310" on="1"/>
      </contour>
    </TTGlyph>
    <TTGlyph name="AEacute" xMin="-39" yMin="0" xMax="683" yMax="800">
      <component glyphName=".ttfautohint" x="0" y="0" flags="0x0"/>
      <component glyphName="AE" x="0" y="0" flags="0x0"/>
      <component glyphName="acutecomb" x="543" y="0" flags="0x0"/>
    </TTGlyph>
    <TTGlyph name="Aacute" xMin="-7" yMin="0" xMax="598" yMax="800">
      <contour>
        <pt x="188" y="669" on="1"/>
        <pt x="344" y="800" on="1"/>
        <pt x="435" y="768" on="1"/>
        <pt x="435" y="746" on="1"/>
        <pt x="211" y="640" on="1"/>
      </contour>
      <contour>
        <pt x="208" y="41" on="1"/>
        <pt x="208" y="0" on="1"/>
        <pt x="-7" y="0" on="1"/>
        <pt x="-7" y="40" on="1"/>
        <pt x="65" y="63" on="1"/>
        <pt x="253" y="613" on="1"/>
        <pt x="324" y="626" on="1"/>
        <pt x="526" y="63" on="1"/>
        <pt x="598" y="41" on="1"/>
        <pt x="598" y="0" on="1"/>
        <pt x="341" y="0" on="1"/>
        <pt x="341" y="41" on="1"/>
        <pt x="404" y="60" on="1"/>
        <pt x="373" y="153" on="1"/>
        <pt x="168" y="153" on="1"/>
        <pt x="138" y="62" on="1"/>
      </contour>
      <contour>
        <pt x="185" y="204" on="1"/>
        <pt x="354" y="204" on="1"/>
        <pt x="267" y="447" on="1"/>
      </contour>
    </TTGlyph>
    <TTGlyph name="Abreve" xMin="-7" yMin="0" xMax="598" yMax="786">
      <contour>
        <pt x="221" y="656" on="0"/>
        <pt x="168" y="726" on="0"/>
        <pt x="168" y="784" on="1"/>
        <pt x="218" y="786" on="1"/>
        <pt x="218" y="724" on="0"/>
        <pt x="285" y="724" on="1"/>
        <pt x="359" y="724" on="0"/>
        <pt x="359" y="786" on="1"/>
        <pt x="408" y="784" on="1"/>
        <pt x="408" y="725" on="0"/>
        <pt x="357" y="656" on="0"/>
        <pt x="289" y="656" on="1"/>
      </contour>
      <contour>
        <pt x="208" y="41" on="1"/>
        <pt x="208" y="0" on="1"/>
        <pt x="-7" y="0" on="1"/>
        <pt x="-7" y="40" on="1"/>
        <pt x="65" y="63" on="1"/>
        <pt x="253" y="613" on="1"/>
        <pt x="324" y="626" on="1"/>
        <pt x="526" y="63" on="1"/>
        <pt x="598" y="41" on="1"/>
        <pt x="598" y="0" on="1"/>
        <pt x="341" y="0" on="1"/>
        <pt x="341" y="41" on="1"/>
        <pt x="404" y="60" on="1"/>
        <pt x="373" y="153" on="1"/>
        <pt x="168" y="153" on="1"/>
        <pt x="138" y="62" on="1"/>
      </contour>
      <contour>
        <pt x="185" y="204" on="1"/>
        <pt x="354" y="204" on="1"/>
        <pt x="267" y="447" on="1"/>
      </contour>
    </TTGlyph>
    <TTGlyph name="Acircumflex" xMin="-7" yMin="0" xMax="598" yMax="800">
      <contour>
        <pt x="287" y="723" on="1"/>
        <pt x="166" y="644" on="1"/>
        <pt x="143" y="666" on="1"/>
        <pt x="249" y="800" on="1"/>
        <pt x="326" y="800" on="1"/>
        <pt x="432" y="666" on="1"/>
        <pt x="411" y="644" on="1"/>
      </contour>
      <contour>
        <pt x="208" y="41" on="1"/>
        <pt x="208" y="0" on="1"/>
        <pt x="-7" y="0" on="1"/>
        <pt x="-7" y="40" on="1"/>
        <pt x="65" y="63" on="1"/>
        <pt x="253" y="613" on="1"/>
        <pt x="324" y="626" on="1"/>
        <pt x="526" y="63" on="1"/>
        <pt x="598" y="41" on="1"/>
        <pt x="598" y="0" on="1"/>
        <pt x="341" y="0" on="1"/>
        <pt x="341" y="41" on="1"/>
        <pt x="404" y="60" on="1"/>
        <pt x="373" y="153" on="1"/>
        <pt x="168" y="153" on="1"/>
        <pt x="138" y="62" on="1"/>
      </contour>
      <contour>
        <pt x="185" y="204" on="1"/>
        <pt x="354" y="204" on="1"/>
        <pt x="267" y="447" on="1"/>
      </contour>
    </TTGlyph>
    <TTGlyph name="Adieresis" xMin="-7" yMin="0" xMax="598" yMax="788">
      <contour>
        <pt x="251" y="692" on="0"/>
        <pt x="210" y="654" on="0"/>
        <pt x="182" y="654" on="1"/>
        <pt x="154" y="654" on="0"/>
        <pt x="112" y="692" on="0"/>
        <pt x="112" y="720" on="1"/>
        <pt x="112" y="748" on="0"/>
        <pt x="154" y="788" on="0"/>
        <pt x="182" y="788" on="1"/>
        <pt x="210" y="788" on="0"/>
        <pt x="251" y="748" on="0"/>
        <pt x="251" y="720" on="1"/>
      </contour>
      <contour>
        <pt x="469" y="692" on="0"/>
        <pt x="429" y="654" on="0"/>
        <pt x="401" y="654" on="1"/>
        <pt x="372" y="654" on="0"/>
        <pt x="331" y="692" on="0"/>
        <pt x="331" y="720" on="1"/>
        <pt x="331" y="748" on="0"/>
        <pt x="372" y="788" on="0"/>
        <pt x="401" y="788" on="1"/>
        <pt x="428" y="788" on="0"/>
        <pt x="469" y="748" on="0"/>
        <pt x="469" y="720" on="1"/>
      </contour>
      <contour>
        <pt x="208" y="41" on="1"/>
        <pt x="208" y="0" on="1"/>
        <pt x="-7" y="0" on="1"/>
        <pt x="-7" y="40" on="1"/>
        <pt x="65" y="63" on="1"/>
        <pt x="253" y="613" on="1"/>
        <pt x="324" y="626" on="1"/>
        <pt x="526" y="63" on="1"/>
        <pt x="598" y="41" on="1"/>
        <pt x="598" y="0" on="1"/>
        <pt x="341" y="0" on="1"/>
        <pt x="341" y="41" on="1"/>
        <pt x="404" y="60" on="1"/>
        <pt x="373" y="153" on="1"/>
        <pt x="168" y="153" on="1"/>
        <pt x="138" y="62" on="1"/>
      </contour>
      <contour>
        <pt x="185" y="204" on="1"/>
        <pt x="354" y="204" on="1"/>
        <pt x="267" y="447" on="1"/>
      </contour>
    </TTGlyph>
    <TTGlyph name="Agrave" xMin="-7" yMin="0" xMax="598" yMax="799">
      <contour>
        <pt x="143" y="746" on="1"/>
        <pt x="145" y="767" on="1"/>
        <pt x="235" y="799" on="1"/>
        <pt x="389" y="668" on="1"/>
        <pt x="369" y="639" on="1"/>
      </contour>
      <contour>
        <pt x="208" y="41" on="1"/>
        <pt x="208" y="0" on="1"/>
        <pt x="-7" y="0" on="1"/>
        <pt x="-7" y="40" on="1"/>
        <pt x="65" y="63" on="1"/>
        <pt x="253" y="613" on="1"/>
        <pt x="324" y="626" on="1"/>
        <pt x="526" y="63" on="1"/>
        <pt x="598" y="41" on="1"/>
        <pt x="598" y="0" on="1"/>
        <pt x="341" y="0" on="1"/>
        <pt x="341" y="41" on="1"/>
        <pt x="404" y="60" on="1"/>
        <pt x="373" y="153" on="1"/>
        <pt x="168" y="153" on="1"/>
        <pt x="138" y="62" on="1"/>
      </contour>
      <contour>
        <pt x="185" y="204" on="1"/>
        <pt x="354" y="204" on="1"/>
        <pt x="267" y="447" on="1"/>
      </contour>
    </TTGlyph>
    <TTGlyph name="Amacron" xMin="-7" yMin="0" xMax="598" yMax="755">
      <contour>
        <pt x="405" y="755" on="1"/>
        <pt x="405" y="685" on="1"/>
        <pt x="172" y="685" on="1"/>
        <pt x="172" y="755" on="1"/>
      </contour>
      <contour>
        <pt x="208" y="41" on="1"/>
        <pt x="208" y="0" on="1"/>
        <pt x="-7" y="0" on="1"/>
        <pt x="-7" y="40" on="1"/>
        <pt x="65" y="63" on="1"/>
        <pt x="253" y="613" on="1"/>
        <pt x="324" y="626" on="1"/>
        <pt x="526" y="63" on="1"/>
        <pt x="598" y="41" on="1"/>
        <pt x="598" y="0" on="1"/>
        <pt x="341" y="0" on="1"/>
        <pt x="341" y="41" on="1"/>
        <pt x="404" y="60" on="1"/>
        <pt x="373" y="153" on="1"/>
        <pt x="168" y="153" on="1"/>
        <pt x="138" y="62" on="1"/>
      </contour>
      <contour>
        <pt x="185" y="204" on="1"/>
        <pt x="354" y="204" on="1"/>
        <pt x="267" y="447" on="1"/>
      </contour>
    </TTGlyph>
    <TTGlyph name="Aogonek" xMin="-7" yMin="-234" xMax="601" yMax="626">
      <contour>
        <pt x="-7" y="40" on="1"/>
        <pt x="65" y="63" on="1"/>
        <pt x="253" y="613" on="1"/>
        <pt x="325" y="626" on="1"/>
        <pt x="529" y="63" on="1"/>
        <pt x="601" y="41" on="1"/>
        <pt x="601" y="0" on="1"/>
        <pt x="481" y="0" on="1"/>
        <pt x="449" y="0" on="0"/>
        <pt x="395" y="-34" on="0"/>
        <pt x="364" y="-89" on="0"/>
        <pt x="364" y="-119" on="1"/>
        <pt x="364" y="-179" on="0"/>
        <pt x="411" y="-179" on="1"/>
        <pt x="440" y="-179" on="0"/>
        <pt x="468" y="-156" on="1"/>
        <pt x="489" y="-176" on="1"/>
        <pt x="489" y="-178" on="0"/>
        <pt x="463" y="-208" on="0"/>
        <pt x="416" y="-234" on="0"/>
        <pt x="384" y="-234" on="1"/>
        <pt x="334" y="-234" on="0"/>
        <pt x="286" y="-184" on="0"/>
        <pt x="286" y="-148" on="1"/>
        <pt x="286" y="-110" on="0"/>
        <pt x="323" y="-51" on="0"/>
        <pt x="359" y="-12" on="1"/>
        <pt x="381" y="11" on="0"/>
        <pt x="402" y="40" on="0"/>
        <pt x="402" y="53" on="1"/>
        <pt x="402" y="64" on="0"/>
        <pt x="397" y="81" on="1"/>
        <pt x="373" y="153" on="1"/>
        <pt x="169" y="153" on="1"/>
        <pt x="140" y="63" on="1"/>
        <pt x="209" y="41" on="1"/>
        <pt x="209" y="0" on="1"/>
        <pt x="-7" y="0" on="1"/>
      </contour>
      <contour>
        <pt x="187" y="204" on="1"/>
        <pt x="354" y="204" on="1"/>
        <pt x="268" y="446" on="1"/>
      </contour>
    </TTGlyph>
    <TTGlyph name="Aring" xMin="-7" yMin="0" xMax="598" yMax="820">
      <contour>
        <pt x="235" y="629" on="0"/>
        <pt x="178" y="682" on="0"/>
        <pt x="178" y="723" on="1"/>
        <pt x="178" y="765" on="0"/>
        <pt x="235" y="820" on="0"/>
        <pt x="287" y="820" on="1"/>
        <pt x="340" y="820" on="0"/>
        <pt x="396" y="766" on="0"/>
        <pt x="396" y="723" on="1"/>
        <pt x="396" y="681" on="0"/>
        <pt x="340" y="629" on="0"/>
        <pt x="287" y="629" on="1"/>
      </contour>
      <contour>
        <pt x="313" y="672" on="0"/>
        <pt x="331" y="699" on="0"/>
        <pt x="331" y="723" on="1"/>
        <pt x="331" y="748" on="0"/>
        <pt x="313" y="777" on="0"/>
        <pt x="287" y="777" on="1"/>
        <pt x="261" y="777" on="0"/>
        <pt x="244" y="748" on="0"/>
        <pt x="244" y="723" on="1"/>
        <pt x="244" y="699" on="0"/>
        <pt x="261" y="672" on="0"/>
        <pt x="287" y="672" on="1"/>
      </contour>
      <contour>
        <pt x="-7" y="40" on="1"/>
        <pt x="65" y="63" on="1"/>
        <pt x="253" y="613" on="1"/>
        <pt x="324" y="626" on="1"/>
        <pt x="526" y="63" on="1"/>
        <pt x="598" y="41" on="1"/>
        <pt x="598" y="0" on="1"/>
        <pt x="341" y="0" on="1"/>
        <pt x="341" y="41" on="1"/>
        <pt x="404" y="60" on="1"/>
        <pt x="373" y="153" on="1"/>
        <pt x="168" y="153" on="1"/>
        <pt x="138" y="62" on="1"/>
        <pt x="208" y="41" on="1"/>
        <pt x="208" y="0" on="1"/>
        <pt x="-7" y="0" on="1"/>
      </contour>
      <contour>
        <pt x="354" y="204" on="1"/>
        <pt x="267" y="447" on="1"/>
        <pt x="185" y="204" on="1"/>
      </contour>
    </TTGlyph>
    <TTGlyph name="Aringacute" xMin="-7" yMin="0" xMax="598" yMax="980">
      <component glyphName=".ttfautohint" x="0" y="0" flags="0x0"/>
      <component glyphName="A" x="0" y="0" flags="0x0"/>
      <component glyphName="uni030A" x="424" y="0" flags="0x0"/>
      <component glyphName="acutecomb" x="486" y="180" flags="0x4"/>
    </TTGlyph>
    <TTGlyph name="Atilde" xMin="-7" yMin="0" xMax="598" yMax="786">
      <contour>
        <pt x="437" y="716" on="0"/>
        <pt x="399" y="664" on="0"/>
        <pt x="375" y="664" on="1"/>
        <pt x="352" y="664" on="0"/>
        <pt x="286" y="684" on="1"/>
        <pt x="228" y="702" on="0"/>
        <pt x="211" y="702" on="1"/>
        <pt x="201" y="702" on="0"/>
        <pt x="182" y="687" on="0"/>
        <pt x="170" y="672" on="0"/>
        <pt x="169" y="669" on="1"/>
        <pt x="128" y="686" on="1"/>
        <pt x="145" y="731" on="0"/>
        <pt x="188" y="786" on="0"/>
        <pt x="211" y="786" on="1"/>
        <pt x="235" y="786" on="0"/>
        <pt x="299" y="766" on="1"/>
        <pt x="357" y="748" on="0"/>
        <pt x="375" y="748" on="1"/>
        <pt x="386" y="748" on="0"/>
        <pt x="404" y="763" on="0"/>
        <pt x="416" y="778" on="0"/>
        <pt x="417" y="781" on="1"/>
        <pt x="457" y="764" on="1"/>
      </contour>
      <contour>
        <pt x="208" y="41" on="1"/>
        <pt x="208" y="0" on="1"/>
        <pt x="-7" y="0" on="1"/>
        <pt x="-7" y="40" on="1"/>
        <pt x="65" y="63" on="1"/>
        <pt x="253" y="613" on="1"/>
        <pt x="324" y="626" on="1"/>
        <pt x="526" y="63" on="1"/>
        <pt x="598" y="41" on="1"/>
        <pt x="598" y="0" on="1"/>
        <pt x="341" y="0" on="1"/>
        <pt x="341" y="41" on="1"/>
        <pt x="404" y="60" on="1"/>
        <pt x="373" y="153" on="1"/>
        <pt x="168" y="153" on="1"/>
        <pt x="138" y="62" on="1"/>
      </contour>
      <contour>
        <pt x="185" y="204" on="1"/>
        <pt x="354" y="204" on="1"/>
        <pt x="267" y="447" on="1"/>
      </contour>
    </TTGlyph>
    <TTGlyph name="B" xMin="36" yMin="0" xMax="529" yMax="613">
      <contour>
        <pt x="451" y="311" on="0"/>
        <pt x="529" y="230" on="0"/>
        <pt x="529" y="169" on="1"/>
        <pt x="529" y="91" on="0"/>
        <pt x="408" y="0" on="0"/>
        <pt x="294" y="0" on="1"/>
        <pt x="37" y="0" on="1"/>
        <pt x="37" y="41" on="1"/>
        <pt x="123" y="63" on="1"/>
        <pt x="123" y="550" on="1"/>
        <pt x="36" y="572" on="1"/>
        <pt x="36" y="613" on="1"/>
        <pt x="298" y="613" on="1"/>
        <pt x="409" y="613" on="0"/>
        <pt x="511" y="534" on="0"/>
        <pt x="511" y="465" on="1"/>
        <pt x="511" y="408" on="0"/>
        <pt x="436" y="335" on="0"/>
        <pt x="372" y="324" on="1"/>
      </contour>
      <contour>
        <pt x="327" y="342" on="0"/>
        <pt x="393" y="396" on="0"/>
        <pt x="393" y="459" on="1"/>
        <pt x="393" y="509" on="0"/>
        <pt x="339" y="558" on="0"/>
        <pt x="293" y="558" on="1"/>
        <pt x="274" y="558" on="0"/>
        <pt x="243" y="551" on="0"/>
        <pt x="240" y="551" on="1"/>
        <pt x="240" y="342" on="1"/>
        <pt x="275" y="342" on="1"/>
      </contour>
      <contour>
        <pt x="261" y="55" on="0"/>
        <pt x="293" y="55" on="1"/>
        <pt x="344" y="55" on="0"/>
        <pt x="407" y="114" on="0"/>
        <pt x="407" y="175" on="1"/>
        <pt x="407" y="233" on="0"/>
        <pt x="334" y="292" on="0"/>
        <pt x="272" y="292" on="1"/>
        <pt x="240" y="292" on="1"/>
        <pt x="240" y="62" on="1"/>
      </contour>
    </TTGlyph>
    <TTGlyph name="C" xMin="34" yMin="-10" xMax="512" yMax="628">
      <contour>
        <pt x="467" y="6" on="0"/>
        <pt x="383" y="-10" on="0"/>
        <pt x="328" y="-10" on="1"/>
        <pt x="179" y="-10" on="0"/>
        <pt x="34" y="169" on="0"/>
        <pt x="34" y="311" on="1"/>
        <pt x="34" y="452" on="0"/>
        <pt x="177" y="628" on="0"/>
        <pt x="328" y="628" on="1"/>
        <pt x="385" y="628" on="0"/>
        <pt x="465" y="613" on="0"/>
        <pt x="512" y="599" on="1"/>
        <pt x="502" y="455" on="1"/>
        <pt x="457" y="455" on="1"/>
        <pt x="432" y="553" on="1"/>
        <pt x="392" y="565" on="0"/>
        <pt x="346" y="565" on="1"/>
        <pt x="240" y="565" on="0"/>
        <pt x="158" y="425" on="0"/>
        <pt x="158" y="311" on="1"/>
        <pt x="158" y="203" on="0"/>
        <pt x="243" y="55" on="0"/>
        <pt x="342" y="55" on="1"/>
        <pt x="386" y="55" on="0"/>
        <pt x="432" y="68" on="1"/>
        <pt x="457" y="154" on="1"/>
        <pt x="504" y="154" on="1"/>
        <pt x="512" y="22" on="1"/>
      </contour>
    </TTGlyph>
    <TTGlyph name="Cacute" xMin="34" yMin="-10" xMax="512" yMax="800">
      <contour>
        <pt x="210" y="669" on="1"/>
        <pt x="366" y="800" on="1"/>
        <pt x="457" y="768" on="1"/>
        <pt x="457" y="746" on="1"/>
        <pt x="234" y="640" on="1"/>
      </contour>
      <contour>
        <pt x="467" y="6" on="0"/>
        <pt x="383" y="-10" on="0"/>
        <pt x="328" y="-10" on="1"/>
        <pt x="179" y="-10" on="0"/>
        <pt x="34" y="169" on="0"/>
        <pt x="34" y="311" on="1"/>
        <pt x="34" y="452" on="0"/>
        <pt x="177" y="628" on="0"/>
        <pt x="328" y="628" on="1"/>
        <pt x="385" y="628" on="0"/>
        <pt x="465" y="613" on="0"/>
        <pt x="512" y="599" on="1"/>
        <pt x="502" y="455" on="1"/>
        <pt x="457" y="455" on="1"/>
        <pt x="432" y="553" on="1"/>
        <pt x="392" y="565" on="0"/>
        <pt x="346" y="565" on="1"/>
        <pt x="240" y="565" on="0"/>
        <pt x="158" y="425" on="0"/>
        <pt x="158" y="311" on="1"/>
        <pt x="158" y="203" on="0"/>
        <pt x="243" y="55" on="0"/>
        <pt x="342" y="55" on="1"/>
        <pt x="386" y="55" on="0"/>
        <pt x="432" y="68" on="1"/>
        <pt x="457" y="154" on="1"/>
        <pt x="504" y="154" on="1"/>
        <pt x="512" y="22" on="1"/>
      </contour>
    </TTGlyph>
    <TTGlyph name="Cacute.loclPLK" xMin="34" yMin="-10" xMax="512" yMax="809">
      <component glyphName=".ttfautohint" x="34" y="0" flags="0x0"/>
      <component glyphName="C" x="0" y="0" flags="0x0"/>
      <component glyphName="acute.loclPLK.case" x="220" y="0" flags="0x0"/>
    </TTGlyph>
    <TTGlyph name="Ccaron" xMin="34" yMin="-10" xMax="512" yMax="800">
      <contour>
        <pt x="170" y="777" on="1"/>
        <pt x="193" y="800" on="1"/>
        <pt x="316" y="721" on="1"/>
        <pt x="438" y="800" on="1"/>
        <pt x="460" y="777" on="1"/>
        <pt x="354" y="644" on="1"/>
        <pt x="277" y="644" on="1"/>
      </contour>
      <contour>
        <pt x="179" y="-10" on="0"/>
        <pt x="34" y="169" on="0"/>
        <pt x="34" y="311" on="1"/>
        <pt x="34" y="452" on="0"/>
        <pt x="177" y="628" on="0"/>
        <pt x="328" y="628" on="1"/>
        <pt x="385" y="628" on="0"/>
        <pt x="465" y="613" on="0"/>
        <pt x="512" y="599" on="1"/>
        <pt x="502" y="455" on="1"/>
        <pt x="457" y="455" on="1"/>
        <pt x="432" y="553" on="1"/>
        <pt x="392" y="565" on="0"/>
        <pt x="346" y="565" on="1"/>
        <pt x="240" y="565" on="0"/>
        <pt x="158" y="425" on="0"/>
        <pt x="158" y="311" on="1"/>
        <pt x="158" y="203" on="0"/>
        <pt x="243" y="55" on="0"/>
        <pt x="342" y="55" on="1"/>
        <pt x="386" y="55" on="0"/>
        <pt x="432" y="68" on="1"/>
        <pt x="457" y="154" on="1"/>
        <pt x="504" y="154" on="1"/>
        <pt x="512" y="22" on="1"/>
        <pt x="467" y="6" on="0"/>
        <pt x="383" y="-10" on="0"/>
        <pt x="328" y="-10" on="1"/>
      </contour>
    </TTGlyph>
    <TTGlyph name="Ccedilla" xMin="34" yMin="-220" xMax="512" yMax="628">
      <contour>
        <pt x="467" y="6" on="0"/>
        <pt x="383" y="-10" on="0"/>
        <pt x="331" y="-10" on="1"/>
        <pt x="320" y="-46" on="1"/>
        <pt x="370" y="-46" on="0"/>
        <pt x="422" y="-86" on="0"/>
        <pt x="422" y="-117" on="1"/>
        <pt x="422" y="-145" on="0"/>
        <pt x="384" y="-192" on="0"/>
        <pt x="322" y="-220" on="0"/>
        <pt x="286" y="-220" on="1"/>
        <pt x="257" y="-220" on="0"/>
        <pt x="233" y="-210" on="1"/>
        <pt x="241" y="-175" on="1"/>
        <pt x="255" y="-182" on="0"/>
        <pt x="271" y="-182" on="1"/>
        <pt x="301" y="-182" on="0"/>
        <pt x="337" y="-150" on="0"/>
        <pt x="337" y="-129" on="1"/>
        <pt x="337" y="-111" on="0"/>
        <pt x="306" y="-87" on="0"/>
        <pt x="274" y="-86" on="1"/>
        <pt x="268" y="-71" on="1"/>
        <pt x="290" y="-8" on="1"/>
        <pt x="160" y="3" on="0"/>
        <pt x="34" y="178" on="0"/>
        <pt x="34" y="311" on="1"/>
        <pt x="34" y="452" on="0"/>
        <pt x="177" y="628" on="0"/>
        <pt x="328" y="628" on="1"/>
        <pt x="385" y="628" on="0"/>
        <pt x="465" y="613" on="0"/>
        <pt x="512" y="599" on="1"/>
        <pt x="502" y="455" on="1"/>
        <pt x="457" y="455" on="1"/>
        <pt x="432" y="553" on="1"/>
        <pt x="392" y="565" on="0"/>
        <pt x="346" y="565" on="1"/>
        <pt x="240" y="565" on="0"/>
        <pt x="158" y="425" on="0"/>
        <pt x="158" y="311" on="1"/>
        <pt x="158" y="203" on="0"/>
        <pt x="243" y="55" on="0"/>
        <pt x="342" y="55" on="1"/>
        <pt x="386" y="55" on="0"/>
        <pt x="432" y="68" on="1"/>
        <pt x="457" y="154" on="1"/>
        <pt x="504" y="154" on="1"/>
        <pt x="512" y="22" on="1"/>
      </contour>
    </TTGlyph>
    <TTGlyph name="Ccircumflex" xMin="34" yMin="-10" xMax="512" yMax="800">
      <component glyphName=".ttfautohint" x="34" y="0" flags="0x0"/>
      <component glyphName="C" x="0" y="0" flags="0x0"/>
      <component glyphName="uni0302" x="446" y="0" flags="0x0"/>
    </TTGlyph>
    <TTGlyph name="Cdotaccent" xMin="34" yMin="-10" xMax="512" yMax="794">
      <component glyphName=".ttfautohint" x="34" y="0" flags="0x0"/>
      <component glyphName="C" x="0" y="0" flags="0x0"/>
      <component glyphName="uni0307" x="446" y="0" flags="0x0"/>
    </TTGlyph>
    <TTGlyph name="D" xMin="36" yMin="0" xMax="616" yMax="613">
      <contour>
        <pt x="466" y="613" on="0"/>
        <pt x="616" y="457" on="0"/>
        <pt x="616" y="319" on="1"/>
        <pt x="616" y="177" on="0"/>
        <pt x="472" y="0" on="0"/>
        <pt x="324" y="0" on="1"/>
        <pt x="37" y="0" on="1"/>
        <pt x="37" y="41" on="1"/>
        <pt x="123" y="63" on="1"/>
        <pt x="123" y="550" on="1"/>
        <pt x="36" y="572" on="1"/>
        <pt x="36" y="613" on="1"/>
        <pt x="306" y="613" on="1"/>
      </contour>
      <contour>
        <pt x="268" y="556" on="0"/>
        <pt x="240" y="550" on="1"/>
        <pt x="240" y="65" on="1"/>
        <pt x="286" y="51" on="0"/>
        <pt x="331" y="51" on="1"/>
        <pt x="492" y="51" on="0"/>
        <pt x="492" y="319" on="1"/>
        <pt x="492" y="426" on="0"/>
        <pt x="390" y="556" on="0"/>
        <pt x="302" y="556" on="1"/>
      </contour>
    </TTGlyph>
    <TTGlyph name="Dcaron" xMin="36" yMin="0" xMax="616" yMax="800">
      <contour>
        <pt x="165" y="777" on="1"/>
        <pt x="188" y="800" on="1"/>
        <pt x="310" y="721" on="1"/>
        <pt x="433" y="800" on="1"/>
        <pt x="454" y="777" on="1"/>
        <pt x="349" y="644" on="1"/>
        <pt x="272" y="644" on="1"/>
      </contour>
      <contour>
        <pt x="37" y="41" on="1"/>
        <pt x="123" y="63" on="1"/>
        <pt x="123" y="550" on="1"/>
        <pt x="36" y="572" on="1"/>
        <pt x="36" y="613" on="1"/>
        <pt x="306" y="613" on="1"/>
        <pt x="466" y="613" on="0"/>
        <pt x="616" y="457" on="0"/>
        <pt x="616" y="319" on="1"/>
        <pt x="616" y="177" on="0"/>
        <pt x="472" y="0" on="0"/>
        <pt x="324" y="0" on="1"/>
        <pt x="37" y="0" on="1"/>
      </contour>
      <contour>
        <pt x="492" y="51" on="0"/>
        <pt x="492" y="319" on="1"/>
        <pt x="492" y="426" on="0"/>
        <pt x="390" y="556" on="0"/>
        <pt x="302" y="556" on="1"/>
        <pt x="268" y="556" on="0"/>
        <pt x="240" y="550" on="1"/>
        <pt x="240" y="65" on="1"/>
        <pt x="286" y="51" on="0"/>
        <pt x="331" y="51" on="1"/>
      </contour>
    </TTGlyph>
    <TTGlyph name="Dcroat" xMin="38" yMin="0" xMax="618" yMax="613">
      <component glyphName=".ttfautohint" x="38" y="0" flags="0x0"/>
      <component glyphName="Eth" x="0" y="0" flags="0x0"/>
    </TTGlyph>
    <TTGlyph name="E" xMin="36" yMin="0" xMax="511" yMax="613">
      <contour>
        <pt x="427" y="394" on="1"/>
        <pt x="427" y="206" on="1"/>
        <pt x="380" y="206" on="1"/>
        <pt x="359" y="275" on="1"/>
        <pt x="242" y="275" on="1"/>
        <pt x="242" y="65" on="1"/>
        <pt x="435" y="65" on="1"/>
        <pt x="461" y="157" on="1"/>
        <pt x="511" y="157" on="1"/>
        <pt x="511" y="0" on="1"/>
        <pt x="37" y="0" on="1"/>
        <pt x="37" y="41" on="1"/>
        <pt x="125" y="63" on="1"/>
        <pt x="125" y="550" on="1"/>
        <pt x="36" y="572" on="1"/>
        <pt x="36" y="613" on="1"/>
        <pt x="489" y="613" on="1"/>
        <pt x="489" y="472" on="1"/>
        <pt x="439" y="472" on="1"/>
        <pt x="418" y="551" on="1"/>
        <pt x="242" y="551" on="1"/>
        <pt x="242" y="328" on="1"/>
        <pt x="361" y="328" on="1"/>
        <pt x="380" y="394" on="1"/>
      </contour>
    </TTGlyph>
    <TTGlyph name="Eacute" xMin="36" yMin="0" xMax="511" yMax="800">
      <contour>
        <pt x="181" y="669" on="1"/>
        <pt x="336" y="800" on="1"/>
        <pt x="427" y="768" on="1"/>
        <pt x="427" y="746" on="1"/>
        <pt x="204" y="640" on="1"/>
      </contour>
      <contour>
        <pt x="37" y="41" on="1"/>
        <pt x="125" y="63" on="1"/>
        <pt x="125" y="550" on="1"/>
        <pt x="36" y="572" on="1"/>
        <pt x="36" y="613" on="1"/>
        <pt x="489" y="613" on="1"/>
        <pt x="489" y="472" on="1"/>
        <pt x="439" y="472" on="1"/>
        <pt x="418" y="551" on="1"/>
        <pt x="242" y="551" on="1"/>
        <pt x="242" y="328" on="1"/>
        <pt x="361" y="328" on="1"/>
        <pt x="380" y="394" on="1"/>
        <pt x="427" y="394" on="1"/>
        <pt x="427" y="206" on="1"/>
        <pt x="380" y="206" on="1"/>
        <pt x="359" y="275" on="1"/>
        <pt x="242" y="275" on="1"/>
        <pt x="242" y="65" on="1"/>
        <pt x="435" y="65" on="1"/>
        <pt x="461" y="157" on="1"/>
        <pt x="511" y="157" on="1"/>
        <pt x="511" y="0" on="1"/>
        <pt x="37" y="0" on="1"/>
      </contour>
    </TTGlyph>
    <TTGlyph name="Ebreve" xMin="36" yMin="0" xMax="511" yMax="786">
      <component glyphName=".ttfautohint" x="36" y="0" flags="0x0"/>
      <component glyphName="E" x="0" y="0" flags="0x0"/>
      <component glyphName="uni0306" x="400" y="0" flags="0x0"/>
    </TTGlyph>
    <TTGlyph name="Ecaron" xMin="36" yMin="0" xMax="511" yMax="800">
      <contour>
        <pt x="150" y="777" on="1"/>
        <pt x="173" y="800" on="1"/>
        <pt x="296" y="721" on="1"/>
        <pt x="419" y="800" on="1"/>
        <pt x="440" y="777" on="1"/>
        <pt x="334" y="644" on="1"/>
        <pt x="258" y="644" on="1"/>
      </contour>
      <contour>
        <pt x="37" y="41" on="1"/>
        <pt x="125" y="63" on="1"/>
        <pt x="125" y="550" on="1"/>
        <pt x="36" y="572" on="1"/>
        <pt x="36" y="613" on="1"/>
        <pt x="489" y="613" on="1"/>
        <pt x="489" y="472" on="1"/>
        <pt x="439" y="472" on="1"/>
        <pt x="418" y="551" on="1"/>
        <pt x="242" y="551" on="1"/>
        <pt x="242" y="328" on="1"/>
        <pt x="361" y="328" on="1"/>
        <pt x="380" y="394" on="1"/>
        <pt x="427" y="394" on="1"/>
        <pt x="427" y="206" on="1"/>
        <pt x="380" y="206" on="1"/>
        <pt x="359" y="275" on="1"/>
        <pt x="242" y="275" on="1"/>
        <pt x="242" y="65" on="1"/>
        <pt x="435" y="65" on="1"/>
        <pt x="461" y="157" on="1"/>
        <pt x="511" y="157" on="1"/>
        <pt x="511" y="0" on="1"/>
        <pt x="37" y="0" on="1"/>
      </contour>
    </TTGlyph>
    <TTGlyph name="Ecircumflex" xMin="36" yMin="0" xMax="511" yMax="800">
      <contour>
        <pt x="282" y="723" on="1"/>
        <pt x="161" y="644" on="1"/>
        <pt x="139" y="666" on="1"/>
        <pt x="245" y="800" on="1"/>
        <pt x="321" y="800" on="1"/>
        <pt x="428" y="666" on="1"/>
        <pt x="407" y="644" on="1"/>
      </contour>
      <contour>
        <pt x="427" y="394" on="1"/>
        <pt x="427" y="206" on="1"/>
        <pt x="380" y="206" on="1"/>
        <pt x="359" y="275" on="1"/>
        <pt x="242" y="275" on="1"/>
        <pt x="242" y="65" on="1"/>
        <pt x="435" y="65" on="1"/>
        <pt x="461" y="157" on="1"/>
        <pt x="511" y="157" on="1"/>
        <pt x="511" y="0" on="1"/>
        <pt x="37" y="0" on="1"/>
        <pt x="37" y="41" on="1"/>
        <pt x="125" y="63" on="1"/>
        <pt x="125" y="550" on="1"/>
        <pt x="36" y="572" on="1"/>
        <pt x="36" y="613" on="1"/>
        <pt x="489" y="613" on="1"/>
        <pt x="489" y="472" on="1"/>
        <pt x="439" y="472" on="1"/>
        <pt x="418" y="551" on="1"/>
        <pt x="242" y="551" on="1"/>
        <pt x="242" y="328" on="1"/>
        <pt x="361" y="328" on="1"/>
        <pt x="380" y="394" on="1"/>
      </contour>
    </TTGlyph>
    <TTGlyph name="Edieresis" xMin="36" yMin="0" xMax="511" yMax="788">
      <contour>
        <pt x="239" y="692" on="0"/>
        <pt x="199" y="654" on="0"/>
        <pt x="171" y="654" on="1"/>
        <pt x="142" y="654" on="0"/>
        <pt x="100" y="692" on="0"/>
        <pt x="100" y="720" on="1"/>
        <pt x="100" y="748" on="0"/>
        <pt x="142" y="788" on="0"/>
        <pt x="171" y="788" on="1"/>
        <pt x="198" y="788" on="0"/>
        <pt x="239" y="748" on="0"/>
        <pt x="239" y="720" on="1"/>
      </contour>
      <contour>
        <pt x="457" y="692" on="0"/>
        <pt x="417" y="654" on="0"/>
        <pt x="390" y="654" on="1"/>
        <pt x="361" y="654" on="0"/>
        <pt x="319" y="692" on="0"/>
        <pt x="319" y="720" on="1"/>
        <pt x="319" y="748" on="0"/>
        <pt x="361" y="788" on="0"/>
        <pt x="390" y="788" on="1"/>
        <pt x="417" y="788" on="0"/>
        <pt x="457" y="748" on="0"/>
        <pt x="457" y="720" on="1"/>
      </contour>
      <contour>
        <pt x="427" y="394" on="1"/>
        <pt x="427" y="206" on="1"/>
        <pt x="380" y="206" on="1"/>
        <pt x="359" y="275" on="1"/>
        <pt x="242" y="275" on="1"/>
        <pt x="242" y="65" on="1"/>
        <pt x="435" y="65" on="1"/>
        <pt x="461" y="157" on="1"/>
        <pt x="511" y="157" on="1"/>
        <pt x="511" y="0" on="1"/>
        <pt x="37" y="0" on="1"/>
        <pt x="37" y="41" on="1"/>
        <pt x="125" y="63" on="1"/>
        <pt x="125" y="550" on="1"/>
        <pt x="36" y="572" on="1"/>
        <pt x="36" y="613" on="1"/>
        <pt x="489" y="613" on="1"/>
        <pt x="489" y="472" on="1"/>
        <pt x="439" y="472" on="1"/>
        <pt x="418" y="551" on="1"/>
        <pt x="242" y="551" on="1"/>
        <pt x="242" y="328" on="1"/>
        <pt x="361" y="328" on="1"/>
        <pt x="380" y="394" on="1"/>
      </contour>
    </TTGlyph>
    <TTGlyph name="Edotaccent" xMin="36" yMin="0" xMax="511" yMax="794">
      <contour>
        <pt x="369" y="688" on="0"/>
        <pt x="325" y="646" on="0"/>
        <pt x="295" y="646" on="1"/>
        <pt x="264" y="646" on="0"/>
        <pt x="218" y="688" on="0"/>
        <pt x="218" y="718" on="1"/>
        <pt x="218" y="749" on="0"/>
        <pt x="264" y="794" on="0"/>
        <pt x="295" y="794" on="1"/>
        <pt x="325" y="794" on="0"/>
        <pt x="369" y="749" on="0"/>
        <pt x="369" y="718" on="1"/>
      </contour>
      <contour>
        <pt x="427" y="394" on="1"/>
        <pt x="427" y="206" on="1"/>
        <pt x="380" y="206" on="1"/>
        <pt x="359" y="275" on="1"/>
        <pt x="242" y="275" on="1"/>
        <pt x="242" y="65" on="1"/>
        <pt x="435" y="65" on="1"/>
        <pt x="461" y="157" on="1"/>
        <pt x="511" y="157" on="1"/>
        <pt x="511" y="0" on="1"/>
        <pt x="37" y="0" on="1"/>
        <pt x="37" y="41" on="1"/>
        <pt x="125" y="63" on="1"/>
        <pt x="125" y="550" on="1"/>
        <pt x="36" y="572" on="1"/>
        <pt x="36" y="613" on="1"/>
        <pt x="489" y="613" on="1"/>
        <pt x="489" y="472" on="1"/>
        <pt x="439" y="472" on="1"/>
        <pt x="418" y="551" on="1"/>
        <pt x="242" y="551" on="1"/>
        <pt x="242" y="328" on="1"/>
        <pt x="361" y="328" on="1"/>
        <pt x="380" y="394" on="1"/>
      </contour>
    </TTGlyph>
    <TTGlyph name="Egrave" xMin="36" yMin="0" xMax="511" yMax="800">
      <contour>
        <pt x="151" y="746" on="1"/>
        <pt x="154" y="768" on="1"/>
        <pt x="244" y="800" on="1"/>
        <pt x="398" y="669" on="1"/>
        <pt x="378" y="640" on="1"/>
      </contour>
      <contour>
        <pt x="37" y="41" on="1"/>
        <pt x="125" y="63" on="1"/>
        <pt x="125" y="550" on="1"/>
        <pt x="36" y="572" on="1"/>
        <pt x="36" y="613" on="1"/>
        <pt x="489" y="613" on="1"/>
        <pt x="489" y="472" on="1"/>
        <pt x="439" y="472" on="1"/>
        <pt x="418" y="551" on="1"/>
        <pt x="242" y="551" on="1"/>
        <pt x="242" y="328" on="1"/>
        <pt x="361" y="328" on="1"/>
        <pt x="380" y="394" on="1"/>
        <pt x="427" y="394" on="1"/>
        <pt x="427" y="206" on="1"/>
        <pt x="380" y="206" on="1"/>
        <pt x="359" y="275" on="1"/>
        <pt x="242" y="275" on="1"/>
        <pt x="242" y="65" on="1"/>
        <pt x="435" y="65" on="1"/>
        <pt x="461" y="157" on="1"/>
        <pt x="511" y="157" on="1"/>
        <pt x="511" y="0" on="1"/>
        <pt x="37" y="0" on="1"/>
      </contour>
    </TTGlyph>
    <TTGlyph name="Emacron" xMin="36" yMin="0" xMax="511" yMax="755">
      <contour>
        <pt x="405" y="755" on="1"/>
        <pt x="405" y="685" on="1"/>
        <pt x="173" y="685" on="1"/>
        <pt x="173" y="755" on="1"/>
      </contour>
      <contour>
        <pt x="427" y="394" on="1"/>
        <pt x="427" y="206" on="1"/>
        <pt x="380" y="206" on="1"/>
        <pt x="359" y="275" on="1"/>
        <pt x="242" y="275" on="1"/>
        <pt x="242" y="65" on="1"/>
        <pt x="435" y="65" on="1"/>
        <pt x="461" y="157" on="1"/>
        <pt x="511" y="157" on="1"/>
        <pt x="511" y="0" on="1"/>
        <pt x="37" y="0" on="1"/>
        <pt x="37" y="41" on="1"/>
        <pt x="125" y="63" on="1"/>
        <pt x="125" y="550" on="1"/>
        <pt x="36" y="572" on="1"/>
        <pt x="36" y="613" on="1"/>
        <pt x="489" y="613" on="1"/>
        <pt x="489" y="472" on="1"/>
        <pt x="439" y="472" on="1"/>
        <pt x="418" y="551" on="1"/>
        <pt x="242" y="551" on="1"/>
        <pt x="242" y="328" on="1"/>
        <pt x="361" y="328" on="1"/>
        <pt x="380" y="394" on="1"/>
      </contour>
    </TTGlyph>
    <TTGlyph name="Eng" xMin="35" yMin="-168" xMax="691" yMax="613">
      <contour>
        <pt x="450" y="-168" on="0"/>
        <pt x="394" y="-154" on="0"/>
        <pt x="367" y="-141" on="1"/>
        <pt x="373" y="-99" on="1"/>
        <pt x="418" y="-99" on="1"/>
        <pt x="454" y="-99" on="0"/>
        <pt x="490" y="-50" on="0"/>
        <pt x="490" y="-19" on="1"/>
        <pt x="490" y="23" on="1"/>
        <pt x="184" y="467" on="1"/>
        <pt x="184" y="63" on="1"/>
        <pt x="269" y="41" on="1"/>
        <pt x="269" y="0" on="1"/>
        <pt x="36" y="0" on="1"/>
        <pt x="36" y="41" on="1"/>
        <pt x="119" y="63" on="1"/>
        <pt x="119" y="551" on="1"/>
        <pt x="35" y="572" on="1"/>
        <pt x="35" y="613" on="1"/>
        <pt x="221" y="613" on="1"/>
        <pt x="540" y="152" on="1"/>
        <pt x="540" y="551" on="1"/>
        <pt x="455" y="572" on="1"/>
        <pt x="455" y="613" on="1"/>
        <pt x="691" y="613" on="1"/>
        <pt x="691" y="572" on="1"/>
        <pt x="607" y="551" on="1"/>
        <pt x="607" y="56" on="1"/>
        <pt x="607" y="-63" on="0"/>
        <pt x="528" y="-168" on="0"/>
        <pt x="467" y="-168" on="1"/>
      </contour>
    </TTGlyph>
    <TTGlyph name="Eogonek" xMin="36" yMin="-234" xMax="534" yMax="613">
      <contour>
        <pt x="378" y="-234" on="0"/>
        <pt x="330" y="-185" on="0"/>
        <pt x="330" y="-148" on="1"/>
        <pt x="330" y="-116" on="0"/>
        <pt x="376" y="-37" on="0"/>
        <pt x="422" y="0" on="1"/>
        <pt x="37" y="0" on="1"/>
        <pt x="37" y="41" on="1"/>
        <pt x="125" y="63" on="1"/>
        <pt x="125" y="550" on="1"/>
        <pt x="36" y="572" on="1"/>
        <pt x="36" y="613" on="1"/>
        <pt x="489" y="613" on="1"/>
        <pt x="489" y="472" on="1"/>
        <pt x="439" y="472" on="1"/>
        <pt x="418" y="551" on="1"/>
        <pt x="242" y="551" on="1"/>
        <pt x="242" y="328" on="1"/>
        <pt x="361" y="328" on="1"/>
        <pt x="380" y="394" on="1"/>
        <pt x="427" y="394" on="1"/>
        <pt x="427" y="206" on="1"/>
        <pt x="380" y="206" on="1"/>
        <pt x="359" y="275" on="1"/>
        <pt x="242" y="275" on="1"/>
        <pt x="242" y="65" on="1"/>
        <pt x="435" y="65" on="1"/>
        <pt x="461" y="157" on="1"/>
        <pt x="511" y="157" on="1"/>
        <pt x="511" y="0" on="1"/>
        <pt x="463" y="0" on="1"/>
        <pt x="446" y="-17" on="0"/>
        <pt x="409" y="-89" on="0"/>
        <pt x="409" y="-128" on="1"/>
        <pt x="409" y="-151" on="0"/>
        <pt x="433" y="-178" on="0"/>
        <pt x="456" y="-178" on="1"/>
        <pt x="487" y="-178" on="0"/>
        <pt x="513" y="-156" on="1"/>
        <pt x="534" y="-176" on="1"/>
        <pt x="534" y="-178" on="0"/>
        <pt x="508" y="-208" on="0"/>
        <pt x="462" y="-234" on="0"/>
        <pt x="430" y="-234" on="1"/>
      </contour>
    </TTGlyph>
    <TTGlyph name="Eth" xMin="38" yMin="0" xMax="618" yMax="613">
      <contour>
        <pt x="39" y="41" on="1"/>
        <pt x="125" y="63" on="1"/>
        <pt x="125" y="275" on="1"/>
        <pt x="40" y="275" on="1"/>
        <pt x="40" y="328" on="1"/>
        <pt x="125" y="328" on="1"/>
        <pt x="125" y="550" on="1"/>
        <pt x="38" y="572" on="1"/>
        <pt x="38" y="613" on="1"/>
        <pt x="308" y="613" on="1"/>
        <pt x="468" y="613" on="0"/>
        <pt x="618" y="457" on="0"/>
        <pt x="618" y="319" on="1"/>
        <pt x="618" y="177" on="0"/>
        <pt x="474" y="0" on="0"/>
        <pt x="326" y="0" on="1"/>
        <pt x="39" y="0" on="1"/>
      </contour>
      <contour>
        <pt x="494" y="51" on="0"/>
        <pt x="494" y="319" on="1"/>
        <pt x="494" y="426" on="0"/>
        <pt x="392" y="556" on="0"/>
        <pt x="304" y="556" on="1"/>
        <pt x="268" y="556" on="0"/>
        <pt x="242" y="550" on="1"/>
        <pt x="242" y="328" on="1"/>
        <pt x="354" y="328" on="1"/>
        <pt x="354" y="275" on="1"/>
        <pt x="242" y="275" on="1"/>
        <pt x="242" y="65" on="1"/>
        <pt x="288" y="51" on="0"/>
        <pt x="333" y="51" on="1"/>
      </contour>
    </TTGlyph>
    <TTGlyph name="Euro" xMin="22" yMin="-5" xMax="498" yMax="621">
      <contour>
        <pt x="220" y="279" on="0"/>
        <pt x="221" y="267" on="1"/>
        <pt x="409" y="267" on="1"/>
        <pt x="400" y="214" on="1"/>
        <pt x="225" y="214" on="1"/>
        <pt x="236" y="139" on="0"/>
        <pt x="310" y="56" on="0"/>
        <pt x="387" y="56" on="1"/>
        <pt x="427" y="56" on="0"/>
        <pt x="485" y="68" on="1"/>
        <pt x="494" y="18" on="1"/>
        <pt x="433" y="-5" on="0"/>
        <pt x="358" y="-5" on="1"/>
        <pt x="293" y="-5" on="0"/>
        <pt x="194" y="27" on="0"/>
        <pt x="122" y="124" on="0"/>
        <pt x="110" y="214" on="1"/>
        <pt x="22" y="214" on="1"/>
        <pt x="31" y="267" on="1"/>
        <pt x="105" y="267" on="1"/>
        <pt x="104" y="279" on="0"/>
        <pt x="104" y="311" on="1"/>
        <pt x="104" y="330" on="1"/>
        <pt x="22" y="330" on="1"/>
        <pt x="31" y="383" on="1"/>
        <pt x="108" y="383" on="1"/>
        <pt x="135" y="621" on="0"/>
        <pt x="341" y="621" on="1"/>
        <pt x="419" y="621" on="0"/>
        <pt x="498" y="593" on="1"/>
        <pt x="485" y="464" on="1"/>
        <pt x="443" y="464" on="1"/>
        <pt x="420" y="550" on="1"/>
        <pt x="392" y="559" on="0"/>
        <pt x="358" y="559" on="1"/>
        <pt x="302" y="559" on="0"/>
        <pt x="233" y="484" on="0"/>
        <pt x="223" y="383" on="1"/>
        <pt x="409" y="383" on="1"/>
        <pt x="400" y="330" on="1"/>
        <pt x="220" y="330" on="1"/>
        <pt x="220" y="310" on="1"/>
      </contour>
    </TTGlyph>
    <TTGlyph name="F" xMin="36" yMin="0" xMax="489" yMax="613">
      <contour>
        <pt x="489" y="472" on="1"/>
        <pt x="439" y="472" on="1"/>
        <pt x="418" y="551" on="1"/>
        <pt x="242" y="551" on="1"/>
        <pt x="242" y="318" on="1"/>
        <pt x="361" y="318" on="1"/>
        <pt x="380" y="384" on="1"/>
        <pt x="427" y="384" on="1"/>
        <pt x="427" y="196" on="1"/>
        <pt x="380" y="196" on="1"/>
        <pt x="359" y="265" on="1"/>
        <pt x="242" y="265" on="1"/>
        <pt x="242" y="68" on="1"/>
        <pt x="350" y="44" on="1"/>
        <pt x="350" y="0" on="1"/>
        <pt x="37" y="0" on="1"/>
        <pt x="37" y="41" on="1"/>
        <pt x="125" y="63" on="1"/>
        <pt x="125" y="550" on="1"/>
        <pt x="36" y="572" on="1"/>
        <pt x="36" y="613" on="1"/>
        <pt x="489" y="613" on="1"/>
      </contour>
    </TTGlyph>
    <TTGlyph name="G" xMin="34" yMin="-10" xMax="599" yMax="628">
      <contour>
        <pt x="416" y="565" on="0"/>
        <pt x="355" y="565" on="1"/>
        <pt x="245" y="565" on="0"/>
        <pt x="158" y="415" on="0"/>
        <pt x="158" y="311" on="1"/>
        <pt x="158" y="201" on="0"/>
        <pt x="241" y="54" on="0"/>
        <pt x="340" y="54" on="1"/>
        <pt x="387" y="54" on="0"/>
        <pt x="418" y="66" on="1"/>
        <pt x="418" y="226" on="1"/>
        <pt x="333" y="247" on="1"/>
        <pt x="333" y="289" on="1"/>
        <pt x="599" y="289" on="1"/>
        <pt x="599" y="246" on="1"/>
        <pt x="535" y="227" on="1"/>
        <pt x="535" y="32" on="1"/>
        <pt x="500" y="12" on="0"/>
        <pt x="400" y="-10" on="0"/>
        <pt x="344" y="-10" on="1"/>
        <pt x="182" y="-10" on="0"/>
        <pt x="34" y="168" on="0"/>
        <pt x="34" y="311" on="1"/>
        <pt x="34" y="452" on="0"/>
        <pt x="189" y="628" on="0"/>
        <pt x="354" y="628" on="1"/>
        <pt x="401" y="628" on="0"/>
        <pt x="505" y="612" on="0"/>
        <pt x="536" y="599" on="1"/>
        <pt x="524" y="455" on="1"/>
        <pt x="474" y="455" on="1"/>
        <pt x="449" y="553" on="1"/>
      </contour>
    </TTGlyph>
    <TTGlyph name="G_tilde.loclGUA" xMin="34" yMin="-10" xMax="599" yMax="797">
      <contour>
        <pt x="475" y="727" on="0"/>
        <pt x="436" y="674" on="0"/>
        <pt x="413" y="674" on="1"/>
        <pt x="389" y="674" on="0"/>
        <pt x="323" y="694" on="1"/>
        <pt x="302" y="701" on="0"/>
        <pt x="260" y="712" on="0"/>
        <pt x="249" y="712" on="1"/>
        <pt x="239" y="712" on="0"/>
        <pt x="220" y="697" on="0"/>
        <pt x="208" y="682" on="0"/>
        <pt x="207" y="679" on="1"/>
        <pt x="166" y="696" on="1"/>
        <pt x="182" y="741" on="0"/>
        <pt x="225" y="797" on="0"/>
        <pt x="249" y="797" on="1"/>
        <pt x="272" y="797" on="0"/>
        <pt x="336" y="777" on="1"/>
        <pt x="358" y="770" on="0"/>
        <pt x="401" y="759" on="0"/>
        <pt x="413" y="759" on="1"/>
        <pt x="424" y="759" on="0"/>
        <pt x="442" y="773" on="0"/>
        <pt x="454" y="789" on="0"/>
        <pt x="455" y="791" on="1"/>
        <pt x="495" y="774" on="1"/>
      </contour>
      <contour>
        <pt x="416" y="565" on="0"/>
        <pt x="355" y="565" on="1"/>
        <pt x="245" y="565" on="0"/>
        <pt x="158" y="415" on="0"/>
        <pt x="158" y="311" on="1"/>
        <pt x="158" y="201" on="0"/>
        <pt x="241" y="54" on="0"/>
        <pt x="340" y="54" on="1"/>
        <pt x="387" y="54" on="0"/>
        <pt x="418" y="66" on="1"/>
        <pt x="418" y="226" on="1"/>
        <pt x="333" y="247" on="1"/>
        <pt x="333" y="289" on="1"/>
        <pt x="599" y="289" on="1"/>
        <pt x="599" y="246" on="1"/>
        <pt x="535" y="227" on="1"/>
        <pt x="535" y="32" on="1"/>
        <pt x="500" y="12" on="0"/>
        <pt x="400" y="-10" on="0"/>
        <pt x="344" y="-10" on="1"/>
        <pt x="182" y="-10" on="0"/>
        <pt x="34" y="168" on="0"/>
        <pt x="34" y="311" on="1"/>
        <pt x="34" y="452" on="0"/>
        <pt x="189" y="628" on="0"/>
        <pt x="354" y="628" on="1"/>
        <pt x="401" y="628" on="0"/>
        <pt x="505" y="612" on="0"/>
        <pt x="536" y="599" on="1"/>
        <pt x="524" y="455" on="1"/>
        <pt x="474" y="455" on="1"/>
        <pt x="449" y="553" on="1"/>
      </contour>
    </TTGlyph>
    <TTGlyph name="Gbreve" xMin="34" yMin="-10" xMax="599" yMax="786">
      <contour>
        <pt x="255" y="656" on="0"/>
        <pt x="205" y="725" on="0"/>
        <pt x="205" y="784" on="1"/>
        <pt x="255" y="786" on="1"/>
        <pt x="255" y="760" on="0"/>
        <pt x="287" y="724" on="0"/>
        <pt x="325" y="724" on="1"/>
        <pt x="365" y="724" on="0"/>
        <pt x="397" y="760" on="0"/>
        <pt x="397" y="786" on="1"/>
        <pt x="445" y="784" on="1"/>
        <pt x="445" y="726" on="0"/>
        <pt x="391" y="656" on="0"/>
        <pt x="323" y="656" on="1"/>
      </contour>
      <contour>
        <pt x="416" y="565" on="0"/>
        <pt x="355" y="565" on="1"/>
        <pt x="245" y="565" on="0"/>
        <pt x="158" y="415" on="0"/>
        <pt x="158" y="311" on="1"/>
        <pt x="158" y="201" on="0"/>
        <pt x="241" y="54" on="0"/>
        <pt x="340" y="54" on="1"/>
        <pt x="387" y="54" on="0"/>
        <pt x="418" y="66" on="1"/>
        <pt x="418" y="226" on="1"/>
        <pt x="333" y="247" on="1"/>
        <pt x="333" y="289" on="1"/>
        <pt x="599" y="289" on="1"/>
        <pt x="599" y="246" on="1"/>
        <pt x="535" y="227" on="1"/>
        <pt x="535" y="32" on="1"/>
        <pt x="500" y="12" on="0"/>
        <pt x="400" y="-10" on="0"/>
        <pt x="344" y="-10" on="1"/>
        <pt x="182" y="-10" on="0"/>
        <pt x="34" y="168" on="0"/>
        <pt x="34" y="311" on="1"/>
        <pt x="34" y="452" on="0"/>
        <pt x="189" y="628" on="0"/>
        <pt x="354" y="628" on="1"/>
        <pt x="401" y="628" on="0"/>
        <pt x="505" y="612" on="0"/>
        <pt x="536" y="599" on="1"/>
        <pt x="524" y="455" on="1"/>
        <pt x="474" y="455" on="1"/>
        <pt x="449" y="553" on="1"/>
      </contour>
    </TTGlyph>
    <TTGlyph name="Gcaron" xMin="34" yMin="-10" xMax="599" yMax="800">
      <component glyphName=".ttfautohint" x="34" y="0" flags="0x0"/>
      <component glyphName="G" x="0" y="0" flags="0x0"/>
      <component glyphName="uni030C" x="435" y="0" flags="0x0"/>
    </TTGlyph>
    <TTGlyph name="Gcircumflex" xMin="34" yMin="-10" xMax="599" yMax="800">
      <component glyphName=".ttfautohint" x="34" y="0" flags="0x0"/>
      <component glyphName="G" x="0" y="0" flags="0x0"/>
      <component glyphName="uni0302" x="435" y="0" flags="0x0"/>
    </TTGlyph>
    <TTGlyph name="Gcommaaccent" xMin="34" yMin="-231" xMax="599" yMax="628">
      <contour>
        <pt x="182" y="-10" on="0"/>
        <pt x="34" y="168" on="0"/>
        <pt x="34" y="311" on="1"/>
        <pt x="34" y="452" on="0"/>
        <pt x="189" y="628" on="0"/>
        <pt x="354" y="628" on="1"/>
        <pt x="401" y="628" on="0"/>
        <pt x="505" y="612" on="0"/>
        <pt x="536" y="599" on="1"/>
        <pt x="524" y="455" on="1"/>
        <pt x="474" y="455" on="1"/>
        <pt x="449" y="553" on="1"/>
        <pt x="416" y="565" on="0"/>
        <pt x="355" y="565" on="1"/>
        <pt x="245" y="565" on="0"/>
        <pt x="158" y="415" on="0"/>
        <pt x="158" y="311" on="1"/>
        <pt x="158" y="201" on="0"/>
        <pt x="241" y="54" on="0"/>
        <pt x="340" y="54" on="1"/>
        <pt x="387" y="54" on="0"/>
        <pt x="418" y="66" on="1"/>
        <pt x="418" y="226" on="1"/>
        <pt x="333" y="247" on="1"/>
        <pt x="333" y="289" on="1"/>
        <pt x="599" y="289" on="1"/>
        <pt x="599" y="246" on="1"/>
        <pt x="535" y="227" on="1"/>
        <pt x="535" y="32" on="1"/>
        <pt x="500" y="12" on="0"/>
        <pt x="400" y="-10" on="0"/>
        <pt x="344" y="-10" on="1"/>
      </contour>
      <contour>
        <pt x="282" y="-44" on="1"/>
        <pt x="365" y="-25" on="1"/>
        <pt x="386" y="-46" on="1"/>
        <pt x="311" y="-231" on="1"/>
        <pt x="271" y="-226" on="1"/>
      </contour>
    </TTGlyph>
    <TTGlyph name="Gdotaccent" xMin="34" yMin="-10" xMax="599" yMax="794">
      <component glyphName=".ttfautohint" x="34" y="0" flags="0x0"/>
      <component glyphName="G" x="0" y="0" flags="0x0"/>
      <component glyphName="uni0307" x="435" y="0" flags="0x0"/>
    </TTGlyph>
    <TTGlyph name="H" xMin="36" yMin="0" xMax="696" yMax="613">
      <contour>
        <pt x="36" y="41" on="1"/>
        <pt x="123" y="63" on="1"/>
        <pt x="123" y="551" on="1"/>
        <pt x="36" y="572" on="1"/>
        <pt x="36" y="613" on="1"/>
        <pt x="326" y="613" on="1"/>
        <pt x="326" y="572" on="1"/>
        <pt x="240" y="551" on="1"/>
        <pt x="240" y="333" on="1"/>
        <pt x="492" y="333" on="1"/>
        <pt x="492" y="551" on="1"/>
        <pt x="405" y="572" on="1"/>
        <pt x="405" y="613" on="1"/>
        <pt x="695" y="613" on="1"/>
        <pt x="695" y="572" on="1"/>
        <pt x="609" y="551" on="1"/>
        <pt x="609" y="63" on="1"/>
        <pt x="696" y="41" on="1"/>
        <pt x="696" y="0" on="1"/>
        <pt x="406" y="0" on="1"/>
        <pt x="406" y="41" on="1"/>
        <pt x="492" y="63" on="1"/>
        <pt x="492" y="277" on="1"/>
        <pt x="240" y="277" on="1"/>
        <pt x="240" y="63" on="1"/>
        <pt x="326" y="41" on="1"/>
        <pt x="326" y="0" on="1"/>
        <pt x="36" y="0" on="1"/>
      </contour>
    </TTGlyph>
    <TTGlyph name="Hbar" xMin="36" yMin="0" xMax="696" yMax="613">
      <contour>
        <pt x="696" y="41" on="1"/>
        <pt x="696" y="0" on="1"/>
        <pt x="406" y="0" on="1"/>
        <pt x="406" y="41" on="1"/>
        <pt x="492" y="63" on="1"/>
        <pt x="492" y="247" on="1"/>
        <pt x="240" y="247" on="1"/>
        <pt x="240" y="63" on="1"/>
        <pt x="326" y="41" on="1"/>
        <pt x="326" y="0" on="1"/>
        <pt x="36" y="0" on="1"/>
        <pt x="36" y="41" on="1"/>
        <pt x="123" y="63" on="1"/>
        <pt x="123" y="391" on="1"/>
        <pt x="40" y="391" on="1"/>
        <pt x="40" y="443" on="1"/>
        <pt x="123" y="443" on="1"/>
        <pt x="123" y="551" on="1"/>
        <pt x="36" y="572" on="1"/>
        <pt x="36" y="613" on="1"/>
        <pt x="326" y="613" on="1"/>
        <pt x="326" y="572" on="1"/>
        <pt x="240" y="551" on="1"/>
        <pt x="240" y="443" on="1"/>
        <pt x="492" y="443" on="1"/>
        <pt x="492" y="551" on="1"/>
        <pt x="405" y="572" on="1"/>
        <pt x="405" y="613" on="1"/>
        <pt x="695" y="613" on="1"/>
        <pt x="695" y="572" on="1"/>
        <pt x="609" y="551" on="1"/>
        <pt x="609" y="443" on="1"/>
        <pt x="692" y="443" on="1"/>
        <pt x="692" y="391" on="1"/>
        <pt x="609" y="391" on="1"/>
        <pt x="609" y="63" on="1"/>
      </contour>
      <contour>
        <pt x="492" y="303" on="1"/>
        <pt x="492" y="391" on="1"/>
        <pt x="240" y="391" on="1"/>
        <pt x="240" y="303" on="1"/>
      </contour>
    </TTGlyph>
    <TTGlyph name="Hcircumflex" xMin="36" yMin="0" xMax="696" yMax="800">
      <component glyphName=".ttfautohint" x="36" y="0" flags="0x0"/>
      <component glyphName="H" x="0" y="0" flags="0x0"/>
      <component glyphName="uni0302" x="494" y="0" flags="0x0"/>
    </TTGlyph>
    <TTGlyph name="I" xMin="36" yMin="0" xMax="327" yMax="613">
      <contour>
        <pt x="37" y="41" on="1"/>
        <pt x="123" y="63" on="1"/>
        <pt x="123" y="550" on="1"/>
        <pt x="36" y="572" on="1"/>
        <pt x="36" y="613" on="1"/>
        <pt x="327" y="613" on="1"/>
        <pt x="327" y="572" on="1"/>
        <pt x="240" y="550" on="1"/>
        <pt x="240" y="63" on="1"/>
        <pt x="327" y="41" on="1"/>
        <pt x="327" y="0" on="1"/>
        <pt x="37" y="0" on="1"/>
      </contour>
    </TTGlyph>
    <TTGlyph name="IJ" xMin="36" yMin="-150" xMax="674" yMax="613">
      <component glyphName=".ttfautohint" x="36" y="0" flags="0x0"/>
      <component glyphName="I" x="0" y="0" flags="0x0"/>
      <component glyphName="J" x="360" y="0" flags="0x0"/>
    </TTGlyph>
    <TTGlyph name="Iacute" xMin="36" yMin="0" xMax="327" yMax="800">
      <contour>
        <pt x="59" y="669" on="1"/>
        <pt x="214" y="800" on="1"/>
        <pt x="305" y="768" on="1"/>
        <pt x="305" y="746" on="1"/>
        <pt x="82" y="640" on="1"/>
      </contour>
      <contour>
        <pt x="37" y="41" on="1"/>
        <pt x="123" y="63" on="1"/>
        <pt x="123" y="550" on="1"/>
        <pt x="36" y="572" on="1"/>
        <pt x="36" y="613" on="1"/>
        <pt x="327" y="613" on="1"/>
        <pt x="327" y="572" on="1"/>
        <pt x="240" y="550" on="1"/>
        <pt x="240" y="63" on="1"/>
        <pt x="327" y="41" on="1"/>
        <pt x="327" y="0" on="1"/>
        <pt x="37" y="0" on="1"/>
      </contour>
    </TTGlyph>
    <TTGlyph name="Iacute_J.loclNLD" xMin="36" yMin="-150" xMax="709" yMax="800">
      <component glyphName=".ttfautohint" x="36" y="0" flags="0x0"/>
      <component glyphName="I" x="0" y="0" flags="0x0"/>
      <component glyphName="acutecomb" x="369" y="0" flags="0x0"/>
      <component glyphName="J" x="360" y="0" flags="0x0"/>
      <component glyphName="acutecomb" x="713" y="0" flags="0x0"/>
    </TTGlyph>
    <TTGlyph name="Ibreve" xMin="36" yMin="0" xMax="327" yMax="786">
      <component glyphName=".ttfautohint" x="36" y="0" flags="0x0"/>
      <component glyphName="I" x="0" y="0" flags="0x0"/>
      <component glyphName="uni0306" x="309" y="0" flags="0x0"/>
    </TTGlyph>
    <TTGlyph name="Icircumflex" xMin="36" yMin="0" xMax="327" yMax="800">
      <contour>
        <pt x="36" y="666" on="1"/>
        <pt x="143" y="800" on="1"/>
        <pt x="219" y="800" on="1"/>
        <pt x="326" y="666" on="1"/>
        <pt x="304" y="644" on="1"/>
        <pt x="180" y="723" on="1"/>
        <pt x="59" y="644" on="1"/>
      </contour>
      <contour>
        <pt x="37" y="41" on="1"/>
        <pt x="123" y="63" on="1"/>
        <pt x="123" y="550" on="1"/>
        <pt x="36" y="572" on="1"/>
        <pt x="36" y="613" on="1"/>
        <pt x="327" y="613" on="1"/>
        <pt x="327" y="572" on="1"/>
        <pt x="240" y="550" on="1"/>
        <pt x="240" y="63" on="1"/>
        <pt x="327" y="41" on="1"/>
        <pt x="327" y="0" on="1"/>
        <pt x="37" y="0" on="1"/>
      </contour>
    </TTGlyph>
    <TTGlyph name="Idieresis" xMin="3" yMin="0" xMax="360" yMax="788">
      <contour>
        <pt x="45" y="654" on="0"/>
        <pt x="3" y="692" on="0"/>
        <pt x="3" y="720" on="1"/>
        <pt x="3" y="748" on="0"/>
        <pt x="45" y="788" on="0"/>
        <pt x="74" y="788" on="1"/>
        <pt x="101" y="788" on="0"/>
        <pt x="142" y="748" on="0"/>
        <pt x="142" y="720" on="1"/>
        <pt x="142" y="692" on="0"/>
        <pt x="102" y="654" on="0"/>
        <pt x="74" y="654" on="1"/>
      </contour>
      <contour>
        <pt x="264" y="654" on="0"/>
        <pt x="222" y="692" on="0"/>
        <pt x="222" y="720" on="1"/>
        <pt x="222" y="748" on="0"/>
        <pt x="264" y="788" on="0"/>
        <pt x="293" y="788" on="1"/>
        <pt x="320" y="788" on="0"/>
        <pt x="360" y="748" on="0"/>
        <pt x="360" y="720" on="1"/>
        <pt x="360" y="692" on="0"/>
        <pt x="320" y="654" on="0"/>
        <pt x="293" y="654" on="1"/>
      </contour>
      <contour>
        <pt x="37" y="41" on="1"/>
        <pt x="123" y="63" on="1"/>
        <pt x="123" y="550" on="1"/>
        <pt x="36" y="572" on="1"/>
        <pt x="36" y="613" on="1"/>
        <pt x="327" y="613" on="1"/>
        <pt x="327" y="572" on="1"/>
        <pt x="240" y="550" on="1"/>
        <pt x="240" y="63" on="1"/>
        <pt x="327" y="41" on="1"/>
        <pt x="327" y="0" on="1"/>
        <pt x="37" y="0" on="1"/>
      </contour>
    </TTGlyph>
    <TTGlyph name="Idotaccent" xMin="36" yMin="0" xMax="327" yMax="794">
      <contour>
        <pt x="152" y="646" on="0"/>
        <pt x="105" y="688" on="0"/>
        <pt x="105" y="718" on="1"/>
        <pt x="105" y="748" on="0"/>
        <pt x="152" y="794" on="0"/>
        <pt x="182" y="794" on="1"/>
        <pt x="212" y="794" on="0"/>
        <pt x="256" y="749" on="0"/>
        <pt x="256" y="718" on="1"/>
        <pt x="256" y="688" on="0"/>
        <pt x="212" y="646" on="0"/>
        <pt x="182" y="646" on="1"/>
      </contour>
      <contour>
        <pt x="37" y="41" on="1"/>
        <pt x="123" y="63" on="1"/>
        <pt x="123" y="550" on="1"/>
        <pt x="36" y="572" on="1"/>
        <pt x="36" y="613" on="1"/>
        <pt x="327" y="613" on="1"/>
        <pt x="327" y="572" on="1"/>
        <pt x="240" y="550" on="1"/>
        <pt x="240" y="63" on="1"/>
        <pt x="327" y="41" on="1"/>
        <pt x="327" y="0" on="1"/>
        <pt x="37" y="0" on="1"/>
      </contour>
    </TTGlyph>
    <TTGlyph name="Igrave" xMin="36" yMin="0" xMax="327" yMax="800">
      <contour>
        <pt x="58" y="746" on="1"/>
        <pt x="60" y="768" on="1"/>
        <pt x="150" y="800" on="1"/>
        <pt x="304" y="669" on="1"/>
        <pt x="284" y="640" on="1"/>
      </contour>
      <contour>
        <pt x="37" y="41" on="1"/>
        <pt x="123" y="63" on="1"/>
        <pt x="123" y="550" on="1"/>
        <pt x="36" y="572" on="1"/>
        <pt x="36" y="613" on="1"/>
        <pt x="327" y="613" on="1"/>
        <pt x="327" y="572" on="1"/>
        <pt x="240" y="550" on="1"/>
        <pt x="240" y="63" on="1"/>
        <pt x="327" y="41" on="1"/>
        <pt x="327" y="0" on="1"/>
        <pt x="37" y="0" on="1"/>
      </contour>
    </TTGlyph>
    <TTGlyph name="Imacron" xMin="36" yMin="0" xMax="327" yMax="755">
      <contour>
        <pt x="64" y="755" on="1"/>
        <pt x="296" y="755" on="1"/>
        <pt x="296" y="685" on="1"/>
        <pt x="64" y="685" on="1"/>
      </contour>
      <contour>
        <pt x="37" y="41" on="1"/>
        <pt x="123" y="63" on="1"/>
        <pt x="123" y="550" on="1"/>
        <pt x="36" y="572" on="1"/>
        <pt x="36" y="613" on="1"/>
        <pt x="327" y="613" on="1"/>
        <pt x="327" y="572" on="1"/>
        <pt x="240" y="550" on="1"/>
        <pt x="240" y="63" on="1"/>
        <pt x="327" y="41" on="1"/>
        <pt x="327" y="0" on="1"/>
        <pt x="37" y="0" on="1"/>
      </contour>
    </TTGlyph>
    <TTGlyph name="Iogonek" xMin="36" yMin="-234" xMax="334" yMax="613">
      <contour>
        <pt x="179" y="-234" on="0"/>
        <pt x="130" y="-186" on="0"/>
        <pt x="130" y="-150" on="1"/>
        <pt x="130" y="-108" on="0"/>
        <pt x="188" y="-28" on="0"/>
        <pt x="235" y="0" on="1"/>
        <pt x="37" y="0" on="1"/>
        <pt x="37" y="41" on="1"/>
        <pt x="123" y="63" on="1"/>
        <pt x="123" y="550" on="1"/>
        <pt x="36" y="572" on="1"/>
        <pt x="36" y="613" on="1"/>
        <pt x="327" y="613" on="1"/>
        <pt x="327" y="572" on="1"/>
        <pt x="240" y="550" on="1"/>
        <pt x="240" y="63" on="1"/>
        <pt x="327" y="41" on="1"/>
        <pt x="327" y="0" on="1"/>
        <pt x="267" y="-14" on="0"/>
        <pt x="209" y="-89" on="0"/>
        <pt x="209" y="-128" on="1"/>
        <pt x="209" y="-178" on="0"/>
        <pt x="257" y="-178" on="1"/>
        <pt x="289" y="-178" on="0"/>
        <pt x="313" y="-156" on="1"/>
        <pt x="334" y="-176" on="1"/>
        <pt x="323" y="-196" on="0"/>
        <pt x="271" y="-234" on="0"/>
        <pt x="231" y="-234" on="1"/>
      </contour>
    </TTGlyph>
    <TTGlyph name="Itilde" xMin="9" yMin="0" xMax="337" yMax="797">
      <contour>
        <pt x="232" y="674" on="0"/>
        <pt x="166" y="694" on="1"/>
        <pt x="145" y="701" on="0"/>
        <pt x="103" y="712" on="0"/>
        <pt x="92" y="712" on="1"/>
        <pt x="81" y="712" on="0"/>
        <pt x="63" y="697" on="0"/>
        <pt x="51" y="682" on="0"/>
        <pt x="50" y="679" on="1"/>
        <pt x="9" y="696" on="1"/>
        <pt x="25" y="741" on="0"/>
        <pt x="68" y="797" on="0"/>
        <pt x="91" y="797" on="1"/>
        <pt x="116" y="797" on="0"/>
        <pt x="180" y="777" on="1"/>
        <pt x="201" y="770" on="0"/>
        <pt x="243" y="759" on="0"/>
        <pt x="255" y="759" on="1"/>
        <pt x="266" y="759" on="0"/>
        <pt x="285" y="773" on="0"/>
        <pt x="297" y="789" on="0"/>
        <pt x="298" y="791" on="1"/>
        <pt x="337" y="774" on="1"/>
        <pt x="317" y="726" on="0"/>
        <pt x="279" y="674" on="0"/>
        <pt x="256" y="674" on="1"/>
      </contour>
      <contour>
        <pt x="37" y="41" on="1"/>
        <pt x="123" y="63" on="1"/>
        <pt x="123" y="550" on="1"/>
        <pt x="36" y="572" on="1"/>
        <pt x="36" y="613" on="1"/>
        <pt x="327" y="613" on="1"/>
        <pt x="327" y="572" on="1"/>
        <pt x="240" y="550" on="1"/>
        <pt x="240" y="63" on="1"/>
        <pt x="327" y="41" on="1"/>
        <pt x="327" y="0" on="1"/>
        <pt x="37" y="0" on="1"/>
      </contour>
    </TTGlyph>
    <TTGlyph name="J" xMin="-35" yMin="-150" xMax="314" yMax="613">
      <contour>
        <pt x="10" y="-150" on="0"/>
        <pt x="-35" y="-119" on="1"/>
        <pt x="-31" y="-86" on="1"/>
        <pt x="39" y="-86" on="1"/>
        <pt x="81" y="-86" on="0"/>
        <pt x="112" y="-23" on="0"/>
        <pt x="112" y="37" on="1"/>
        <pt x="112" y="550" on="1"/>
        <pt x="26" y="572" on="1"/>
        <pt x="26" y="613" on="1"/>
        <pt x="314" y="613" on="1"/>
        <pt x="314" y="572" on="1"/>
        <pt x="228" y="550" on="1"/>
        <pt x="228" y="63" on="1"/>
        <pt x="228" y="-56" on="0"/>
        <pt x="150" y="-150" on="0"/>
        <pt x="72" y="-150" on="1"/>
      </contour>
    </TTGlyph>
    <TTGlyph name="Jcircumflex" xMin="-35" yMin="-150" xMax="314" yMax="800">
      <component glyphName=".ttfautohint" x="0" y="0" flags="0x0"/>
      <component glyphName="J" x="0" y="0" flags="0x0"/>
      <component glyphName="uni0302" x="294" y="0" flags="0x0"/>
    </TTGlyph>
    <TTGlyph name="K" xMin="36" yMin="0" xMax="600" yMax="613">
      <contour>
        <pt x="430" y="0" on="1"/>
        <pt x="239" y="273" on="1"/>
        <pt x="239" y="63" on="1"/>
        <pt x="313" y="42" on="1"/>
        <pt x="313" y="0" on="1"/>
        <pt x="36" y="0" on="1"/>
        <pt x="36" y="41" on="1"/>
        <pt x="122" y="63" on="1"/>
        <pt x="122" y="550" on="1"/>
        <pt x="36" y="572" on="1"/>
        <pt x="36" y="613" on="1"/>
        <pt x="313" y="613" on="1"/>
        <pt x="313" y="571" on="1"/>
        <pt x="239" y="550" on="1"/>
        <pt x="239" y="339" on="1"/>
        <pt x="433" y="555" on="1"/>
        <pt x="374" y="572" on="1"/>
        <pt x="374" y="613" on="1"/>
        <pt x="579" y="613" on="1"/>
        <pt x="579" y="573" on="1"/>
        <pt x="509" y="552" on="1"/>
        <pt x="326" y="341" on="1"/>
        <pt x="519" y="66" on="1"/>
        <pt x="600" y="41" on="1"/>
        <pt x="600" y="0" on="1"/>
      </contour>
    </TTGlyph>
    <TTGlyph name="Kcommaaccent" xMin="36" yMin="-231" xMax="600" yMax="613">
      <contour>
        <pt x="36" y="41" on="1"/>
        <pt x="122" y="63" on="1"/>
        <pt x="122" y="550" on="1"/>
        <pt x="36" y="572" on="1"/>
        <pt x="36" y="613" on="1"/>
        <pt x="313" y="613" on="1"/>
        <pt x="313" y="571" on="1"/>
        <pt x="239" y="550" on="1"/>
        <pt x="239" y="339" on="1"/>
        <pt x="433" y="555" on="1"/>
        <pt x="374" y="572" on="1"/>
        <pt x="374" y="613" on="1"/>
        <pt x="579" y="613" on="1"/>
        <pt x="579" y="573" on="1"/>
        <pt x="509" y="552" on="1"/>
        <pt x="326" y="341" on="1"/>
        <pt x="519" y="66" on="1"/>
        <pt x="600" y="41" on="1"/>
        <pt x="600" y="0" on="1"/>
        <pt x="430" y="0" on="1"/>
        <pt x="239" y="273" on="1"/>
        <pt x="239" y="63" on="1"/>
        <pt x="313" y="42" on="1"/>
        <pt x="313" y="0" on="1"/>
        <pt x="36" y="0" on="1"/>
      </contour>
      <contour>
        <pt x="283" y="-44" on="1"/>
        <pt x="366" y="-25" on="1"/>
        <pt x="387" y="-46" on="1"/>
        <pt x="313" y="-231" on="1"/>
        <pt x="272" y="-226" on="1"/>
      </contour>
    </TTGlyph>
    <TTGlyph name="L" xMin="36" yMin="0" xMax="479" yMax="613">
      <contour>
        <pt x="36" y="0" on="1"/>
        <pt x="36" y="41" on="1"/>
        <pt x="122" y="63" on="1"/>
        <pt x="122" y="550" on="1"/>
        <pt x="36" y="572" on="1"/>
        <pt x="36" y="613" on="1"/>
        <pt x="326" y="613" on="1"/>
        <pt x="326" y="572" on="1"/>
        <pt x="239" y="550" on="1"/>
        <pt x="239" y="65" on="1"/>
        <pt x="404" y="65" on="1"/>
        <pt x="429" y="157" on="1"/>
        <pt x="479" y="157" on="1"/>
        <pt x="479" y="0" on="1"/>
      </contour>
    </TTGlyph>
    <TTGlyph name="Lacute" xMin="36" yMin="0" xMax="479" yMax="800">
      <contour>
        <pt x="84" y="669" on="1"/>
        <pt x="239" y="800" on="1"/>
        <pt x="330" y="768" on="1"/>
        <pt x="330" y="746" on="1"/>
        <pt x="107" y="640" on="1"/>
      </contour>
      <contour>
        <pt x="36" y="0" on="1"/>
        <pt x="36" y="41" on="1"/>
        <pt x="122" y="63" on="1"/>
        <pt x="122" y="550" on="1"/>
        <pt x="36" y="572" on="1"/>
        <pt x="36" y="613" on="1"/>
        <pt x="326" y="613" on="1"/>
        <pt x="326" y="572" on="1"/>
        <pt x="239" y="550" on="1"/>
        <pt x="239" y="65" on="1"/>
        <pt x="404" y="65" on="1"/>
        <pt x="429" y="157" on="1"/>
        <pt x="479" y="157" on="1"/>
        <pt x="479" y="0" on="1"/>
      </contour>
    </TTGlyph>
    <TTGlyph name="Lcaron" xMin="36" yMin="0" xMax="479" yMax="800">
      <contour>
        <pt x="37" y="777" on="1"/>
        <pt x="60" y="800" on="1"/>
        <pt x="183" y="721" on="1"/>
        <pt x="305" y="800" on="1"/>
        <pt x="327" y="777" on="1"/>
        <pt x="221" y="644" on="1"/>
        <pt x="144" y="644" on="1"/>
      </contour>
      <contour>
        <pt x="36" y="41" on="1"/>
        <pt x="122" y="63" on="1"/>
        <pt x="122" y="550" on="1"/>
        <pt x="36" y="572" on="1"/>
        <pt x="36" y="613" on="1"/>
        <pt x="326" y="613" on="1"/>
        <pt x="326" y="572" on="1"/>
        <pt x="239" y="550" on="1"/>
        <pt x="239" y="65" on="1"/>
        <pt x="404" y="65" on="1"/>
        <pt x="429" y="157" on="1"/>
        <pt x="479" y="157" on="1"/>
        <pt x="479" y="0" on="1"/>
        <pt x="36" y="0" on="1"/>
      </contour>
    </TTGlyph>
    <TTGlyph name="Lcommaaccent" xMin="36" yMin="-231" xMax="479" yMax="613">
      <contour>
        <pt x="36" y="41" on="1"/>
        <pt x="122" y="63" on="1"/>
        <pt x="122" y="550" on="1"/>
        <pt x="36" y="572" on="1"/>
        <pt x="36" y="613" on="1"/>
        <pt x="326" y="613" on="1"/>
        <pt x="326" y="572" on="1"/>
        <pt x="239" y="550" on="1"/>
        <pt x="239" y="65" on="1"/>
        <pt x="404" y="65" on="1"/>
        <pt x="429" y="157" on="1"/>
        <pt x="479" y="157" on="1"/>
        <pt x="479" y="0" on="1"/>
        <pt x="36" y="0" on="1"/>
      </contour>
      <contour>
        <pt x="232" y="-44" on="1"/>
        <pt x="316" y="-25" on="1"/>
        <pt x="336" y="-46" on="1"/>
        <pt x="262" y="-231" on="1"/>
        <pt x="221" y="-226" on="1"/>
      </contour>
    </TTGlyph>
    <TTGlyph name="Ldot" xMin="36" yMin="0" xMax="482" yMax="613">
      <component glyphName=".ttfautohint" x="36" y="0" flags="0x0"/>
      <component glyphName="L" x="0" y="0" flags="0x0"/>
      <component glyphName="periodcentered" x="286" y="171" flags="0x4"/>
    </TTGlyph>
    <TTGlyph name="Lslash" xMin="31" yMin="0" xMax="479" yMax="613">
      <contour>
        <pt x="36" y="41" on="1"/>
        <pt x="122" y="63" on="1"/>
        <pt x="122" y="239" on="1"/>
        <pt x="59" y="203" on="1"/>
        <pt x="31" y="252" on="1"/>
        <pt x="122" y="306" on="1"/>
        <pt x="122" y="550" on="1"/>
        <pt x="36" y="572" on="1"/>
        <pt x="36" y="613" on="1"/>
        <pt x="326" y="613" on="1"/>
        <pt x="326" y="572" on="1"/>
        <pt x="239" y="550" on="1"/>
        <pt x="239" y="375" on="1"/>
        <pt x="328" y="428" on="1"/>
        <pt x="358" y="378" on="1"/>
        <pt x="239" y="308" on="1"/>
        <pt x="239" y="65" on="1"/>
        <pt x="404" y="65" on="1"/>
        <pt x="429" y="157" on="1"/>
        <pt x="479" y="157" on="1"/>
        <pt x="479" y="0" on="1"/>
        <pt x="36" y="0" on="1"/>
      </contour>
    </TTGlyph>
    <TTGlyph name="M" xMin="20" yMin="-10" xMax="786" yMax="613">
      <contour>
        <pt x="20" y="0" on="1"/>
        <pt x="20" y="41" on="1"/>
        <pt x="103" y="63" on="1"/>
        <pt x="121" y="551" on="1"/>
        <pt x="38" y="572" on="1"/>
        <pt x="38" y="613" on="1"/>
        <pt x="238" y="613" on="1"/>
        <pt x="400" y="138" on="1"/>
        <pt x="558" y="613" on="1"/>
        <pt x="765" y="613" on="1"/>
        <pt x="765" y="572" on="1"/>
        <pt x="679" y="550" on="1"/>
        <pt x="699" y="63" on="1"/>
        <pt x="786" y="41" on="1"/>
        <pt x="786" y="0" on="1"/>
        <pt x="502" y="0" on="1"/>
        <pt x="502" y="41" on="1"/>
        <pt x="588" y="63" on="1"/>
        <pt x="573" y="460" on="1"/>
        <pt x="415" y="0" on="1"/>
        <pt x="349" y="-10" on="1"/>
        <pt x="181" y="459" on="1"/>
        <pt x="167" y="63" on="1"/>
        <pt x="253" y="41" on="1"/>
        <pt x="253" y="0" on="1"/>
      </contour>
    </TTGlyph>
    <TTGlyph name="N" xMin="35" yMin="-10" xMax="691" yMax="613">
      <contour>
        <pt x="691" y="613" on="1"/>
        <pt x="691" y="572" on="1"/>
        <pt x="607" y="551" on="1"/>
        <pt x="607" y="0" on="1"/>
        <pt x="513" y="-10" on="1"/>
        <pt x="184" y="467" on="1"/>
        <pt x="184" y="63" on="1"/>
        <pt x="269" y="41" on="1"/>
        <pt x="269" y="0" on="1"/>
        <pt x="36" y="0" on="1"/>
        <pt x="36" y="41" on="1"/>
        <pt x="119" y="63" on="1"/>
        <pt x="119" y="551" on="1"/>
        <pt x="35" y="572" on="1"/>
        <pt x="35" y="613" on="1"/>
        <pt x="221" y="613" on="1"/>
        <pt x="540" y="152" on="1"/>
        <pt x="540" y="551" on="1"/>
        <pt x="455" y="572" on="1"/>
        <pt x="455" y="613" on="1"/>
      </contour>
    </TTGlyph>
    <TTGlyph name="Nacute" xMin="35" yMin="-10" xMax="690" yMax="800">
      <contour>
        <pt x="264" y="669" on="1"/>
        <pt x="419" y="800" on="1"/>
        <pt x="510" y="768" on="1"/>
        <pt x="510" y="746" on="1"/>
        <pt x="287" y="640" on="1"/>
      </contour>
      <contour>
        <pt x="690" y="613" on="1"/>
        <pt x="690" y="572" on="1"/>
        <pt x="607" y="551" on="1"/>
        <pt x="607" y="0" on="1"/>
        <pt x="512" y="-10" on="1"/>
        <pt x="183" y="467" on="1"/>
        <pt x="183" y="63" on="1"/>
        <pt x="268" y="41" on="1"/>
        <pt x="268" y="0" on="1"/>
        <pt x="35" y="0" on="1"/>
        <pt x="35" y="41" on="1"/>
        <pt x="118" y="63" on="1"/>
        <pt x="118" y="551" on="1"/>
        <pt x="35" y="572" on="1"/>
        <pt x="35" y="613" on="1"/>
        <pt x="221" y="613" on="1"/>
        <pt x="539" y="152" on="1"/>
        <pt x="539" y="551" on="1"/>
        <pt x="454" y="572" on="1"/>
        <pt x="454" y="613" on="1"/>
      </contour>
    </TTGlyph>
    <TTGlyph name="Nacute.loclPLK" xMin="35" yMin="-10" xMax="691" yMax="809">
      <component glyphName=".ttfautohint" x="35" y="0" flags="0x0"/>
      <component glyphName="N" x="0" y="0" flags="0x0"/>
      <component glyphName="acute.loclPLK.case" x="257" y="0" flags="0x0"/>
    </TTGlyph>
    <TTGlyph name="Ncaron" xMin="35" yMin="-10" xMax="690" yMax="800">
      <contour>
        <pt x="219" y="777" on="1"/>
        <pt x="242" y="800" on="1"/>
        <pt x="364" y="721" on="1"/>
        <pt x="487" y="800" on="1"/>
        <pt x="508" y="777" on="1"/>
        <pt x="402" y="644" on="1"/>
        <pt x="326" y="644" on="1"/>
      </contour>
      <contour>
        <pt x="183" y="467" on="1"/>
        <pt x="183" y="63" on="1"/>
        <pt x="268" y="41" on="1"/>
        <pt x="268" y="0" on="1"/>
        <pt x="35" y="0" on="1"/>
        <pt x="35" y="41" on="1"/>
        <pt x="118" y="63" on="1"/>
        <pt x="118" y="551" on="1"/>
        <pt x="35" y="572" on="1"/>
        <pt x="35" y="613" on="1"/>
        <pt x="221" y="613" on="1"/>
        <pt x="539" y="152" on="1"/>
        <pt x="539" y="551" on="1"/>
        <pt x="454" y="572" on="1"/>
        <pt x="454" y="613" on="1"/>
        <pt x="690" y="613" on="1"/>
        <pt x="690" y="572" on="1"/>
        <pt x="607" y="551" on="1"/>
        <pt x="607" y="0" on="1"/>
        <pt x="512" y="-10" on="1"/>
      </contour>
    </TTGlyph>
    <TTGlyph name="Ncommaaccent" xMin="35" yMin="-231" xMax="690" yMax="613">
      <contour>
        <pt x="183" y="467" on="1"/>
        <pt x="183" y="63" on="1"/>
        <pt x="268" y="41" on="1"/>
        <pt x="268" y="0" on="1"/>
        <pt x="35" y="0" on="1"/>
        <pt x="35" y="41" on="1"/>
        <pt x="118" y="63" on="1"/>
        <pt x="118" y="551" on="1"/>
        <pt x="35" y="572" on="1"/>
        <pt x="35" y="613" on="1"/>
        <pt x="221" y="613" on="1"/>
        <pt x="539" y="152" on="1"/>
        <pt x="539" y="551" on="1"/>
        <pt x="454" y="572" on="1"/>
        <pt x="454" y="613" on="1"/>
        <pt x="690" y="613" on="1"/>
        <pt x="690" y="572" on="1"/>
        <pt x="607" y="551" on="1"/>
        <pt x="607" y="0" on="1"/>
        <pt x="512" y="-10" on="1"/>
      </contour>
      <contour>
        <pt x="322" y="-44" on="1"/>
        <pt x="405" y="-25" on="1"/>
        <pt x="427" y="-46" on="1"/>
        <pt x="352" y="-231" on="1"/>
        <pt x="312" y="-226" on="1"/>
      </contour>
    </TTGlyph>
    <TTGlyph name="Ntilde" xMin="35" yMin="-10" xMax="690" yMax="786">
      <contour>
        <pt x="511" y="716" on="0"/>
        <pt x="473" y="664" on="0"/>
        <pt x="450" y="664" on="1"/>
        <pt x="425" y="664" on="0"/>
        <pt x="361" y="684" on="1"/>
        <pt x="339" y="691" on="0"/>
        <pt x="297" y="702" on="0"/>
        <pt x="285" y="702" on="1"/>
        <pt x="275" y="702" on="0"/>
        <pt x="257" y="687" on="0"/>
        <pt x="245" y="672" on="0"/>
        <pt x="244" y="669" on="1"/>
        <pt x="203" y="686" on="1"/>
        <pt x="219" y="731" on="0"/>
        <pt x="261" y="786" on="0"/>
        <pt x="285" y="786" on="1"/>
        <pt x="310" y="786" on="0"/>
        <pt x="374" y="766" on="1"/>
        <pt x="395" y="759" on="0"/>
        <pt x="437" y="748" on="0"/>
        <pt x="449" y="748" on="1"/>
        <pt x="460" y="748" on="0"/>
        <pt x="479" y="763" on="0"/>
        <pt x="491" y="778" on="0"/>
        <pt x="492" y="781" on="1"/>
        <pt x="531" y="764" on="1"/>
      </contour>
      <contour>
        <pt x="690" y="613" on="1"/>
        <pt x="690" y="572" on="1"/>
        <pt x="607" y="551" on="1"/>
        <pt x="607" y="0" on="1"/>
        <pt x="512" y="-10" on="1"/>
        <pt x="183" y="467" on="1"/>
        <pt x="183" y="63" on="1"/>
        <pt x="268" y="41" on="1"/>
        <pt x="268" y="0" on="1"/>
        <pt x="35" y="0" on="1"/>
        <pt x="35" y="41" on="1"/>
        <pt x="118" y="63" on="1"/>
        <pt x="118" y="551" on="1"/>
        <pt x="35" y="572" on="1"/>
        <pt x="35" y="613" on="1"/>
        <pt x="221" y="613" on="1"/>
        <pt x="539" y="152" on="1"/>
        <pt x="539" y="551" on="1"/>
        <pt x="454" y="572" on="1"/>
        <pt x="454" y="613" on="1"/>
      </contour>
    </TTGlyph>
    <TTGlyph name="O" xMin="34" yMin="-9" xMax="627" yMax="627">
      <contour>
        <pt x="484" y="627" on="0"/>
        <pt x="627" y="451" on="0"/>
        <pt x="627" y="310" on="1"/>
        <pt x="627" y="168" on="0"/>
        <pt x="483" y="-9" on="0"/>
        <pt x="332" y="-9" on="1"/>
        <pt x="231" y="-9" on="0"/>
        <pt x="97" y="75" on="0"/>
        <pt x="34" y="219" on="0"/>
        <pt x="34" y="310" on="1"/>
        <pt x="34" y="450" on="0"/>
        <pt x="181" y="627" on="0"/>
        <pt x="332" y="627" on="1"/>
      </contour>
      <contour>
        <pt x="502" y="413" on="0"/>
        <pt x="426" y="565" on="0"/>
        <pt x="326" y="565" on="1"/>
        <pt x="231" y="565" on="0"/>
        <pt x="160" y="414" on="0"/>
        <pt x="160" y="310" on="1"/>
        <pt x="160" y="204" on="0"/>
        <pt x="236" y="54" on="0"/>
        <pt x="336" y="54" on="1"/>
        <pt x="432" y="54" on="0"/>
        <pt x="502" y="205" on="0"/>
        <pt x="502" y="310" on="1"/>
      </contour>
    </TTGlyph>
    <TTGlyph name="OE" xMin="34" yMin="0" xMax="790" yMax="613">
      <contour>
        <pt x="768" y="472" on="1"/>
        <pt x="719" y="472" on="1"/>
        <pt x="697" y="551" on="1"/>
        <pt x="526" y="551" on="1"/>
        <pt x="526" y="328" on="1"/>
        <pt x="640" y="328" on="1"/>
        <pt x="659" y="394" on="1"/>
        <pt x="706" y="394" on="1"/>
        <pt x="706" y="206" on="1"/>
        <pt x="659" y="206" on="1"/>
        <pt x="638" y="275" on="1"/>
        <pt x="526" y="275" on="1"/>
        <pt x="526" y="65" on="1"/>
        <pt x="714" y="65" on="1"/>
        <pt x="740" y="157" on="1"/>
        <pt x="790" y="157" on="1"/>
        <pt x="790" y="0" on="1"/>
        <pt x="325" y="0" on="1"/>
        <pt x="178" y="0" on="0"/>
        <pt x="34" y="170" on="0"/>
        <pt x="34" y="310" on="1"/>
        <pt x="34" y="448" on="0"/>
        <pt x="177" y="613" on="0"/>
        <pt x="325" y="613" on="1"/>
        <pt x="768" y="613" on="1"/>
      </contour>
      <contour>
        <pt x="366" y="562" on="0"/>
        <pt x="319" y="562" on="1"/>
        <pt x="227" y="562" on="0"/>
        <pt x="158" y="414" on="0"/>
        <pt x="158" y="310" on="1"/>
        <pt x="158" y="203" on="0"/>
        <pt x="233" y="51" on="0"/>
        <pt x="329" y="51" on="1"/>
        <pt x="372" y="51" on="0"/>
        <pt x="411" y="63" on="1"/>
        <pt x="411" y="550" on="1"/>
      </contour>
    </TTGlyph>
    <TTGlyph name="Oacute" xMin="34" yMin="-9" xMax="627" yMax="800">
      <component glyphName=".ttfautohint" x="34" y="0" flags="0x0"/>
      <component glyphName="O" x="0" y="0" flags="0x0"/>
      <component glyphName="acute.case" x="263" y="0" flags="0x0"/>
    </TTGlyph>
    <TTGlyph name="Oacute.loclPLK" xMin="34" yMin="-9" xMax="627" yMax="809">
      <component glyphName=".ttfautohint" x="34" y="0" flags="0x0"/>
      <component glyphName="O" x="0" y="0" flags="0x0"/>
      <component glyphName="acute.loclPLK.case" x="233" y="0" flags="0x0"/>
    </TTGlyph>
    <TTGlyph name="Obreve" xMin="34" yMin="-9" xMax="627" yMax="786">
      <component glyphName=".ttfautohint" x="34" y="0" flags="0x0"/>
      <component glyphName="O" x="0" y="0" flags="0x0"/>
      <component glyphName="uni0306" x="458" y="0" flags="0x0"/>
    </TTGlyph>
    <TTGlyph name="Ocircumflex" xMin="34" yMin="-9" xMax="627" yMax="800">
      <contour>
        <pt x="330" y="723" on="1"/>
        <pt x="209" y="644" on="1"/>
        <pt x="186" y="666" on="1"/>
        <pt x="292" y="800" on="1"/>
        <pt x="369" y="800" on="1"/>
        <pt x="475" y="666" on="1"/>
        <pt x="454" y="644" on="1"/>
      </contour>
      <contour>
        <pt x="484" y="627" on="0"/>
        <pt x="627" y="451" on="0"/>
        <pt x="627" y="310" on="1"/>
        <pt x="627" y="168" on="0"/>
        <pt x="483" y="-9" on="0"/>
        <pt x="332" y="-9" on="1"/>
        <pt x="231" y="-9" on="0"/>
        <pt x="97" y="75" on="0"/>
        <pt x="34" y="219" on="0"/>
        <pt x="34" y="310" on="1"/>
        <pt x="34" y="450" on="0"/>
        <pt x="181" y="627" on="0"/>
        <pt x="332" y="627" on="1"/>
      </contour>
      <contour>
        <pt x="502" y="413" on="0"/>
        <pt x="426" y="565" on="0"/>
        <pt x="326" y="565" on="1"/>
        <pt x="231" y="565" on="0"/>
        <pt x="160" y="414" on="0"/>
        <pt x="160" y="310" on="1"/>
        <pt x="160" y="204" on="0"/>
        <pt x="236" y="54" on="0"/>
        <pt x="336" y="54" on="1"/>
        <pt x="432" y="54" on="0"/>
        <pt x="502" y="205" on="0"/>
        <pt x="502" y="310" on="1"/>
      </contour>
    </TTGlyph>
    <TTGlyph name="Odieresis" xMin="34" yMin="-9" xMax="627" yMax="788">
      <contour>
        <pt x="291" y="693" on="0"/>
        <pt x="250" y="654" on="0"/>
        <pt x="223" y="654" on="1"/>
        <pt x="195" y="654" on="0"/>
        <pt x="152" y="693" on="0"/>
        <pt x="152" y="720" on="1"/>
        <pt x="152" y="748" on="0"/>
        <pt x="195" y="788" on="0"/>
        <pt x="223" y="788" on="1"/>
        <pt x="250" y="788" on="0"/>
        <pt x="291" y="748" on="0"/>
        <pt x="291" y="720" on="1"/>
      </contour>
      <contour>
        <pt x="510" y="693" on="0"/>
        <pt x="469" y="654" on="0"/>
        <pt x="442" y="654" on="1"/>
        <pt x="413" y="654" on="0"/>
        <pt x="372" y="692" on="0"/>
        <pt x="372" y="720" on="1"/>
        <pt x="372" y="748" on="0"/>
        <pt x="413" y="788" on="0"/>
        <pt x="442" y="788" on="1"/>
        <pt x="469" y="788" on="0"/>
        <pt x="510" y="748" on="0"/>
        <pt x="510" y="720" on="1"/>
      </contour>
      <contour>
        <pt x="484" y="627" on="0"/>
        <pt x="627" y="451" on="0"/>
        <pt x="627" y="310" on="1"/>
        <pt x="627" y="168" on="0"/>
        <pt x="483" y="-9" on="0"/>
        <pt x="332" y="-9" on="1"/>
        <pt x="231" y="-9" on="0"/>
        <pt x="97" y="75" on="0"/>
        <pt x="34" y="219" on="0"/>
        <pt x="34" y="310" on="1"/>
        <pt x="34" y="450" on="0"/>
        <pt x="181" y="627" on="0"/>
        <pt x="332" y="627" on="1"/>
      </contour>
      <contour>
        <pt x="502" y="413" on="0"/>
        <pt x="426" y="565" on="0"/>
        <pt x="326" y="565" on="1"/>
        <pt x="231" y="565" on="0"/>
        <pt x="160" y="414" on="0"/>
        <pt x="160" y="310" on="1"/>
        <pt x="160" y="204" on="0"/>
        <pt x="236" y="54" on="0"/>
        <pt x="336" y="54" on="1"/>
        <pt x="432" y="54" on="0"/>
        <pt x="502" y="205" on="0"/>
        <pt x="502" y="310" on="1"/>
      </contour>
    </TTGlyph>
    <TTGlyph name="Ograve" xMin="34" yMin="-9" xMax="627" yMax="800">
      <contour>
        <pt x="192" y="746" on="1"/>
        <pt x="194" y="768" on="1"/>
        <pt x="284" y="800" on="1"/>
        <pt x="438" y="669" on="1"/>
        <pt x="418" y="640" on="1"/>
      </contour>
      <contour>
        <pt x="484" y="627" on="0"/>
        <pt x="627" y="451" on="0"/>
        <pt x="627" y="310" on="1"/>
        <pt x="627" y="168" on="0"/>
        <pt x="483" y="-9" on="0"/>
        <pt x="332" y="-9" on="1"/>
        <pt x="231" y="-9" on="0"/>
        <pt x="97" y="75" on="0"/>
        <pt x="34" y="219" on="0"/>
        <pt x="34" y="310" on="1"/>
        <pt x="34" y="450" on="0"/>
        <pt x="181" y="627" on="0"/>
        <pt x="332" y="627" on="1"/>
      </contour>
      <contour>
        <pt x="502" y="413" on="0"/>
        <pt x="426" y="565" on="0"/>
        <pt x="326" y="565" on="1"/>
        <pt x="231" y="565" on="0"/>
        <pt x="160" y="414" on="0"/>
        <pt x="160" y="310" on="1"/>
        <pt x="160" y="204" on="0"/>
        <pt x="236" y="54" on="0"/>
        <pt x="336" y="54" on="1"/>
        <pt x="432" y="54" on="0"/>
        <pt x="502" y="205" on="0"/>
        <pt x="502" y="310" on="1"/>
      </contour>
    </TTGlyph>
    <TTGlyph name="Ohorn" xMin="34" yMin="-9" xMax="677" yMax="705">
      <contour>
        <pt x="677" y="607" on="0"/>
        <pt x="607" y="551" on="0"/>
        <pt x="554" y="541" on="1"/>
        <pt x="627" y="457" on="0"/>
        <pt x="627" y="310" on="1"/>
        <pt x="627" y="168" on="0"/>
        <pt x="483" y="-9" on="0"/>
        <pt x="332" y="-9" on="1"/>
        <pt x="231" y="-9" on="0"/>
        <pt x="97" y="75" on="0"/>
        <pt x="34" y="219" on="0"/>
        <pt x="34" y="310" on="1"/>
        <pt x="34" y="450" on="0"/>
        <pt x="181" y="627" on="0"/>
        <pt x="332" y="627" on="1"/>
        <pt x="433" y="627" on="0"/>
        <pt x="503" y="584" on="1"/>
        <pt x="525" y="584" on="1"/>
        <pt x="554" y="584" on="0"/>
        <pt x="585" y="606" on="0"/>
        <pt x="585" y="637" on="1"/>
        <pt x="585" y="656" on="0"/>
        <pt x="580" y="678" on="1"/>
        <pt x="586" y="691" on="1"/>
        <pt x="664" y="705" on="1"/>
        <pt x="670" y="692" on="0"/>
        <pt x="677" y="660" on="0"/>
        <pt x="677" y="648" on="1"/>
      </contour>
      <contour>
        <pt x="432" y="54" on="0"/>
        <pt x="502" y="205" on="0"/>
        <pt x="502" y="310" on="1"/>
        <pt x="502" y="413" on="0"/>
        <pt x="426" y="565" on="0"/>
        <pt x="326" y="565" on="1"/>
        <pt x="231" y="565" on="0"/>
        <pt x="160" y="414" on="0"/>
        <pt x="160" y="310" on="1"/>
        <pt x="160" y="204" on="0"/>
        <pt x="236" y="54" on="0"/>
        <pt x="336" y="54" on="1"/>
      </contour>
    </TTGlyph>
    <TTGlyph name="Ohungarumlaut" xMin="34" yMin="-9" xMax="627" yMax="809">
      <contour>
        <pt x="196" y="659" on="1"/>
        <pt x="283" y="809" on="1"/>
        <pt x="369" y="809" on="1"/>
        <pt x="369" y="789" on="1"/>
        <pt x="225" y="638" on="1"/>
      </contour>
      <contour>
        <pt x="357" y="659" on="1"/>
        <pt x="444" y="809" on="1"/>
        <pt x="530" y="809" on="1"/>
        <pt x="530" y="789" on="1"/>
        <pt x="386" y="638" on="1"/>
      </contour>
      <contour>
        <pt x="231" y="-9" on="0"/>
        <pt x="97" y="75" on="0"/>
        <pt x="34" y="219" on="0"/>
        <pt x="34" y="310" on="1"/>
        <pt x="34" y="450" on="0"/>
        <pt x="181" y="627" on="0"/>
        <pt x="332" y="627" on="1"/>
        <pt x="484" y="627" on="0"/>
        <pt x="627" y="451" on="0"/>
        <pt x="627" y="310" on="1"/>
        <pt x="627" y="168" on="0"/>
        <pt x="483" y="-9" on="0"/>
        <pt x="332" y="-9" on="1"/>
      </contour>
      <contour>
        <pt x="432" y="54" on="0"/>
        <pt x="502" y="205" on="0"/>
        <pt x="502" y="310" on="1"/>
        <pt x="502" y="413" on="0"/>
        <pt x="426" y="565" on="0"/>
        <pt x="326" y="565" on="1"/>
        <pt x="231" y="565" on="0"/>
        <pt x="160" y="414" on="0"/>
        <pt x="160" y="310" on="1"/>
        <pt x="160" y="204" on="0"/>
        <pt x="236" y="54" on="0"/>
        <pt x="336" y="54" on="1"/>
      </contour>
    </TTGlyph>
    <TTGlyph name="Omacron" xMin="34" yMin="-9" xMax="627" yMax="755">
      <contour>
        <pt x="447" y="755" on="1"/>
        <pt x="447" y="685" on="1"/>
        <pt x="214" y="685" on="1"/>
        <pt x="214" y="755" on="1"/>
      </contour>
      <contour>
        <pt x="484" y="627" on="0"/>
        <pt x="627" y="451" on="0"/>
        <pt x="627" y="310" on="1"/>
        <pt x="627" y="168" on="0"/>
        <pt x="483" y="-9" on="0"/>
        <pt x="332" y="-9" on="1"/>
        <pt x="231" y="-9" on="0"/>
        <pt x="97" y="75" on="0"/>
        <pt x="34" y="219" on="0"/>
        <pt x="34" y="310" on="1"/>
        <pt x="34" y="450" on="0"/>
        <pt x="181" y="627" on="0"/>
        <pt x="332" y="627" on="1"/>
      </contour>
      <contour>
        <pt x="502" y="413" on="0"/>
        <pt x="426" y="565" on="0"/>
        <pt x="326" y="565" on="1"/>
        <pt x="231" y="565" on="0"/>
        <pt x="160" y="414" on="0"/>
        <pt x="160" y="310" on="1"/>
        <pt x="160" y="204" on="0"/>
        <pt x="236" y="54" on="0"/>
        <pt x="336" y="54" on="1"/>
        <pt x="432" y="54" on="0"/>
        <pt x="502" y="205" on="0"/>
        <pt x="502" y="310" on="1"/>
      </contour>
    </TTGlyph>
    <TTGlyph name="Oslash" xMin="34" yMin="-95" xMax="627" yMax="708">
      <contour>
        <pt x="183" y="23" on="1"/>
        <pt x="108" y="60" on="0"/>
        <pt x="34" y="211" on="0"/>
        <pt x="34" y="310" on="1"/>
        <pt x="34" y="450" on="0"/>
        <pt x="181" y="627" on="0"/>
        <pt x="332" y="627" on="1"/>
        <pt x="367" y="627" on="0"/>
        <pt x="402" y="622" on="1"/>
        <pt x="434" y="708" on="1"/>
        <pt x="510" y="708" on="1"/>
        <pt x="471" y="601" on="1"/>
        <pt x="551" y="566" on="0"/>
        <pt x="627" y="412" on="0"/>
        <pt x="627" y="310" on="1"/>
        <pt x="627" y="168" on="0"/>
        <pt x="483" y="-9" on="0"/>
        <pt x="332" y="-9" on="1"/>
        <pt x="291" y="-9" on="0"/>
        <pt x="249" y="-1" on="1"/>
        <pt x="215" y="-95" on="1"/>
        <pt x="141" y="-95" on="1"/>
      </contour>
      <contour>
        <pt x="380" y="562" on="1"/>
        <pt x="354" y="570" on="0"/>
        <pt x="326" y="570" on="1"/>
        <pt x="230" y="570" on="0"/>
        <pt x="160" y="416" on="0"/>
        <pt x="160" y="310" on="1"/>
        <pt x="160" y="171" on="0"/>
        <pt x="215" y="106" on="1"/>
      </contour>
      <contour>
        <pt x="432" y="49" on="0"/>
        <pt x="502" y="202" on="0"/>
        <pt x="502" y="310" on="1"/>
        <pt x="502" y="372" on="0"/>
        <pt x="474" y="483" on="0"/>
        <pt x="440" y="519" on="1"/>
        <pt x="272" y="60" on="1"/>
        <pt x="297" y="49" on="0"/>
        <pt x="336" y="49" on="1"/>
      </contour>
    </TTGlyph>
    <TTGlyph name="Oslashacute" xMin="34" yMin="-95" xMax="627" yMax="800">
      <component glyphName=".ttfautohint" x="34" y="0" flags="0x0"/>
      <component glyphName="Oslash" x="0" y="0" flags="0x0"/>
      <component glyphName="acutecomb" x="455" y="0" flags="0x0"/>
    </TTGlyph>
    <TTGlyph name="Otilde" xMin="34" yMin="-9" xMax="627" yMax="786">
      <contour>
        <pt x="475" y="716" on="0"/>
        <pt x="437" y="664" on="0"/>
        <pt x="413" y="664" on="1"/>
        <pt x="390" y="664" on="0"/>
        <pt x="324" y="684" on="1"/>
        <pt x="266" y="702" on="0"/>
        <pt x="249" y="702" on="1"/>
        <pt x="239" y="702" on="0"/>
        <pt x="220" y="687" on="0"/>
        <pt x="208" y="672" on="0"/>
        <pt x="207" y="669" on="1"/>
        <pt x="166" y="686" on="1"/>
        <pt x="183" y="731" on="0"/>
        <pt x="226" y="786" on="0"/>
        <pt x="249" y="786" on="1"/>
        <pt x="273" y="786" on="0"/>
        <pt x="337" y="766" on="1"/>
        <pt x="395" y="748" on="0"/>
        <pt x="413" y="748" on="1"/>
        <pt x="424" y="748" on="0"/>
        <pt x="442" y="763" on="0"/>
        <pt x="454" y="778" on="0"/>
        <pt x="455" y="781" on="1"/>
        <pt x="495" y="764" on="1"/>
      </contour>
      <contour>
        <pt x="484" y="627" on="0"/>
        <pt x="627" y="451" on="0"/>
        <pt x="627" y="310" on="1"/>
        <pt x="627" y="168" on="0"/>
        <pt x="483" y="-9" on="0"/>
        <pt x="332" y="-9" on="1"/>
        <pt x="231" y="-9" on="0"/>
        <pt x="97" y="75" on="0"/>
        <pt x="34" y="219" on="0"/>
        <pt x="34" y="310" on="1"/>
        <pt x="34" y="450" on="0"/>
        <pt x="181" y="627" on="0"/>
        <pt x="332" y="627" on="1"/>
      </contour>
      <contour>
        <pt x="502" y="413" on="0"/>
        <pt x="426" y="565" on="0"/>
        <pt x="326" y="565" on="1"/>
        <pt x="231" y="565" on="0"/>
        <pt x="160" y="414" on="0"/>
        <pt x="160" y="310" on="1"/>
        <pt x="160" y="204" on="0"/>
        <pt x="236" y="54" on="0"/>
        <pt x="336" y="54" on="1"/>
        <pt x="432" y="54" on="0"/>
        <pt x="502" y="205" on="0"/>
        <pt x="502" y="310" on="1"/>
      </contour>
    </TTGlyph>
    <TTGlyph name="P" xMin="36" yMin="0" xMax="524" yMax="613">
      <contour>
        <pt x="398" y="613" on="0"/>
        <pt x="524" y="522" on="0"/>
        <pt x="524" y="438" on="1"/>
        <pt x="524" y="374" on="0"/>
        <pt x="462" y="287" on="0"/>
        <pt x="361" y="245" on="0"/>
        <pt x="304" y="245" on="1"/>
        <pt x="292" y="245" on="0"/>
        <pt x="251" y="248" on="0"/>
        <pt x="240" y="251" on="1"/>
        <pt x="240" y="63" on="1"/>
        <pt x="346" y="42" on="1"/>
        <pt x="346" y="0" on="1"/>
        <pt x="37" y="0" on="1"/>
        <pt x="37" y="41" on="1"/>
        <pt x="123" y="63" on="1"/>
        <pt x="123" y="549" on="1"/>
        <pt x="36" y="571" on="1"/>
        <pt x="36" y="613" on="1"/>
        <pt x="303" y="613" on="1"/>
      </contour>
      <contour>
        <pt x="256" y="292" on="0"/>
        <pt x="281" y="292" on="1"/>
        <pt x="337" y="292" on="0"/>
        <pt x="403" y="366" on="0"/>
        <pt x="403" y="431" on="1"/>
        <pt x="403" y="490" on="0"/>
        <pt x="346" y="557" on="0"/>
        <pt x="299" y="557" on="1"/>
        <pt x="267" y="557" on="0"/>
        <pt x="240" y="551" on="1"/>
        <pt x="240" y="296" on="1"/>
      </contour>
    </TTGlyph>
    <TTGlyph name="Q" xMin="34" yMin="-155" xMax="681" yMax="627">
      <contour>
        <pt x="661" y="-135" on="0"/>
        <pt x="594" y="-155" on="0"/>
        <pt x="568" y="-155" on="1"/>
        <pt x="539" y="-155" on="0"/>
        <pt x="475" y="-133" on="0"/>
        <pt x="423" y="-101" on="1"/>
        <pt x="259" y="0" on="1"/>
        <pt x="149" y="23" on="0"/>
        <pt x="34" y="192" on="0"/>
        <pt x="34" y="310" on="1"/>
        <pt x="34" y="450" on="0"/>
        <pt x="180" y="627" on="0"/>
        <pt x="331" y="627" on="1"/>
        <pt x="483" y="627" on="0"/>
        <pt x="627" y="451" on="0"/>
        <pt x="627" y="310" on="1"/>
        <pt x="627" y="186" on="0"/>
        <pt x="508" y="15" on="0"/>
        <pt x="389" y="-4" on="1"/>
        <pt x="479" y="-46" on="0"/>
        <pt x="585" y="-90" on="0"/>
        <pt x="604" y="-90" on="1"/>
        <pt x="677" y="-90" on="1"/>
        <pt x="681" y="-123" on="1"/>
      </contour>
      <contour>
        <pt x="159" y="208" on="0"/>
        <pt x="236" y="55" on="0"/>
        <pt x="335" y="55" on="1"/>
        <pt x="431" y="55" on="0"/>
        <pt x="502" y="206" on="0"/>
        <pt x="502" y="310" on="1"/>
        <pt x="502" y="412" on="0"/>
        <pt x="425" y="565" on="0"/>
        <pt x="325" y="565" on="1"/>
        <pt x="230" y="565" on="0"/>
        <pt x="159" y="413" on="0"/>
        <pt x="159" y="310" on="1"/>
      </contour>
    </TTGlyph>
    <TTGlyph name="R" xMin="37" yMin="0" xMax="597" yMax="613">
      <contour>
        <pt x="367" y="147" on="0"/>
        <pt x="323" y="244" on="0"/>
        <pt x="295" y="272" on="0"/>
        <pt x="271" y="272" on="1"/>
        <pt x="242" y="272" on="1"/>
        <pt x="242" y="63" on="1"/>
        <pt x="322" y="41" on="1"/>
        <pt x="322" y="0" on="1"/>
        <pt x="37" y="0" on="1"/>
        <pt x="37" y="41" on="1"/>
        <pt x="125" y="63" on="1"/>
        <pt x="125" y="550" on="1"/>
        <pt x="37" y="572" on="1"/>
        <pt x="37" y="613" on="1"/>
        <pt x="306" y="613" on="1"/>
        <pt x="418" y="613" on="0"/>
        <pt x="526" y="530" on="0"/>
        <pt x="526" y="462" on="1"/>
        <pt x="526" y="400" on="0"/>
        <pt x="453" y="313" on="0"/>
        <pt x="383" y="294" on="1"/>
        <pt x="408" y="286" on="0"/>
        <pt x="436" y="261" on="0"/>
        <pt x="460" y="216" on="0"/>
        <pt x="485" y="159" on="1"/>
        <pt x="529" y="63" on="1"/>
        <pt x="597" y="41" on="1"/>
        <pt x="597" y="0" on="1"/>
        <pt x="426" y="0" on="1"/>
      </contour>
      <contour>
        <pt x="345" y="322" on="0"/>
        <pt x="406" y="391" on="0"/>
        <pt x="406" y="449" on="1"/>
        <pt x="406" y="502" on="0"/>
        <pt x="347" y="559" on="0"/>
        <pt x="295" y="559" on="1"/>
        <pt x="270" y="559" on="0"/>
        <pt x="242" y="551" on="1"/>
        <pt x="242" y="322" on="1"/>
        <pt x="289" y="322" on="1"/>
      </contour>
    </TTGlyph>
    <TTGlyph name="Racute" xMin="37" yMin="0" xMax="597" yMax="800">
      <contour>
        <pt x="185" y="669" on="1"/>
        <pt x="341" y="800" on="1"/>
        <pt x="432" y="768" on="1"/>
        <pt x="432" y="746" on="1"/>
        <pt x="209" y="640" on="1"/>
      </contour>
      <contour>
        <pt x="367" y="147" on="0"/>
        <pt x="323" y="244" on="0"/>
        <pt x="295" y="272" on="0"/>
        <pt x="271" y="272" on="1"/>
        <pt x="242" y="272" on="1"/>
        <pt x="242" y="63" on="1"/>
        <pt x="322" y="41" on="1"/>
        <pt x="322" y="0" on="1"/>
        <pt x="37" y="0" on="1"/>
        <pt x="37" y="41" on="1"/>
        <pt x="125" y="63" on="1"/>
        <pt x="125" y="550" on="1"/>
        <pt x="37" y="572" on="1"/>
        <pt x="37" y="613" on="1"/>
        <pt x="306" y="613" on="1"/>
        <pt x="418" y="613" on="0"/>
        <pt x="526" y="530" on="0"/>
        <pt x="526" y="462" on="1"/>
        <pt x="526" y="400" on="0"/>
        <pt x="453" y="313" on="0"/>
        <pt x="383" y="294" on="1"/>
        <pt x="408" y="286" on="0"/>
        <pt x="436" y="261" on="0"/>
        <pt x="460" y="216" on="0"/>
        <pt x="485" y="159" on="1"/>
        <pt x="529" y="63" on="1"/>
        <pt x="597" y="41" on="1"/>
        <pt x="597" y="0" on="1"/>
        <pt x="426" y="0" on="1"/>
      </contour>
      <contour>
        <pt x="345" y="322" on="0"/>
        <pt x="406" y="391" on="0"/>
        <pt x="406" y="449" on="1"/>
        <pt x="406" y="502" on="0"/>
        <pt x="347" y="559" on="0"/>
        <pt x="295" y="559" on="1"/>
        <pt x="270" y="559" on="0"/>
        <pt x="242" y="551" on="1"/>
        <pt x="242" y="322" on="1"/>
        <pt x="289" y="322" on="1"/>
      </contour>
    </TTGlyph>
    <TTGlyph name="Rcaron" xMin="37" yMin="0" xMax="597" yMax="800">
      <contour>
        <pt x="149" y="777" on="1"/>
        <pt x="172" y="800" on="1"/>
        <pt x="294" y="721" on="1"/>
        <pt x="417" y="800" on="1"/>
        <pt x="438" y="777" on="1"/>
        <pt x="332" y="644" on="1"/>
        <pt x="256" y="644" on="1"/>
      </contour>
      <contour>
        <pt x="37" y="41" on="1"/>
        <pt x="125" y="63" on="1"/>
        <pt x="125" y="550" on="1"/>
        <pt x="37" y="572" on="1"/>
        <pt x="37" y="613" on="1"/>
        <pt x="306" y="613" on="1"/>
        <pt x="418" y="613" on="0"/>
        <pt x="526" y="530" on="0"/>
        <pt x="526" y="462" on="1"/>
        <pt x="526" y="400" on="0"/>
        <pt x="453" y="313" on="0"/>
        <pt x="383" y="294" on="1"/>
        <pt x="408" y="286" on="0"/>
        <pt x="436" y="261" on="0"/>
        <pt x="460" y="216" on="0"/>
        <pt x="485" y="159" on="1"/>
        <pt x="529" y="63" on="1"/>
        <pt x="597" y="41" on="1"/>
        <pt x="597" y="0" on="1"/>
        <pt x="426" y="0" on="1"/>
        <pt x="367" y="147" on="0"/>
        <pt x="323" y="244" on="0"/>
        <pt x="295" y="272" on="0"/>
        <pt x="271" y="272" on="1"/>
        <pt x="242" y="272" on="1"/>
        <pt x="242" y="63" on="1"/>
        <pt x="322" y="41" on="1"/>
        <pt x="322" y="0" on="1"/>
        <pt x="37" y="0" on="1"/>
      </contour>
      <contour>
        <pt x="289" y="322" on="1"/>
        <pt x="345" y="322" on="0"/>
        <pt x="406" y="391" on="0"/>
        <pt x="406" y="449" on="1"/>
        <pt x="406" y="502" on="0"/>
        <pt x="347" y="559" on="0"/>
        <pt x="295" y="559" on="1"/>
        <pt x="270" y="559" on="0"/>
        <pt x="242" y="551" on="1"/>
        <pt x="242" y="322" on="1"/>
      </contour>
    </TTGlyph>
    <TTGlyph name="Rcommaaccent" xMin="37" yMin="-231" xMax="597" yMax="613">
      <contour>
        <pt x="37" y="41" on="1"/>
        <pt x="125" y="63" on="1"/>
        <pt x="125" y="550" on="1"/>
        <pt x="37" y="572" on="1"/>
        <pt x="37" y="613" on="1"/>
        <pt x="306" y="613" on="1"/>
        <pt x="418" y="613" on="0"/>
        <pt x="526" y="530" on="0"/>
        <pt x="526" y="462" on="1"/>
        <pt x="526" y="400" on="0"/>
        <pt x="453" y="313" on="0"/>
        <pt x="383" y="294" on="1"/>
        <pt x="408" y="286" on="0"/>
        <pt x="436" y="261" on="0"/>
        <pt x="460" y="216" on="0"/>
        <pt x="485" y="159" on="1"/>
        <pt x="529" y="63" on="1"/>
        <pt x="597" y="41" on="1"/>
        <pt x="597" y="0" on="1"/>
        <pt x="426" y="0" on="1"/>
        <pt x="367" y="147" on="0"/>
        <pt x="323" y="244" on="0"/>
        <pt x="295" y="272" on="0"/>
        <pt x="271" y="272" on="1"/>
        <pt x="242" y="272" on="1"/>
        <pt x="242" y="63" on="1"/>
        <pt x="322" y="41" on="1"/>
        <pt x="322" y="0" on="1"/>
        <pt x="37" y="0" on="1"/>
      </contour>
      <contour>
        <pt x="289" y="322" on="1"/>
        <pt x="345" y="322" on="0"/>
        <pt x="406" y="391" on="0"/>
        <pt x="406" y="449" on="1"/>
        <pt x="406" y="502" on="0"/>
        <pt x="347" y="559" on="0"/>
        <pt x="295" y="559" on="1"/>
        <pt x="270" y="559" on="0"/>
        <pt x="242" y="551" on="1"/>
        <pt x="242" y="322" on="1"/>
      </contour>
      <contour>
        <pt x="286" y="-44" on="1"/>
        <pt x="369" y="-25" on="1"/>
        <pt x="390" y="-46" on="1"/>
        <pt x="316" y="-231" on="1"/>
        <pt x="275" y="-226" on="1"/>
      </contour>
    </TTGlyph>
    <TTGlyph name="S" xMin="31" yMin="-10" xMax="442" yMax="628">
      <contour>
        <pt x="42" y="534" on="0"/>
        <pt x="151" y="628" on="0"/>
        <pt x="251" y="628" on="1"/>
        <pt x="334" y="628" on="0"/>
        <pt x="421" y="601" on="1"/>
        <pt x="410" y="461" on="1"/>
        <pt x="363" y="461" on="1"/>
        <pt x="341" y="554" on="1"/>
        <pt x="328" y="558" on="0"/>
        <pt x="278" y="565" on="0"/>
        <pt x="260" y="565" on="1"/>
        <pt x="208" y="565" on="0"/>
        <pt x="144" y="522" on="0"/>
        <pt x="144" y="477" on="1"/>
        <pt x="144" y="440" on="0"/>
        <pt x="189" y="393" on="0"/>
        <pt x="233" y="374" on="1"/>
        <pt x="330" y="334" on="1"/>
        <pt x="389" y="311" on="0"/>
        <pt x="442" y="233" on="0"/>
        <pt x="442" y="173" on="1"/>
        <pt x="442" y="88" on="0"/>
        <pt x="324" y="-10" on="0"/>
        <pt x="212" y="-10" on="1"/>
        <pt x="168" y="-10" on="0"/>
        <pt x="70" y="6" on="0"/>
        <pt x="31" y="21" on="1"/>
        <pt x="46" y="156" on="1"/>
        <pt x="95" y="156" on="1"/>
        <pt x="113" y="69" on="1"/>
        <pt x="165" y="54" on="0"/>
        <pt x="213" y="54" on="1"/>
        <pt x="269" y="54" on="0"/>
        <pt x="334" y="100" on="0"/>
        <pt x="334" y="140" on="1"/>
        <pt x="334" y="177" on="0"/>
        <pt x="294" y="223" on="0"/>
        <pt x="247" y="243" on="1"/>
        <pt x="148" y="284" on="1"/>
        <pt x="102" y="303" on="0"/>
        <pt x="42" y="384" on="0"/>
        <pt x="42" y="449" on="1"/>
      </contour>
    </TTGlyph>
    <TTGlyph name="Sacute" xMin="33" yMin="-10" xMax="443" yMax="800">
      <contour>
        <pt x="136" y="669" on="1"/>
        <pt x="291" y="800" on="1"/>
        <pt x="382" y="768" on="1"/>
        <pt x="382" y="746" on="1"/>
        <pt x="159" y="640" on="1"/>
      </contour>
      <contour>
        <pt x="44" y="534" on="0"/>
        <pt x="153" y="628" on="0"/>
        <pt x="252" y="628" on="1"/>
        <pt x="336" y="628" on="0"/>
        <pt x="422" y="601" on="1"/>
        <pt x="412" y="461" on="1"/>
        <pt x="364" y="461" on="1"/>
        <pt x="342" y="554" on="1"/>
        <pt x="330" y="558" on="0"/>
        <pt x="279" y="565" on="0"/>
        <pt x="262" y="565" on="1"/>
        <pt x="209" y="565" on="0"/>
        <pt x="145" y="522" on="0"/>
        <pt x="145" y="477" on="1"/>
        <pt x="145" y="440" on="0"/>
        <pt x="190" y="393" on="0"/>
        <pt x="235" y="374" on="1"/>
        <pt x="332" y="334" on="1"/>
        <pt x="390" y="311" on="0"/>
        <pt x="443" y="233" on="0"/>
        <pt x="443" y="173" on="1"/>
        <pt x="443" y="88" on="0"/>
        <pt x="325" y="-10" on="0"/>
        <pt x="213" y="-10" on="1"/>
        <pt x="170" y="-10" on="0"/>
        <pt x="72" y="6" on="0"/>
        <pt x="33" y="21" on="1"/>
        <pt x="47" y="156" on="1"/>
        <pt x="97" y="156" on="1"/>
        <pt x="114" y="69" on="1"/>
        <pt x="169" y="54" on="0"/>
        <pt x="214" y="54" on="1"/>
        <pt x="270" y="54" on="0"/>
        <pt x="335" y="100" on="0"/>
        <pt x="335" y="140" on="1"/>
        <pt x="335" y="177" on="0"/>
        <pt x="295" y="223" on="0"/>
        <pt x="248" y="243" on="1"/>
        <pt x="150" y="284" on="1"/>
        <pt x="104" y="303" on="0"/>
        <pt x="44" y="384" on="0"/>
        <pt x="44" y="449" on="1"/>
      </contour>
    </TTGlyph>
    <TTGlyph name="Sacute.loclPLK" xMin="31" yMin="-10" xMax="442" yMax="809">
      <component glyphName=".ttfautohint" x="31" y="0" flags="0x0"/>
      <component glyphName="S" x="0" y="0" flags="0x0"/>
      <component glyphName="acute.loclPLK.case" x="140" y="0" flags="0x0"/>
    </TTGlyph>
    <TTGlyph name="Scaron" xMin="31" yMin="-10" xMax="442" yMax="800">
      <contour>
        <pt x="99" y="777" on="1"/>
        <pt x="122" y="800" on="1"/>
        <pt x="245" y="721" on="1"/>
        <pt x="368" y="800" on="1"/>
        <pt x="389" y="777" on="1"/>
        <pt x="283" y="644" on="1"/>
        <pt x="207" y="644" on="1"/>
      </contour>
      <contour>
        <pt x="168" y="-10" on="0"/>
        <pt x="70" y="6" on="0"/>
        <pt x="31" y="21" on="1"/>
        <pt x="46" y="156" on="1"/>
        <pt x="95" y="156" on="1"/>
        <pt x="113" y="69" on="1"/>
        <pt x="165" y="54" on="0"/>
        <pt x="213" y="54" on="1"/>
        <pt x="269" y="54" on="0"/>
        <pt x="334" y="100" on="0"/>
        <pt x="334" y="140" on="1"/>
        <pt x="334" y="177" on="0"/>
        <pt x="294" y="223" on="0"/>
        <pt x="247" y="243" on="1"/>
        <pt x="148" y="284" on="1"/>
        <pt x="102" y="303" on="0"/>
        <pt x="42" y="384" on="0"/>
        <pt x="42" y="449" on="1"/>
        <pt x="42" y="534" on="0"/>
        <pt x="151" y="628" on="0"/>
        <pt x="251" y="628" on="1"/>
        <pt x="334" y="628" on="0"/>
        <pt x="421" y="601" on="1"/>
        <pt x="410" y="461" on="1"/>
        <pt x="363" y="461" on="1"/>
        <pt x="341" y="554" on="1"/>
        <pt x="328" y="558" on="0"/>
        <pt x="278" y="565" on="0"/>
        <pt x="260" y="565" on="1"/>
        <pt x="208" y="565" on="0"/>
        <pt x="144" y="522" on="0"/>
        <pt x="144" y="477" on="1"/>
        <pt x="144" y="440" on="0"/>
        <pt x="189" y="393" on="0"/>
        <pt x="233" y="374" on="1"/>
        <pt x="330" y="334" on="1"/>
        <pt x="389" y="311" on="0"/>
        <pt x="442" y="233" on="0"/>
        <pt x="442" y="173" on="1"/>
        <pt x="442" y="88" on="0"/>
        <pt x="324" y="-10" on="0"/>
        <pt x="212" y="-10" on="1"/>
      </contour>
    </TTGlyph>
    <TTGlyph name="Scedilla" xMin="33" yMin="-220" xMax="443" yMax="628">
      <contour>
        <pt x="163" y="-220" on="0"/>
        <pt x="139" y="-210" on="1"/>
        <pt x="147" y="-175" on="1"/>
        <pt x="161" y="-182" on="0"/>
        <pt x="177" y="-182" on="1"/>
        <pt x="207" y="-182" on="0"/>
        <pt x="242" y="-150" on="0"/>
        <pt x="242" y="-129" on="1"/>
        <pt x="242" y="-111" on="0"/>
        <pt x="212" y="-87" on="0"/>
        <pt x="180" y="-86" on="1"/>
        <pt x="174" y="-71" on="1"/>
        <pt x="196" y="-9" on="1"/>
        <pt x="99" y="-5" on="0"/>
        <pt x="33" y="21" on="1"/>
        <pt x="47" y="156" on="1"/>
        <pt x="97" y="156" on="1"/>
        <pt x="114" y="69" on="1"/>
        <pt x="169" y="54" on="0"/>
        <pt x="214" y="54" on="1"/>
        <pt x="270" y="54" on="0"/>
        <pt x="335" y="100" on="0"/>
        <pt x="335" y="140" on="1"/>
        <pt x="335" y="177" on="0"/>
        <pt x="295" y="223" on="0"/>
        <pt x="248" y="243" on="1"/>
        <pt x="150" y="284" on="1"/>
        <pt x="104" y="303" on="0"/>
        <pt x="44" y="384" on="0"/>
        <pt x="44" y="449" on="1"/>
        <pt x="44" y="534" on="0"/>
        <pt x="153" y="628" on="0"/>
        <pt x="252" y="628" on="1"/>
        <pt x="336" y="628" on="0"/>
        <pt x="422" y="601" on="1"/>
        <pt x="412" y="461" on="1"/>
        <pt x="364" y="461" on="1"/>
        <pt x="342" y="554" on="1"/>
        <pt x="330" y="558" on="0"/>
        <pt x="279" y="565" on="0"/>
        <pt x="262" y="565" on="1"/>
        <pt x="209" y="565" on="0"/>
        <pt x="145" y="522" on="0"/>
        <pt x="145" y="477" on="1"/>
        <pt x="145" y="440" on="0"/>
        <pt x="190" y="393" on="0"/>
        <pt x="235" y="374" on="1"/>
        <pt x="332" y="334" on="1"/>
        <pt x="390" y="311" on="0"/>
        <pt x="443" y="233" on="0"/>
        <pt x="443" y="173" on="1"/>
        <pt x="443" y="93" on="0"/>
        <pt x="338" y="-4" on="0"/>
        <pt x="237" y="-9" on="1"/>
        <pt x="226" y="-46" on="1"/>
        <pt x="276" y="-46" on="0"/>
        <pt x="328" y="-86" on="0"/>
        <pt x="328" y="-117" on="1"/>
        <pt x="328" y="-145" on="0"/>
        <pt x="290" y="-192" on="0"/>
        <pt x="227" y="-220" on="0"/>
        <pt x="192" y="-220" on="1"/>
      </contour>
    </TTGlyph>
    <TTGlyph name="Scircumflex" xMin="31" yMin="-10" xMax="442" yMax="800">
      <component glyphName=".ttfautohint" x="31" y="0" flags="0x0"/>
      <component glyphName="S" x="0" y="0" flags="0x0"/>
      <component glyphName="uni0302" x="366" y="0" flags="0x0"/>
    </TTGlyph>
    <TTGlyph name="Scommaaccent" xMin="33" yMin="-231" xMax="443" yMax="628">
      <contour>
        <pt x="170" y="-10" on="0"/>
        <pt x="72" y="6" on="0"/>
        <pt x="33" y="21" on="1"/>
        <pt x="47" y="156" on="1"/>
        <pt x="97" y="156" on="1"/>
        <pt x="114" y="69" on="1"/>
        <pt x="169" y="54" on="0"/>
        <pt x="214" y="54" on="1"/>
        <pt x="270" y="54" on="0"/>
        <pt x="335" y="100" on="0"/>
        <pt x="335" y="140" on="1"/>
        <pt x="335" y="177" on="0"/>
        <pt x="295" y="223" on="0"/>
        <pt x="248" y="243" on="1"/>
        <pt x="150" y="284" on="1"/>
        <pt x="104" y="303" on="0"/>
        <pt x="44" y="384" on="0"/>
        <pt x="44" y="449" on="1"/>
        <pt x="44" y="534" on="0"/>
        <pt x="153" y="628" on="0"/>
        <pt x="252" y="628" on="1"/>
        <pt x="336" y="628" on="0"/>
        <pt x="422" y="601" on="1"/>
        <pt x="412" y="461" on="1"/>
        <pt x="364" y="461" on="1"/>
        <pt x="342" y="554" on="1"/>
        <pt x="330" y="558" on="0"/>
        <pt x="279" y="565" on="0"/>
        <pt x="262" y="565" on="1"/>
        <pt x="209" y="565" on="0"/>
        <pt x="145" y="522" on="0"/>
        <pt x="145" y="477" on="1"/>
        <pt x="145" y="440" on="0"/>
        <pt x="190" y="393" on="0"/>
        <pt x="235" y="374" on="1"/>
        <pt x="332" y="334" on="1"/>
        <pt x="390" y="311" on="0"/>
        <pt x="443" y="233" on="0"/>
        <pt x="443" y="173" on="1"/>
        <pt x="443" y="88" on="0"/>
        <pt x="325" y="-10" on="0"/>
        <pt x="213" y="-10" on="1"/>
      </contour>
      <contour>
        <pt x="191" y="-44" on="1"/>
        <pt x="275" y="-25" on="1"/>
        <pt x="295" y="-46" on="1"/>
        <pt x="221" y="-231" on="1"/>
        <pt x="180" y="-226" on="1"/>
      </contour>
    </TTGlyph>
    <TTGlyph name="T" xMin="8" yMin="0" xMax="522" yMax="613">
      <contour>
        <pt x="522" y="613" on="1"/>
        <pt x="516" y="461" on="1"/>
        <pt x="466" y="461" on="1"/>
        <pt x="446" y="551" on="1"/>
        <pt x="324" y="551" on="1"/>
        <pt x="324" y="63" on="1"/>
        <pt x="416" y="41" on="1"/>
        <pt x="416" y="0" on="1"/>
        <pt x="115" y="0" on="1"/>
        <pt x="115" y="41" on="1"/>
        <pt x="207" y="63" on="1"/>
        <pt x="207" y="551" on="1"/>
        <pt x="83" y="551" on="1"/>
        <pt x="64" y="461" on="1"/>
        <pt x="15" y="461" on="1"/>
        <pt x="8" y="613" on="1"/>
      </contour>
    </TTGlyph>
    <TTGlyph name="Tbar" xMin="8" yMin="0" xMax="522" yMax="613">
      <contour>
        <pt x="324" y="551" on="1"/>
        <pt x="324" y="339" on="1"/>
        <pt x="494" y="339" on="1"/>
        <pt x="494" y="287" on="1"/>
        <pt x="324" y="287" on="1"/>
        <pt x="324" y="63" on="1"/>
        <pt x="416" y="41" on="1"/>
        <pt x="416" y="0" on="1"/>
        <pt x="115" y="0" on="1"/>
        <pt x="115" y="41" on="1"/>
        <pt x="207" y="63" on="1"/>
        <pt x="207" y="287" on="1"/>
        <pt x="40" y="287" on="1"/>
        <pt x="40" y="339" on="1"/>
        <pt x="207" y="339" on="1"/>
        <pt x="207" y="551" on="1"/>
        <pt x="83" y="551" on="1"/>
        <pt x="64" y="461" on="1"/>
        <pt x="15" y="461" on="1"/>
        <pt x="8" y="613" on="1"/>
        <pt x="522" y="613" on="1"/>
        <pt x="516" y="461" on="1"/>
        <pt x="466" y="461" on="1"/>
        <pt x="446" y="551" on="1"/>
      </contour>
    </TTGlyph>
    <TTGlyph name="Tcaron" xMin="8" yMin="0" xMax="522" yMax="800">
      <contour>
        <pt x="120" y="777" on="1"/>
        <pt x="143" y="800" on="1"/>
        <pt x="266" y="721" on="1"/>
        <pt x="389" y="800" on="1"/>
        <pt x="410" y="777" on="1"/>
        <pt x="304" y="644" on="1"/>
        <pt x="228" y="644" on="1"/>
      </contour>
      <contour>
        <pt x="115" y="41" on="1"/>
        <pt x="207" y="63" on="1"/>
        <pt x="207" y="551" on="1"/>
        <pt x="83" y="551" on="1"/>
        <pt x="64" y="461" on="1"/>
        <pt x="15" y="461" on="1"/>
        <pt x="8" y="613" on="1"/>
        <pt x="522" y="613" on="1"/>
        <pt x="516" y="461" on="1"/>
        <pt x="466" y="461" on="1"/>
        <pt x="446" y="551" on="1"/>
        <pt x="324" y="551" on="1"/>
        <pt x="324" y="63" on="1"/>
        <pt x="416" y="41" on="1"/>
        <pt x="416" y="0" on="1"/>
        <pt x="115" y="0" on="1"/>
      </contour>
    </TTGlyph>
    <TTGlyph name="Thorn" xMin="36" yMin="0" xMax="504" yMax="613">
      <contour>
        <pt x="37" y="41" on="1"/>
        <pt x="123" y="63" on="1"/>
        <pt x="123" y="550" on="1"/>
        <pt x="36" y="572" on="1"/>
        <pt x="36" y="613" on="1"/>
        <pt x="327" y="613" on="1"/>
        <pt x="327" y="572" on="1"/>
        <pt x="240" y="550" on="1"/>
        <pt x="240" y="480" on="1"/>
        <pt x="287" y="480" on="1"/>
        <pt x="386" y="480" on="0"/>
        <pt x="504" y="395" on="0"/>
        <pt x="504" y="314" on="1"/>
        <pt x="504" y="253" on="0"/>
        <pt x="445" y="171" on="0"/>
        <pt x="351" y="131" on="0"/>
        <pt x="296" y="131" on="1"/>
        <pt x="257" y="131" on="0"/>
        <pt x="240" y="136" on="1"/>
        <pt x="240" y="63" on="1"/>
        <pt x="327" y="41" on="1"/>
        <pt x="327" y="0" on="1"/>
        <pt x="37" y="0" on="1"/>
      </contour>
      <contour>
        <pt x="328" y="177" on="0"/>
        <pt x="390" y="245" on="0"/>
        <pt x="390" y="307" on="1"/>
        <pt x="390" y="365" on="0"/>
        <pt x="331" y="425" on="0"/>
        <pt x="275" y="425" on="1"/>
        <pt x="258" y="425" on="0"/>
        <pt x="240" y="422" on="1"/>
        <pt x="240" y="181" on="1"/>
        <pt x="253" y="177" on="0"/>
        <pt x="274" y="177" on="1"/>
      </contour>
    </TTGlyph>
    <TTGlyph name="U" xMin="7" yMin="-9" xMax="650" yMax="613">
      <contour>
        <pt x="566" y="146" on="0"/>
        <pt x="467" y="-9" on="0"/>
        <pt x="334" y="-9" on="1"/>
        <pt x="237" y="-9" on="0"/>
        <pt x="131" y="63" on="0"/>
        <pt x="94" y="182" on="0"/>
        <pt x="94" y="265" on="1"/>
        <pt x="94" y="550" on="1"/>
        <pt x="7" y="572" on="1"/>
        <pt x="7" y="613" on="1"/>
        <pt x="298" y="613" on="1"/>
        <pt x="298" y="572" on="1"/>
        <pt x="211" y="550" on="1"/>
        <pt x="211" y="265" on="1"/>
        <pt x="211" y="198" on="0"/>
        <pt x="231" y="109" on="0"/>
        <pt x="291" y="55" on="0"/>
        <pt x="348" y="55" on="1"/>
        <pt x="425" y="55" on="0"/>
        <pt x="498" y="156" on="0"/>
        <pt x="498" y="242" on="1"/>
        <pt x="498" y="551" on="1"/>
        <pt x="412" y="572" on="1"/>
        <pt x="412" y="613" on="1"/>
        <pt x="650" y="613" on="1"/>
        <pt x="650" y="572" on="1"/>
        <pt x="566" y="551" on="1"/>
        <pt x="566" y="236" on="1"/>
      </contour>
    </TTGlyph>
    <TTGlyph name="Uacute" xMin="7" yMin="-9" xMax="650" yMax="800">
      <contour>
        <pt x="232" y="669" on="1"/>
        <pt x="387" y="800" on="1"/>
        <pt x="478" y="768" on="1"/>
        <pt x="478" y="746" on="1"/>
        <pt x="255" y="640" on="1"/>
      </contour>
      <contour>
        <pt x="566" y="146" on="0"/>
        <pt x="467" y="-9" on="0"/>
        <pt x="334" y="-9" on="1"/>
        <pt x="237" y="-9" on="0"/>
        <pt x="131" y="63" on="0"/>
        <pt x="94" y="182" on="0"/>
        <pt x="94" y="265" on="1"/>
        <pt x="94" y="550" on="1"/>
        <pt x="7" y="572" on="1"/>
        <pt x="7" y="613" on="1"/>
        <pt x="298" y="613" on="1"/>
        <pt x="298" y="572" on="1"/>
        <pt x="211" y="550" on="1"/>
        <pt x="211" y="265" on="1"/>
        <pt x="211" y="198" on="0"/>
        <pt x="231" y="109" on="0"/>
        <pt x="291" y="55" on="0"/>
        <pt x="348" y="55" on="1"/>
        <pt x="425" y="55" on="0"/>
        <pt x="498" y="156" on="0"/>
        <pt x="498" y="242" on="1"/>
        <pt x="498" y="551" on="1"/>
        <pt x="412" y="572" on="1"/>
        <pt x="412" y="613" on="1"/>
        <pt x="650" y="613" on="1"/>
        <pt x="650" y="572" on="1"/>
        <pt x="566" y="551" on="1"/>
        <pt x="566" y="236" on="1"/>
      </contour>
    </TTGlyph>
    <TTGlyph name="Ubreve" xMin="7" yMin="-9" xMax="650" yMax="786">
      <component glyphName=".ttfautohint" x="7" y="0" flags="0x0"/>
      <component glyphName="U" x="0" y="0" flags="0x0"/>
      <component glyphName="uni0306" x="456" y="0" flags="0x0"/>
    </TTGlyph>
    <TTGlyph name="Ucircumflex" xMin="7" yMin="-9" xMax="650" yMax="800">
      <contour>
        <pt x="347" y="723" on="1"/>
        <pt x="226" y="644" on="1"/>
        <pt x="203" y="666" on="1"/>
        <pt x="309" y="800" on="1"/>
        <pt x="386" y="800" on="1"/>
        <pt x="492" y="666" on="1"/>
        <pt x="471" y="644" on="1"/>
      </contour>
      <contour>
        <pt x="566" y="146" on="0"/>
        <pt x="467" y="-9" on="0"/>
        <pt x="334" y="-9" on="1"/>
        <pt x="237" y="-9" on="0"/>
        <pt x="131" y="63" on="0"/>
        <pt x="94" y="182" on="0"/>
        <pt x="94" y="265" on="1"/>
        <pt x="94" y="550" on="1"/>
        <pt x="7" y="572" on="1"/>
        <pt x="7" y="613" on="1"/>
        <pt x="298" y="613" on="1"/>
        <pt x="298" y="572" on="1"/>
        <pt x="211" y="550" on="1"/>
        <pt x="211" y="265" on="1"/>
        <pt x="211" y="198" on="0"/>
        <pt x="231" y="109" on="0"/>
        <pt x="291" y="55" on="0"/>
        <pt x="348" y="55" on="1"/>
        <pt x="425" y="55" on="0"/>
        <pt x="498" y="156" on="0"/>
        <pt x="498" y="242" on="1"/>
        <pt x="498" y="551" on="1"/>
        <pt x="412" y="572" on="1"/>
        <pt x="412" y="613" on="1"/>
        <pt x="650" y="613" on="1"/>
        <pt x="650" y="572" on="1"/>
        <pt x="566" y="551" on="1"/>
        <pt x="566" y="236" on="1"/>
      </contour>
    </TTGlyph>
    <TTGlyph name="Udieresis" xMin="7" yMin="-9" xMax="650" yMax="788">
      <contour>
        <pt x="310" y="692" on="0"/>
        <pt x="270" y="654" on="0"/>
        <pt x="242" y="654" on="1"/>
        <pt x="214" y="654" on="0"/>
        <pt x="171" y="692" on="0"/>
        <pt x="171" y="720" on="1"/>
        <pt x="171" y="748" on="0"/>
        <pt x="214" y="788" on="0"/>
        <pt x="242" y="788" on="1"/>
        <pt x="269" y="788" on="0"/>
        <pt x="310" y="748" on="0"/>
        <pt x="310" y="720" on="1"/>
      </contour>
      <contour>
        <pt x="528" y="692" on="0"/>
        <pt x="488" y="654" on="0"/>
        <pt x="461" y="654" on="1"/>
        <pt x="432" y="654" on="0"/>
        <pt x="391" y="692" on="0"/>
        <pt x="391" y="720" on="1"/>
        <pt x="391" y="748" on="0"/>
        <pt x="432" y="788" on="0"/>
        <pt x="461" y="788" on="1"/>
        <pt x="488" y="788" on="0"/>
        <pt x="528" y="748" on="0"/>
        <pt x="528" y="720" on="1"/>
      </contour>
      <contour>
        <pt x="566" y="146" on="0"/>
        <pt x="467" y="-9" on="0"/>
        <pt x="334" y="-9" on="1"/>
        <pt x="237" y="-9" on="0"/>
        <pt x="131" y="63" on="0"/>
        <pt x="94" y="182" on="0"/>
        <pt x="94" y="265" on="1"/>
        <pt x="94" y="550" on="1"/>
        <pt x="7" y="572" on="1"/>
        <pt x="7" y="613" on="1"/>
        <pt x="298" y="613" on="1"/>
        <pt x="298" y="572" on="1"/>
        <pt x="211" y="550" on="1"/>
        <pt x="211" y="265" on="1"/>
        <pt x="211" y="198" on="0"/>
        <pt x="231" y="109" on="0"/>
        <pt x="291" y="55" on="0"/>
        <pt x="348" y="55" on="1"/>
        <pt x="425" y="55" on="0"/>
        <pt x="498" y="156" on="0"/>
        <pt x="498" y="242" on="1"/>
        <pt x="498" y="551" on="1"/>
        <pt x="412" y="572" on="1"/>
        <pt x="412" y="613" on="1"/>
        <pt x="650" y="613" on="1"/>
        <pt x="650" y="572" on="1"/>
        <pt x="566" y="551" on="1"/>
        <pt x="566" y="236" on="1"/>
      </contour>
    </TTGlyph>
    <TTGlyph name="Ugrave" xMin="7" yMin="-9" xMax="650" yMax="800">
      <contour>
        <pt x="188" y="746" on="1"/>
        <pt x="190" y="768" on="1"/>
        <pt x="280" y="800" on="1"/>
        <pt x="434" y="669" on="1"/>
        <pt x="414" y="640" on="1"/>
      </contour>
      <contour>
        <pt x="566" y="146" on="0"/>
        <pt x="467" y="-9" on="0"/>
        <pt x="334" y="-9" on="1"/>
        <pt x="237" y="-9" on="0"/>
        <pt x="131" y="63" on="0"/>
        <pt x="94" y="182" on="0"/>
        <pt x="94" y="265" on="1"/>
        <pt x="94" y="550" on="1"/>
        <pt x="7" y="572" on="1"/>
        <pt x="7" y="613" on="1"/>
        <pt x="298" y="613" on="1"/>
        <pt x="298" y="572" on="1"/>
        <pt x="211" y="550" on="1"/>
        <pt x="211" y="265" on="1"/>
        <pt x="211" y="198" on="0"/>
        <pt x="231" y="109" on="0"/>
        <pt x="291" y="55" on="0"/>
        <pt x="348" y="55" on="1"/>
        <pt x="425" y="55" on="0"/>
        <pt x="498" y="156" on="0"/>
        <pt x="498" y="242" on="1"/>
        <pt x="498" y="551" on="1"/>
        <pt x="412" y="572" on="1"/>
        <pt x="412" y="613" on="1"/>
        <pt x="650" y="613" on="1"/>
        <pt x="650" y="572" on="1"/>
        <pt x="566" y="551" on="1"/>
        <pt x="566" y="236" on="1"/>
      </contour>
    </TTGlyph>
    <TTGlyph name="Uhorn" xMin="7" yMin="-9" xMax="689" yMax="734">
      <contour>
        <pt x="689" y="649" on="0"/>
        <pt x="654" y="604" on="0"/>
        <pt x="624" y="589" on="1"/>
        <pt x="566" y="551" on="1"/>
        <pt x="566" y="236" on="1"/>
        <pt x="566" y="146" on="0"/>
        <pt x="467" y="-9" on="0"/>
        <pt x="334" y="-9" on="1"/>
        <pt x="237" y="-9" on="0"/>
        <pt x="131" y="63" on="0"/>
        <pt x="94" y="182" on="0"/>
        <pt x="94" y="265" on="1"/>
        <pt x="94" y="550" on="1"/>
        <pt x="7" y="572" on="1"/>
        <pt x="7" y="613" on="1"/>
        <pt x="298" y="613" on="1"/>
        <pt x="298" y="572" on="1"/>
        <pt x="211" y="550" on="1"/>
        <pt x="211" y="265" on="1"/>
        <pt x="211" y="198" on="0"/>
        <pt x="231" y="109" on="0"/>
        <pt x="291" y="55" on="0"/>
        <pt x="348" y="55" on="1"/>
        <pt x="425" y="55" on="0"/>
        <pt x="498" y="156" on="0"/>
        <pt x="498" y="242" on="1"/>
        <pt x="498" y="551" on="1"/>
        <pt x="412" y="572" on="1"/>
        <pt x="412" y="613" on="1"/>
        <pt x="537" y="613" on="1"/>
        <pt x="566" y="613" on="0"/>
        <pt x="597" y="635" on="0"/>
        <pt x="597" y="666" on="1"/>
        <pt x="597" y="685" on="0"/>
        <pt x="592" y="707" on="1"/>
        <pt x="598" y="720" on="1"/>
        <pt x="676" y="734" on="1"/>
        <pt x="682" y="721" on="0"/>
        <pt x="689" y="689" on="0"/>
        <pt x="689" y="677" on="1"/>
      </contour>
    </TTGlyph>
    <TTGlyph name="Uhungarumlaut" xMin="7" yMin="-9" xMax="650" yMax="809">
      <contour>
        <pt x="214" y="659" on="1"/>
        <pt x="300" y="809" on="1"/>
        <pt x="386" y="809" on="1"/>
        <pt x="386" y="789" on="1"/>
        <pt x="242" y="638" on="1"/>
      </contour>
      <contour>
        <pt x="375" y="659" on="1"/>
        <pt x="461" y="809" on="1"/>
        <pt x="547" y="809" on="1"/>
        <pt x="547" y="789" on="1"/>
        <pt x="403" y="638" on="1"/>
      </contour>
      <contour>
        <pt x="566" y="146" on="0"/>
        <pt x="467" y="-9" on="0"/>
        <pt x="334" y="-9" on="1"/>
        <pt x="237" y="-9" on="0"/>
        <pt x="131" y="63" on="0"/>
        <pt x="94" y="182" on="0"/>
        <pt x="94" y="265" on="1"/>
        <pt x="94" y="550" on="1"/>
        <pt x="7" y="572" on="1"/>
        <pt x="7" y="613" on="1"/>
        <pt x="298" y="613" on="1"/>
        <pt x="298" y="572" on="1"/>
        <pt x="211" y="550" on="1"/>
        <pt x="211" y="265" on="1"/>
        <pt x="211" y="198" on="0"/>
        <pt x="231" y="109" on="0"/>
        <pt x="291" y="55" on="0"/>
        <pt x="348" y="55" on="1"/>
        <pt x="425" y="55" on="0"/>
        <pt x="498" y="156" on="0"/>
        <pt x="498" y="242" on="1"/>
        <pt x="498" y="551" on="1"/>
        <pt x="412" y="572" on="1"/>
        <pt x="412" y="613" on="1"/>
        <pt x="650" y="613" on="1"/>
        <pt x="650" y="572" on="1"/>
        <pt x="566" y="551" on="1"/>
        <pt x="566" y="236" on="1"/>
      </contour>
    </TTGlyph>
    <TTGlyph name="Umacron" xMin="7" yMin="-9" xMax="650" yMax="755">
      <contour>
        <pt x="470" y="755" on="1"/>
        <pt x="470" y="685" on="1"/>
        <pt x="238" y="685" on="1"/>
        <pt x="238" y="755" on="1"/>
      </contour>
      <contour>
        <pt x="566" y="146" on="0"/>
        <pt x="467" y="-9" on="0"/>
        <pt x="334" y="-9" on="1"/>
        <pt x="237" y="-9" on="0"/>
        <pt x="131" y="63" on="0"/>
        <pt x="94" y="182" on="0"/>
        <pt x="94" y="265" on="1"/>
        <pt x="94" y="550" on="1"/>
        <pt x="7" y="572" on="1"/>
        <pt x="7" y="613" on="1"/>
        <pt x="298" y="613" on="1"/>
        <pt x="298" y="572" on="1"/>
        <pt x="211" y="550" on="1"/>
        <pt x="211" y="265" on="1"/>
        <pt x="211" y="198" on="0"/>
        <pt x="231" y="109" on="0"/>
        <pt x="291" y="55" on="0"/>
        <pt x="348" y="55" on="1"/>
        <pt x="425" y="55" on="0"/>
        <pt x="498" y="156" on="0"/>
        <pt x="498" y="242" on="1"/>
        <pt x="498" y="551" on="1"/>
        <pt x="412" y="572" on="1"/>
        <pt x="412" y="613" on="1"/>
        <pt x="650" y="613" on="1"/>
        <pt x="650" y="572" on="1"/>
        <pt x="566" y="551" on="1"/>
        <pt x="566" y="236" on="1"/>
      </contour>
    </TTGlyph>
    <TTGlyph name="Uogonek" xMin="7" yMin="-234" xMax="650" yMax="613">
      <contour>
        <pt x="320" y="-234" on="0"/>
        <pt x="272" y="-184" on="0"/>
        <pt x="272" y="-148" on="1"/>
        <pt x="272" y="-112" on="0"/>
        <pt x="319" y="-38" on="0"/>
        <pt x="363" y="-5" on="1"/>
        <pt x="350" y="-9" on="0"/>
        <pt x="334" y="-9" on="1"/>
        <pt x="237" y="-9" on="0"/>
        <pt x="131" y="63" on="0"/>
        <pt x="94" y="182" on="0"/>
        <pt x="94" y="265" on="1"/>
        <pt x="94" y="550" on="1"/>
        <pt x="7" y="572" on="1"/>
        <pt x="7" y="613" on="1"/>
        <pt x="298" y="613" on="1"/>
        <pt x="298" y="572" on="1"/>
        <pt x="211" y="550" on="1"/>
        <pt x="211" y="265" on="1"/>
        <pt x="211" y="198" on="0"/>
        <pt x="231" y="109" on="0"/>
        <pt x="291" y="55" on="0"/>
        <pt x="348" y="55" on="1"/>
        <pt x="425" y="55" on="0"/>
        <pt x="498" y="156" on="0"/>
        <pt x="498" y="242" on="1"/>
        <pt x="498" y="551" on="1"/>
        <pt x="412" y="572" on="1"/>
        <pt x="412" y="613" on="1"/>
        <pt x="650" y="613" on="1"/>
        <pt x="650" y="572" on="1"/>
        <pt x="566" y="551" on="1"/>
        <pt x="566" y="236" on="1"/>
        <pt x="566" y="172" on="0"/>
        <pt x="515" y="47" on="0"/>
        <pt x="449" y="16" on="1"/>
        <pt x="351" y="-35" on="0"/>
        <pt x="351" y="-128" on="1"/>
        <pt x="351" y="-178" on="0"/>
        <pt x="398" y="-178" on="1"/>
        <pt x="429" y="-178" on="0"/>
        <pt x="455" y="-156" on="1"/>
        <pt x="476" y="-176" on="1"/>
        <pt x="476" y="-178" on="0"/>
        <pt x="450" y="-208" on="0"/>
        <pt x="403" y="-234" on="0"/>
        <pt x="371" y="-234" on="1"/>
      </contour>
    </TTGlyph>
    <TTGlyph name="Uring" xMin="7" yMin="-9" xMax="650" yMax="820">
      <contour>
        <pt x="304" y="629" on="0"/>
        <pt x="247" y="682" on="0"/>
        <pt x="247" y="723" on="1"/>
        <pt x="247" y="765" on="0"/>
        <pt x="304" y="820" on="0"/>
        <pt x="356" y="820" on="1"/>
        <pt x="409" y="820" on="0"/>
        <pt x="465" y="766" on="0"/>
        <pt x="465" y="723" on="1"/>
        <pt x="465" y="681" on="0"/>
        <pt x="409" y="629" on="0"/>
        <pt x="356" y="629" on="1"/>
      </contour>
      <contour>
        <pt x="383" y="672" on="0"/>
        <pt x="400" y="699" on="0"/>
        <pt x="400" y="723" on="1"/>
        <pt x="400" y="748" on="0"/>
        <pt x="383" y="777" on="0"/>
        <pt x="356" y="777" on="1"/>
        <pt x="330" y="777" on="0"/>
        <pt x="313" y="748" on="0"/>
        <pt x="313" y="723" on="1"/>
        <pt x="313" y="699" on="0"/>
        <pt x="330" y="672" on="0"/>
        <pt x="356" y="672" on="1"/>
      </contour>
      <contour>
        <pt x="237" y="-9" on="0"/>
        <pt x="131" y="63" on="0"/>
        <pt x="94" y="182" on="0"/>
        <pt x="94" y="265" on="1"/>
        <pt x="94" y="550" on="1"/>
        <pt x="7" y="572" on="1"/>
        <pt x="7" y="613" on="1"/>
        <pt x="298" y="613" on="1"/>
        <pt x="298" y="572" on="1"/>
        <pt x="211" y="550" on="1"/>
        <pt x="211" y="265" on="1"/>
        <pt x="211" y="198" on="0"/>
        <pt x="231" y="109" on="0"/>
        <pt x="291" y="55" on="0"/>
        <pt x="348" y="55" on="1"/>
        <pt x="425" y="55" on="0"/>
        <pt x="498" y="156" on="0"/>
        <pt x="498" y="242" on="1"/>
        <pt x="498" y="551" on="1"/>
        <pt x="412" y="572" on="1"/>
        <pt x="412" y="613" on="1"/>
        <pt x="650" y="613" on="1"/>
        <pt x="650" y="572" on="1"/>
        <pt x="566" y="551" on="1"/>
        <pt x="566" y="236" on="1"/>
        <pt x="566" y="146" on="0"/>
        <pt x="467" y="-9" on="0"/>
        <pt x="334" y="-9" on="1"/>
      </contour>
    </TTGlyph>
    <TTGlyph name="Utilde" xMin="7" yMin="-9" xMax="650" yMax="797">
      <contour>
        <pt x="496" y="727" on="0"/>
        <pt x="457" y="674" on="0"/>
        <pt x="434" y="674" on="1"/>
        <pt x="410" y="674" on="0"/>
        <pt x="344" y="694" on="1"/>
        <pt x="323" y="701" on="0"/>
        <pt x="281" y="712" on="0"/>
        <pt x="270" y="712" on="1"/>
        <pt x="259" y="712" on="0"/>
        <pt x="241" y="697" on="0"/>
        <pt x="229" y="682" on="0"/>
        <pt x="228" y="679" on="1"/>
        <pt x="187" y="696" on="1"/>
        <pt x="203" y="741" on="0"/>
        <pt x="246" y="797" on="0"/>
        <pt x="269" y="797" on="1"/>
        <pt x="293" y="797" on="0"/>
        <pt x="357" y="777" on="1"/>
        <pt x="379" y="770" on="0"/>
        <pt x="422" y="759" on="0"/>
        <pt x="434" y="759" on="1"/>
        <pt x="445" y="759" on="0"/>
        <pt x="463" y="773" on="0"/>
        <pt x="475" y="789" on="0"/>
        <pt x="476" y="791" on="1"/>
        <pt x="516" y="774" on="1"/>
      </contour>
      <contour>
        <pt x="566" y="146" on="0"/>
        <pt x="467" y="-9" on="0"/>
        <pt x="334" y="-9" on="1"/>
        <pt x="237" y="-9" on="0"/>
        <pt x="131" y="63" on="0"/>
        <pt x="94" y="182" on="0"/>
        <pt x="94" y="265" on="1"/>
        <pt x="94" y="550" on="1"/>
        <pt x="7" y="572" on="1"/>
        <pt x="7" y="613" on="1"/>
        <pt x="298" y="613" on="1"/>
        <pt x="298" y="572" on="1"/>
        <pt x="211" y="550" on="1"/>
        <pt x="211" y="265" on="1"/>
        <pt x="211" y="196" on="0"/>
        <pt x="231" y="104" on="0"/>
        <pt x="291" y="50" on="0"/>
        <pt x="348" y="50" on="1"/>
        <pt x="425" y="50" on="0"/>
        <pt x="498" y="153" on="0"/>
        <pt x="498" y="242" on="1"/>
        <pt x="498" y="551" on="1"/>
        <pt x="412" y="572" on="1"/>
        <pt x="412" y="613" on="1"/>
        <pt x="650" y="613" on="1"/>
        <pt x="650" y="572" on="1"/>
        <pt x="566" y="551" on="1"/>
        <pt x="566" y="236" on="1"/>
      </contour>
    </TTGlyph>
    <TTGlyph name="V" xMin="-1" yMin="-10" xMax="598" yMax="613">
      <contour>
        <pt x="70" y="550" on="1"/>
        <pt x="-1" y="572" on="1"/>
        <pt x="-1" y="613" on="1"/>
        <pt x="256" y="613" on="1"/>
        <pt x="256" y="572" on="1"/>
        <pt x="193" y="552" on="1"/>
        <pt x="322" y="170" on="1"/>
        <pt x="327" y="153" on="1"/>
        <pt x="331" y="170" on="1"/>
        <pt x="453" y="550" on="1"/>
        <pt x="384" y="572" on="1"/>
        <pt x="384" y="613" on="1"/>
        <pt x="598" y="613" on="1"/>
        <pt x="598" y="573" on="1"/>
        <pt x="527" y="550" on="1"/>
        <pt x="341" y="3" on="1"/>
        <pt x="269" y="-10" on="1"/>
      </contour>
    </TTGlyph>
    <TTGlyph name="W" xMin="-10" yMin="-10" xMax="802" yMax="613">
      <contour>
        <pt x="802" y="613" on="1"/>
        <pt x="802" y="573" on="1"/>
        <pt x="730" y="550" on="1"/>
        <pt x="600" y="3" on="1"/>
        <pt x="530" y="-10" on="1"/>
        <pt x="398" y="406" on="1"/>
        <pt x="285" y="3" on="1"/>
        <pt x="215" y="-10" on="1"/>
        <pt x="61" y="550" on="1"/>
        <pt x="-10" y="572" on="1"/>
        <pt x="-10" y="613" on="1"/>
        <pt x="247" y="613" on="1"/>
        <pt x="247" y="572" on="1"/>
        <pt x="185" y="552" on="1"/>
        <pt x="269" y="185" on="1"/>
        <pt x="361" y="546" on="1"/>
        <pt x="465" y="565" on="1"/>
        <pt x="577" y="177" on="1"/>
        <pt x="656" y="550" on="1"/>
        <pt x="586" y="572" on="1"/>
        <pt x="586" y="613" on="1"/>
      </contour>
    </TTGlyph>
    <TTGlyph name="Wacute" xMin="-10" yMin="-10" xMax="802" yMax="800">
      <component glyphName=".ttfautohint" x="0" y="0" flags="0x0"/>
      <component glyphName="W" x="0" y="0" flags="0x0"/>
      <component glyphName="acutecomb" x="574" y="0" flags="0x0"/>
    </TTGlyph>
    <TTGlyph name="Wcircumflex" xMin="-10" yMin="-10" xMax="802" yMax="800">
      <component glyphName=".ttfautohint" x="0" y="0" flags="0x0"/>
      <component glyphName="W" x="0" y="0" flags="0x0"/>
      <component glyphName="uni0302" x="515" y="0" flags="0x0"/>
    </TTGlyph>
    <TTGlyph name="Wdieresis" xMin="-10" yMin="-10" xMax="802" yMax="788">
      <component glyphName=".ttfautohint" x="0" y="0" flags="0x0"/>
      <component glyphName="W" x="0" y="0" flags="0x0"/>
      <component glyphName="uni0308" x="514" y="0" flags="0x0"/>
    </TTGlyph>
    <TTGlyph name="Wgrave" xMin="-10" yMin="-10" xMax="802" yMax="800">
      <component glyphName=".ttfautohint" x="0" y="0" flags="0x0"/>
      <component glyphName="W" x="0" y="0" flags="0x0"/>
      <component glyphName="gravecomb" x="451" y="0" flags="0x0"/>
    </TTGlyph>
    <TTGlyph name="X" xMin="5" yMin="0" xMax="593" yMax="613">
      <contour>
        <pt x="225" y="0" on="1"/>
        <pt x="5" y="0" on="1"/>
        <pt x="5" y="41" on="1"/>
        <pt x="73" y="61" on="1"/>
        <pt x="236" y="304" on="1"/>
        <pt x="79" y="552" on="1"/>
        <pt x="12" y="572" on="1"/>
        <pt x="12" y="613" on="1"/>
        <pt x="274" y="613" on="1"/>
        <pt x="274" y="570" on="1"/>
        <pt x="207" y="552" on="1"/>
        <pt x="317" y="380" on="1"/>
        <pt x="431" y="552" on="1"/>
        <pt x="360" y="570" on="1"/>
        <pt x="360" y="613" on="1"/>
        <pt x="581" y="613" on="1"/>
        <pt x="581" y="572" on="1"/>
        <pt x="513" y="552" on="1"/>
        <pt x="356" y="320" on="1"/>
        <pt x="519" y="61" on="1"/>
        <pt x="593" y="41" on="1"/>
        <pt x="593" y="0" on="1"/>
        <pt x="330" y="0" on="1"/>
        <pt x="330" y="43" on="1"/>
        <pt x="391" y="61" on="1"/>
        <pt x="274" y="242" on="1"/>
        <pt x="155" y="61" on="1"/>
        <pt x="225" y="42" on="1"/>
      </contour>
    </TTGlyph>
    <TTGlyph name="Y" xMin="10" yMin="0" xMax="575" yMax="613">
      <contour>
        <pt x="360" y="613" on="1"/>
        <pt x="575" y="613" on="1"/>
        <pt x="575" y="573" on="1"/>
        <pt x="504" y="550" on="1"/>
        <pt x="353" y="245" on="1"/>
        <pt x="353" y="63" on="1"/>
        <pt x="446" y="41" on="1"/>
        <pt x="446" y="0" on="1"/>
        <pt x="145" y="0" on="1"/>
        <pt x="145" y="41" on="1"/>
        <pt x="237" y="63" on="1"/>
        <pt x="237" y="245" on="1"/>
        <pt x="80" y="550" on="1"/>
        <pt x="10" y="572" on="1"/>
        <pt x="10" y="613" on="1"/>
        <pt x="273" y="613" on="1"/>
        <pt x="273" y="571" on="1"/>
        <pt x="208" y="550" on="1"/>
        <pt x="320" y="328" on="1"/>
        <pt x="431" y="551" on="1"/>
        <pt x="360" y="571" on="1"/>
      </contour>
    </TTGlyph>
    <TTGlyph name="Y.loclGUA" xMin="-3" yMin="-168" xMax="669" yMax="613">
      <contour>
        <pt x="218" y="-92" on="0"/>
        <pt x="283" y="-103" on="0"/>
        <pt x="305" y="-103" on="1"/>
        <pt x="393" y="-103" on="0"/>
        <pt x="473" y="-24" on="0"/>
        <pt x="473" y="65" on="1"/>
        <pt x="473" y="108" on="1"/>
        <pt x="415" y="52" on="0"/>
        <pt x="317" y="52" on="1"/>
        <pt x="223" y="52" on="0"/>
        <pt x="121" y="120" on="0"/>
        <pt x="84" y="240" on="0"/>
        <pt x="84" y="331" on="1"/>
        <pt x="84" y="550" on="1"/>
        <pt x="-3" y="572" on="1"/>
        <pt x="-3" y="613" on="1"/>
        <pt x="288" y="613" on="1"/>
        <pt x="288" y="572" on="1"/>
        <pt x="201" y="550" on="1"/>
        <pt x="201" y="331" on="1"/>
        <pt x="201" y="226" on="0"/>
        <pt x="255" y="114" on="0"/>
        <pt x="335" y="114" on="1"/>
        <pt x="429" y="114" on="0"/>
        <pt x="472" y="193" on="1"/>
        <pt x="472" y="550" on="1"/>
        <pt x="386" y="572" on="1"/>
        <pt x="386" y="613" on="1"/>
        <pt x="669" y="613" on="1"/>
        <pt x="669" y="572" on="1"/>
        <pt x="582" y="550" on="1"/>
        <pt x="582" y="68" on="1"/>
        <pt x="582" y="1" on="0"/>
        <pt x="523" y="-105" on="0"/>
        <pt x="401" y="-168" on="0"/>
        <pt x="310" y="-168" on="1"/>
        <pt x="203" y="-168" on="0"/>
        <pt x="115" y="-130" on="1"/>
        <pt x="131" y="3" on="1"/>
        <pt x="179" y="3" on="1"/>
        <pt x="197" y="-82" on="1"/>
      </contour>
    </TTGlyph>
    <TTGlyph name="Yacute" xMin="7" yMin="0" xMax="572" yMax="800">
      <contour>
        <pt x="202" y="669" on="1"/>
        <pt x="358" y="800" on="1"/>
        <pt x="449" y="768" on="1"/>
        <pt x="449" y="746" on="1"/>
        <pt x="226" y="640" on="1"/>
      </contour>
      <contour>
        <pt x="357" y="613" on="1"/>
        <pt x="572" y="613" on="1"/>
        <pt x="572" y="573" on="1"/>
        <pt x="501" y="550" on="1"/>
        <pt x="350" y="245" on="1"/>
        <pt x="350" y="63" on="1"/>
        <pt x="443" y="41" on="1"/>
        <pt x="443" y="0" on="1"/>
        <pt x="142" y="0" on="1"/>
        <pt x="142" y="41" on="1"/>
        <pt x="234" y="63" on="1"/>
        <pt x="234" y="245" on="1"/>
        <pt x="77" y="550" on="1"/>
        <pt x="7" y="572" on="1"/>
        <pt x="7" y="613" on="1"/>
        <pt x="270" y="613" on="1"/>
        <pt x="270" y="571" on="1"/>
        <pt x="206" y="550" on="1"/>
        <pt x="318" y="328" on="1"/>
        <pt x="428" y="551" on="1"/>
        <pt x="357" y="571" on="1"/>
      </contour>
    </TTGlyph>
    <TTGlyph name="Yacute.loclGUA" xMin="1" yMin="-168" xMax="672" yMax="800">
      <contour>
        <pt x="244" y="669" on="1"/>
        <pt x="399" y="800" on="1"/>
        <pt x="490" y="768" on="1"/>
        <pt x="490" y="746" on="1"/>
        <pt x="267" y="640" on="1"/>
      </contour>
      <contour>
        <pt x="221" y="-92" on="0"/>
        <pt x="286" y="-103" on="0"/>
        <pt x="308" y="-103" on="1"/>
        <pt x="396" y="-103" on="0"/>
        <pt x="476" y="-24" on="0"/>
        <pt x="476" y="65" on="1"/>
        <pt x="476" y="108" on="1"/>
        <pt x="418" y="52" on="0"/>
        <pt x="320" y="52" on="1"/>
        <pt x="226" y="52" on="0"/>
        <pt x="124" y="120" on="0"/>
        <pt x="88" y="240" on="0"/>
        <pt x="88" y="331" on="1"/>
        <pt x="88" y="550" on="1"/>
        <pt x="1" y="572" on="1"/>
        <pt x="1" y="613" on="1"/>
        <pt x="291" y="613" on="1"/>
        <pt x="291" y="572" on="1"/>
        <pt x="204" y="550" on="1"/>
        <pt x="204" y="331" on="1"/>
        <pt x="204" y="226" on="0"/>
        <pt x="258" y="114" on="0"/>
        <pt x="338" y="114" on="1"/>
        <pt x="433" y="114" on="0"/>
        <pt x="476" y="193" on="1"/>
        <pt x="476" y="550" on="1"/>
        <pt x="389" y="572" on="1"/>
        <pt x="389" y="613" on="1"/>
        <pt x="672" y="613" on="1"/>
        <pt x="672" y="572" on="1"/>
        <pt x="585" y="550" on="1"/>
        <pt x="585" y="68" on="1"/>
        <pt x="585" y="1" on="0"/>
        <pt x="526" y="-105" on="0"/>
        <pt x="404" y="-168" on="0"/>
        <pt x="313" y="-168" on="1"/>
        <pt x="206" y="-168" on="0"/>
        <pt x="118" y="-130" on="1"/>
        <pt x="134" y="3" on="1"/>
        <pt x="182" y="3" on="1"/>
        <pt x="200" y="-82" on="1"/>
      </contour>
    </TTGlyph>
    <TTGlyph name="Ycircumflex" xMin="7" yMin="0" xMax="572" yMax="800">
      <contour>
        <pt x="300" y="723" on="1"/>
        <pt x="179" y="644" on="1"/>
        <pt x="156" y="666" on="1"/>
        <pt x="263" y="800" on="1"/>
        <pt x="339" y="800" on="1"/>
        <pt x="446" y="666" on="1"/>
        <pt x="425" y="644" on="1"/>
      </contour>
      <contour>
        <pt x="357" y="613" on="1"/>
        <pt x="572" y="613" on="1"/>
        <pt x="572" y="573" on="1"/>
        <pt x="501" y="550" on="1"/>
        <pt x="350" y="245" on="1"/>
        <pt x="350" y="63" on="1"/>
        <pt x="443" y="41" on="1"/>
        <pt x="443" y="0" on="1"/>
        <pt x="142" y="0" on="1"/>
        <pt x="142" y="41" on="1"/>
        <pt x="234" y="63" on="1"/>
        <pt x="234" y="245" on="1"/>
        <pt x="77" y="550" on="1"/>
        <pt x="7" y="572" on="1"/>
        <pt x="7" y="613" on="1"/>
        <pt x="270" y="613" on="1"/>
        <pt x="270" y="571" on="1"/>
        <pt x="206" y="550" on="1"/>
        <pt x="318" y="328" on="1"/>
        <pt x="428" y="551" on="1"/>
        <pt x="357" y="571" on="1"/>
      </contour>
    </TTGlyph>
    <TTGlyph name="Ycircumflex.loclGUA" xMin="1" yMin="-168" xMax="672" yMax="800">
      <contour>
        <pt x="197" y="666" on="1"/>
        <pt x="304" y="800" on="1"/>
        <pt x="380" y="800" on="1"/>
        <pt x="487" y="666" on="1"/>
        <pt x="466" y="644" on="1"/>
        <pt x="341" y="723" on="1"/>
        <pt x="220" y="644" on="1"/>
      </contour>
      <contour>
        <pt x="206" y="-168" on="0"/>
        <pt x="118" y="-130" on="1"/>
        <pt x="134" y="3" on="1"/>
        <pt x="182" y="3" on="1"/>
        <pt x="200" y="-82" on="1"/>
        <pt x="221" y="-92" on="0"/>
        <pt x="286" y="-103" on="0"/>
        <pt x="308" y="-103" on="1"/>
        <pt x="396" y="-103" on="0"/>
        <pt x="476" y="-24" on="0"/>
        <pt x="476" y="65" on="1"/>
        <pt x="476" y="108" on="1"/>
        <pt x="418" y="52" on="0"/>
        <pt x="320" y="52" on="1"/>
        <pt x="226" y="52" on="0"/>
        <pt x="124" y="120" on="0"/>
        <pt x="88" y="240" on="0"/>
        <pt x="88" y="331" on="1"/>
        <pt x="88" y="550" on="1"/>
        <pt x="1" y="572" on="1"/>
        <pt x="1" y="613" on="1"/>
        <pt x="291" y="613" on="1"/>
        <pt x="291" y="572" on="1"/>
        <pt x="204" y="550" on="1"/>
        <pt x="204" y="331" on="1"/>
        <pt x="204" y="226" on="0"/>
        <pt x="258" y="114" on="0"/>
        <pt x="338" y="114" on="1"/>
        <pt x="433" y="114" on="0"/>
        <pt x="476" y="193" on="1"/>
        <pt x="476" y="550" on="1"/>
        <pt x="389" y="572" on="1"/>
        <pt x="389" y="613" on="1"/>
        <pt x="672" y="613" on="1"/>
        <pt x="672" y="572" on="1"/>
        <pt x="585" y="550" on="1"/>
        <pt x="585" y="68" on="1"/>
        <pt x="585" y="1" on="0"/>
        <pt x="526" y="-105" on="0"/>
        <pt x="404" y="-168" on="0"/>
        <pt x="313" y="-168" on="1"/>
      </contour>
    </TTGlyph>
    <TTGlyph name="Ydieresis" xMin="7" yMin="0" xMax="572" yMax="788">
      <contour>
        <pt x="168" y="654" on="0"/>
        <pt x="126" y="693" on="0"/>
        <pt x="126" y="721" on="1"/>
        <pt x="126" y="749" on="0"/>
        <pt x="168" y="788" on="0"/>
        <pt x="197" y="788" on="1"/>
        <pt x="224" y="788" on="0"/>
        <pt x="264" y="749" on="0"/>
        <pt x="264" y="721" on="1"/>
        <pt x="264" y="693" on="0"/>
        <pt x="224" y="654" on="0"/>
        <pt x="197" y="654" on="1"/>
      </contour>
      <contour>
        <pt x="387" y="654" on="0"/>
        <pt x="345" y="693" on="0"/>
        <pt x="345" y="721" on="1"/>
        <pt x="345" y="749" on="0"/>
        <pt x="387" y="788" on="0"/>
        <pt x="416" y="788" on="1"/>
        <pt x="442" y="788" on="0"/>
        <pt x="483" y="748" on="0"/>
        <pt x="483" y="721" on="1"/>
        <pt x="483" y="693" on="0"/>
        <pt x="442" y="654" on="0"/>
        <pt x="416" y="654" on="1"/>
      </contour>
      <contour>
        <pt x="142" y="41" on="1"/>
        <pt x="234" y="63" on="1"/>
        <pt x="234" y="245" on="1"/>
        <pt x="77" y="550" on="1"/>
        <pt x="7" y="572" on="1"/>
        <pt x="7" y="613" on="1"/>
        <pt x="271" y="613" on="1"/>
        <pt x="271" y="571" on="1"/>
        <pt x="206" y="550" on="1"/>
        <pt x="318" y="328" on="1"/>
        <pt x="428" y="551" on="1"/>
        <pt x="357" y="571" on="1"/>
        <pt x="357" y="613" on="1"/>
        <pt x="572" y="613" on="1"/>
        <pt x="572" y="573" on="1"/>
        <pt x="501" y="550" on="1"/>
        <pt x="350" y="245" on="1"/>
        <pt x="350" y="63" on="1"/>
        <pt x="443" y="41" on="1"/>
        <pt x="443" y="0" on="1"/>
        <pt x="142" y="0" on="1"/>
      </contour>
    </TTGlyph>
    <TTGlyph name="Ydieresis.loclGUA" xMin="1" yMin="-168" xMax="672" yMax="790">
      <contour>
        <pt x="305" y="695" on="0"/>
        <pt x="264" y="656" on="0"/>
        <pt x="237" y="656" on="1"/>
        <pt x="209" y="656" on="0"/>
        <pt x="166" y="695" on="0"/>
        <pt x="166" y="723" on="1"/>
        <pt x="166" y="750" on="0"/>
        <pt x="209" y="790" on="0"/>
        <pt x="237" y="790" on="1"/>
        <pt x="264" y="790" on="0"/>
        <pt x="305" y="750" on="0"/>
        <pt x="305" y="723" on="1"/>
      </contour>
      <contour>
        <pt x="524" y="695" on="0"/>
        <pt x="483" y="656" on="0"/>
        <pt x="456" y="656" on="1"/>
        <pt x="427" y="656" on="0"/>
        <pt x="386" y="695" on="0"/>
        <pt x="386" y="723" on="1"/>
        <pt x="386" y="751" on="0"/>
        <pt x="427" y="790" on="0"/>
        <pt x="456" y="790" on="1"/>
        <pt x="483" y="790" on="0"/>
        <pt x="524" y="750" on="0"/>
        <pt x="524" y="723" on="1"/>
      </contour>
      <contour>
        <pt x="221" y="-92" on="0"/>
        <pt x="286" y="-103" on="0"/>
        <pt x="308" y="-103" on="1"/>
        <pt x="396" y="-103" on="0"/>
        <pt x="476" y="-24" on="0"/>
        <pt x="476" y="65" on="1"/>
        <pt x="476" y="108" on="1"/>
        <pt x="418" y="52" on="0"/>
        <pt x="320" y="52" on="1"/>
        <pt x="226" y="52" on="0"/>
        <pt x="124" y="120" on="0"/>
        <pt x="88" y="240" on="0"/>
        <pt x="88" y="331" on="1"/>
        <pt x="88" y="550" on="1"/>
        <pt x="1" y="572" on="1"/>
        <pt x="1" y="613" on="1"/>
        <pt x="291" y="613" on="1"/>
        <pt x="291" y="572" on="1"/>
        <pt x="204" y="550" on="1"/>
        <pt x="204" y="331" on="1"/>
        <pt x="204" y="226" on="0"/>
        <pt x="258" y="114" on="0"/>
        <pt x="338" y="114" on="1"/>
        <pt x="433" y="114" on="0"/>
        <pt x="476" y="193" on="1"/>
        <pt x="476" y="550" on="1"/>
        <pt x="389" y="572" on="1"/>
        <pt x="389" y="613" on="1"/>
        <pt x="672" y="613" on="1"/>
        <pt x="672" y="572" on="1"/>
        <pt x="585" y="550" on="1"/>
        <pt x="585" y="68" on="1"/>
        <pt x="585" y="1" on="0"/>
        <pt x="526" y="-105" on="0"/>
        <pt x="404" y="-168" on="0"/>
        <pt x="313" y="-168" on="1"/>
        <pt x="206" y="-168" on="0"/>
        <pt x="118" y="-130" on="1"/>
        <pt x="134" y="3" on="1"/>
        <pt x="182" y="3" on="1"/>
        <pt x="200" y="-82" on="1"/>
      </contour>
    </TTGlyph>
    <TTGlyph name="Ygrave" xMin="7" yMin="0" xMax="572" yMax="800">
      <contour>
        <pt x="169" y="746" on="1"/>
        <pt x="172" y="768" on="1"/>
        <pt x="262" y="800" on="1"/>
        <pt x="415" y="669" on="1"/>
        <pt x="395" y="640" on="1"/>
      </contour>
      <contour>
        <pt x="142" y="41" on="1"/>
        <pt x="234" y="63" on="1"/>
        <pt x="234" y="245" on="1"/>
        <pt x="77" y="550" on="1"/>
        <pt x="7" y="572" on="1"/>
        <pt x="7" y="613" on="1"/>
        <pt x="271" y="613" on="1"/>
        <pt x="271" y="571" on="1"/>
        <pt x="206" y="550" on="1"/>
        <pt x="318" y="328" on="1"/>
        <pt x="428" y="551" on="1"/>
        <pt x="357" y="571" on="1"/>
        <pt x="357" y="613" on="1"/>
        <pt x="572" y="613" on="1"/>
        <pt x="572" y="573" on="1"/>
        <pt x="501" y="550" on="1"/>
        <pt x="350" y="245" on="1"/>
        <pt x="350" y="63" on="1"/>
        <pt x="443" y="41" on="1"/>
        <pt x="443" y="0" on="1"/>
        <pt x="142" y="0" on="1"/>
      </contour>
    </TTGlyph>
    <TTGlyph name="Ygrave.loclGUA" xMin="1" yMin="-168" xMax="672" yMax="800">
      <contour>
        <pt x="203" y="746" on="1"/>
        <pt x="206" y="768" on="1"/>
        <pt x="296" y="800" on="1"/>
        <pt x="450" y="669" on="1"/>
        <pt x="429" y="640" on="1"/>
      </contour>
      <contour>
        <pt x="221" y="-92" on="0"/>
        <pt x="286" y="-103" on="0"/>
        <pt x="308" y="-103" on="1"/>
        <pt x="396" y="-103" on="0"/>
        <pt x="476" y="-24" on="0"/>
        <pt x="476" y="65" on="1"/>
        <pt x="476" y="108" on="1"/>
        <pt x="418" y="52" on="0"/>
        <pt x="320" y="52" on="1"/>
        <pt x="226" y="52" on="0"/>
        <pt x="124" y="120" on="0"/>
        <pt x="88" y="240" on="0"/>
        <pt x="88" y="331" on="1"/>
        <pt x="88" y="550" on="1"/>
        <pt x="1" y="572" on="1"/>
        <pt x="1" y="613" on="1"/>
        <pt x="291" y="613" on="1"/>
        <pt x="291" y="572" on="1"/>
        <pt x="204" y="550" on="1"/>
        <pt x="204" y="331" on="1"/>
        <pt x="204" y="226" on="0"/>
        <pt x="258" y="114" on="0"/>
        <pt x="338" y="114" on="1"/>
        <pt x="433" y="114" on="0"/>
        <pt x="476" y="193" on="1"/>
        <pt x="476" y="550" on="1"/>
        <pt x="389" y="572" on="1"/>
        <pt x="389" y="613" on="1"/>
        <pt x="672" y="613" on="1"/>
        <pt x="672" y="572" on="1"/>
        <pt x="585" y="550" on="1"/>
        <pt x="585" y="68" on="1"/>
        <pt x="585" y="1" on="0"/>
        <pt x="526" y="-105" on="0"/>
        <pt x="404" y="-168" on="0"/>
        <pt x="313" y="-168" on="1"/>
        <pt x="206" y="-168" on="0"/>
        <pt x="118" y="-130" on="1"/>
        <pt x="134" y="3" on="1"/>
        <pt x="182" y="3" on="1"/>
        <pt x="200" y="-82" on="1"/>
      </contour>
    </TTGlyph>
    <TTGlyph name="Z" xMin="29" yMin="0" xMax="477" yMax="613">
      <contour>
        <pt x="464" y="0" on="1"/>
        <pt x="47" y="0" on="1"/>
        <pt x="29" y="33" on="1"/>
        <pt x="342" y="550" on="1"/>
        <pt x="132" y="550" on="1"/>
        <pt x="108" y="472" on="1"/>
        <pt x="57" y="472" on="1"/>
        <pt x="48" y="613" on="1"/>
        <pt x="472" y="613" on="1"/>
        <pt x="477" y="580" on="1"/>
        <pt x="168" y="64" on="1"/>
        <pt x="385" y="64" on="1"/>
        <pt x="423" y="157" on="1"/>
        <pt x="473" y="157" on="1"/>
      </contour>
    </TTGlyph>
    <TTGlyph name="Zacute" xMin="29" yMin="0" xMax="477" yMax="800">
      <contour>
        <pt x="157" y="669" on="1"/>
        <pt x="312" y="800" on="1"/>
        <pt x="403" y="768" on="1"/>
        <pt x="403" y="746" on="1"/>
        <pt x="180" y="640" on="1"/>
      </contour>
      <contour>
        <pt x="464" y="0" on="1"/>
        <pt x="47" y="0" on="1"/>
        <pt x="29" y="33" on="1"/>
        <pt x="342" y="550" on="1"/>
        <pt x="132" y="550" on="1"/>
        <pt x="108" y="472" on="1"/>
        <pt x="57" y="472" on="1"/>
        <pt x="48" y="613" on="1"/>
        <pt x="472" y="613" on="1"/>
        <pt x="477" y="580" on="1"/>
        <pt x="168" y="64" on="1"/>
        <pt x="385" y="64" on="1"/>
        <pt x="423" y="157" on="1"/>
        <pt x="473" y="157" on="1"/>
      </contour>
    </TTGlyph>
    <TTGlyph name="Zacute.loclPLK" xMin="29" yMin="0" xMax="477" yMax="809">
      <component glyphName=".ttfautohint" x="29" y="0" flags="0x0"/>
      <component glyphName="Z" x="0" y="0" flags="0x0"/>
      <component glyphName="acute.loclPLK.case" x="155" y="0" flags="0x0"/>
    </TTGlyph>
    <TTGlyph name="Zcaron" xMin="30" yMin="0" xMax="478" yMax="800">
      <contour>
        <pt x="126" y="777" on="1"/>
        <pt x="149" y="800" on="1"/>
        <pt x="271" y="721" on="1"/>
        <pt x="394" y="800" on="1"/>
        <pt x="415" y="777" on="1"/>
        <pt x="309" y="644" on="1"/>
        <pt x="233" y="644" on="1"/>
      </contour>
      <contour>
        <pt x="30" y="33" on="1"/>
        <pt x="343" y="550" on="1"/>
        <pt x="133" y="550" on="1"/>
        <pt x="110" y="472" on="1"/>
        <pt x="59" y="472" on="1"/>
        <pt x="49" y="613" on="1"/>
        <pt x="473" y="613" on="1"/>
        <pt x="478" y="580" on="1"/>
        <pt x="169" y="64" on="1"/>
        <pt x="386" y="64" on="1"/>
        <pt x="424" y="157" on="1"/>
        <pt x="474" y="157" on="1"/>
        <pt x="465" y="0" on="1"/>
        <pt x="48" y="0" on="1"/>
      </contour>
    </TTGlyph>
    <TTGlyph name="Zdotaccent" xMin="29" yMin="0" xMax="477" yMax="794">
      <contour>
        <pt x="341" y="688" on="0"/>
        <pt x="297" y="646" on="0"/>
        <pt x="267" y="646" on="1"/>
        <pt x="237" y="646" on="0"/>
        <pt x="190" y="688" on="0"/>
        <pt x="190" y="718" on="1"/>
        <pt x="190" y="748" on="0"/>
        <pt x="237" y="794" on="0"/>
        <pt x="267" y="794" on="1"/>
        <pt x="297" y="794" on="0"/>
        <pt x="341" y="749" on="0"/>
        <pt x="341" y="718" on="1"/>
      </contour>
      <contour>
        <pt x="464" y="0" on="1"/>
        <pt x="47" y="0" on="1"/>
        <pt x="29" y="33" on="1"/>
        <pt x="342" y="550" on="1"/>
        <pt x="132" y="550" on="1"/>
        <pt x="108" y="472" on="1"/>
        <pt x="57" y="472" on="1"/>
        <pt x="48" y="613" on="1"/>
        <pt x="472" y="613" on="1"/>
        <pt x="477" y="580" on="1"/>
        <pt x="168" y="64" on="1"/>
        <pt x="385" y="64" on="1"/>
        <pt x="423" y="157" on="1"/>
        <pt x="473" y="157" on="1"/>
      </contour>
    </TTGlyph>
    <TTGlyph name="a" xMin="36" yMin="-10" xMax="503" yMax="501">
      <contour>
        <pt x="190" y="433" on="0"/>
        <pt x="151" y="420" on="1"/>
        <pt x="128" y="336" on="1"/>
        <pt x="79" y="336" on="1"/>
        <pt x="62" y="464" on="1"/>
        <pt x="159" y="501" on="0"/>
        <pt x="263" y="501" on="1"/>
        <pt x="341" y="501" on="0"/>
        <pt x="421" y="449" on="0"/>
        <pt x="421" y="382" on="1"/>
        <pt x="421" y="74" on="1"/>
        <pt x="503" y="50" on="1"/>
        <pt x="503" y="12" on="1"/>
        <pt x="439" y="-5" on="0"/>
        <pt x="395" y="-5" on="1"/>
        <pt x="364" y="-5" on="0"/>
        <pt x="314" y="23" on="0"/>
        <pt x="307" y="49" on="1"/>
        <pt x="266" y="20" on="0"/>
        <pt x="192" y="-10" on="0"/>
        <pt x="150" y="-10" on="1"/>
        <pt x="97" y="-10" on="0"/>
        <pt x="36" y="59" on="0"/>
        <pt x="36" y="113" on="1"/>
        <pt x="36" y="161" on="0"/>
        <pt x="93" y="242" on="0"/>
        <pt x="164" y="256" on="1"/>
        <pt x="304" y="283" on="1"/>
        <pt x="304" y="358" on="1"/>
        <pt x="304" y="398" on="0"/>
        <pt x="272" y="433" on="0"/>
        <pt x="232" y="433" on="1"/>
      </contour>
      <contour>
        <pt x="188" y="205" on="0"/>
        <pt x="153" y="161" on="0"/>
        <pt x="153" y="127" on="1"/>
        <pt x="153" y="64" on="0"/>
        <pt x="212" y="64" on="1"/>
        <pt x="233" y="64" on="0"/>
        <pt x="285" y="83" on="0"/>
        <pt x="304" y="95" on="1"/>
        <pt x="304" y="230" on="1"/>
        <pt x="229" y="214" on="1"/>
      </contour>
    </TTGlyph>
    <TTGlyph name="aacute" xMin="36" yMin="-10" xMax="503" yMax="722">
      <component glyphName=".ttfautohint" x="36" y="0" flags="0x0"/>
      <component glyphName="a" x="0" y="0" flags="0x0"/>
      <component glyphName="acute" x="149" y="0" flags="0x0"/>
    </TTGlyph>
    <TTGlyph name="abreve" xMin="36" yMin="-10" xMax="503" yMax="705">
      <contour>
        <pt x="172" y="575" on="0"/>
        <pt x="124" y="644" on="0"/>
        <pt x="124" y="703" on="1"/>
        <pt x="173" y="705" on="1"/>
        <pt x="173" y="644" on="0"/>
        <pt x="240" y="644" on="1"/>
        <pt x="315" y="644" on="0"/>
        <pt x="315" y="705" on="1"/>
        <pt x="364" y="703" on="1"/>
        <pt x="364" y="575" on="0"/>
        <pt x="240" y="575" on="1"/>
      </contour>
      <contour>
        <pt x="190" y="433" on="0"/>
        <pt x="151" y="420" on="1"/>
        <pt x="128" y="336" on="1"/>
        <pt x="79" y="336" on="1"/>
        <pt x="62" y="464" on="1"/>
        <pt x="159" y="501" on="0"/>
        <pt x="263" y="501" on="1"/>
        <pt x="341" y="501" on="0"/>
        <pt x="421" y="449" on="0"/>
        <pt x="421" y="382" on="1"/>
        <pt x="421" y="74" on="1"/>
        <pt x="503" y="50" on="1"/>
        <pt x="503" y="12" on="1"/>
        <pt x="439" y="-5" on="0"/>
        <pt x="395" y="-5" on="1"/>
        <pt x="364" y="-5" on="0"/>
        <pt x="314" y="23" on="0"/>
        <pt x="307" y="49" on="1"/>
        <pt x="266" y="20" on="0"/>
        <pt x="192" y="-10" on="0"/>
        <pt x="150" y="-10" on="1"/>
        <pt x="97" y="-10" on="0"/>
        <pt x="36" y="59" on="0"/>
        <pt x="36" y="113" on="1"/>
        <pt x="36" y="161" on="0"/>
        <pt x="93" y="242" on="0"/>
        <pt x="164" y="256" on="1"/>
        <pt x="304" y="283" on="1"/>
        <pt x="304" y="358" on="1"/>
        <pt x="304" y="398" on="0"/>
        <pt x="272" y="433" on="0"/>
        <pt x="232" y="433" on="1"/>
      </contour>
      <contour>
        <pt x="188" y="205" on="0"/>
        <pt x="153" y="161" on="0"/>
        <pt x="153" y="127" on="1"/>
        <pt x="153" y="64" on="0"/>
        <pt x="212" y="64" on="1"/>
        <pt x="233" y="64" on="0"/>
        <pt x="285" y="83" on="0"/>
        <pt x="304" y="95" on="1"/>
        <pt x="304" y="230" on="1"/>
        <pt x="229" y="214" on="1"/>
      </contour>
    </TTGlyph>
    <TTGlyph name="acircumflex" xMin="36" yMin="-10" xMax="503" yMax="723">
      <contour>
        <pt x="234" y="643" on="1"/>
        <pt x="121" y="557" on="1"/>
        <pt x="90" y="582" on="1"/>
        <pt x="196" y="723" on="1"/>
        <pt x="272" y="723" on="1"/>
        <pt x="378" y="582" on="1"/>
        <pt x="349" y="557" on="1"/>
      </contour>
      <contour>
        <pt x="190" y="433" on="0"/>
        <pt x="151" y="420" on="1"/>
        <pt x="128" y="336" on="1"/>
        <pt x="79" y="336" on="1"/>
        <pt x="62" y="464" on="1"/>
        <pt x="159" y="501" on="0"/>
        <pt x="263" y="501" on="1"/>
        <pt x="341" y="501" on="0"/>
        <pt x="421" y="449" on="0"/>
        <pt x="421" y="382" on="1"/>
        <pt x="421" y="74" on="1"/>
        <pt x="503" y="50" on="1"/>
        <pt x="503" y="12" on="1"/>
        <pt x="439" y="-5" on="0"/>
        <pt x="395" y="-5" on="1"/>
        <pt x="364" y="-5" on="0"/>
        <pt x="314" y="23" on="0"/>
        <pt x="307" y="49" on="1"/>
        <pt x="266" y="20" on="0"/>
        <pt x="192" y="-10" on="0"/>
        <pt x="150" y="-10" on="1"/>
        <pt x="97" y="-10" on="0"/>
        <pt x="36" y="59" on="0"/>
        <pt x="36" y="113" on="1"/>
        <pt x="36" y="161" on="0"/>
        <pt x="93" y="242" on="0"/>
        <pt x="164" y="256" on="1"/>
        <pt x="304" y="283" on="1"/>
        <pt x="304" y="358" on="1"/>
        <pt x="304" y="398" on="0"/>
        <pt x="272" y="433" on="0"/>
        <pt x="232" y="433" on="1"/>
      </contour>
      <contour>
        <pt x="188" y="205" on="0"/>
        <pt x="153" y="161" on="0"/>
        <pt x="153" y="127" on="1"/>
        <pt x="153" y="64" on="0"/>
        <pt x="212" y="64" on="1"/>
        <pt x="233" y="64" on="0"/>
        <pt x="285" y="83" on="0"/>
        <pt x="304" y="95" on="1"/>
        <pt x="304" y="230" on="1"/>
        <pt x="229" y="214" on="1"/>
      </contour>
    </TTGlyph>
    <TTGlyph name="acute" xMin="4" yMin="558" xMax="251" yMax="722">
      <contour>
        <pt x="4" y="587" on="1"/>
        <pt x="159" y="722" on="1"/>
        <pt x="251" y="686" on="1"/>
        <pt x="251" y="665" on="1"/>
        <pt x="27" y="558" on="1"/>
      </contour>
    </TTGlyph>
    <TTGlyph name="acute.case" xMin="4" yMin="640" xMax="251" yMax="800">
      <contour>
        <pt x="4" y="669" on="1"/>
        <pt x="159" y="800" on="1"/>
        <pt x="251" y="768" on="1"/>
        <pt x="251" y="746" on="1"/>
        <pt x="27" y="640" on="1"/>
      </contour>
    </TTGlyph>
    <TTGlyph name="acute.loclPLK" xMin="63" yMin="549" xMax="220" yMax="728">
      <contour>
        <pt x="63" y="568" on="1"/>
        <pt x="134" y="728" on="1"/>
        <pt x="220" y="728" on="1"/>
        <pt x="220" y="707" on="1"/>
        <pt x="90" y="549" on="1"/>
      </contour>
    </TTGlyph>
    <TTGlyph name="acute.loclPLK.case" xMin="68" yMin="638" xMax="220" yMax="809">
      <contour>
        <pt x="68" y="659" on="1"/>
        <pt x="134" y="809" on="1"/>
        <pt x="220" y="809" on="1"/>
        <pt x="220" y="789" on="1"/>
        <pt x="96" y="638" on="1"/>
      </contour>
    </TTGlyph>
    <TTGlyph name="acutecomb" xMin="-251" yMin="640" xMax="-4" yMax="800">
      <contour>
        <pt x="-251" y="669" on="1"/>
        <pt x="-96" y="800" on="1"/>
        <pt x="-4" y="768" on="1"/>
        <pt x="-4" y="746" on="1"/>
        <pt x="-228" y="640" on="1"/>
      </contour>
    </TTGlyph>
    <TTGlyph name="adieresis" xMin="36" yMin="-10" xMax="503" yMax="711">
      <contour>
        <pt x="205" y="616" on="0"/>
        <pt x="164" y="577" on="0"/>
        <pt x="137" y="577" on="1"/>
        <pt x="108" y="577" on="0"/>
        <pt x="66" y="616" on="0"/>
        <pt x="66" y="644" on="1"/>
        <pt x="66" y="672" on="0"/>
        <pt x="108" y="711" on="0"/>
        <pt x="137" y="711" on="1"/>
        <pt x="164" y="711" on="0"/>
        <pt x="205" y="671" on="0"/>
        <pt x="205" y="644" on="1"/>
      </contour>
      <contour>
        <pt x="423" y="616" on="0"/>
        <pt x="382" y="577" on="0"/>
        <pt x="355" y="577" on="1"/>
        <pt x="327" y="577" on="0"/>
        <pt x="285" y="616" on="0"/>
        <pt x="285" y="644" on="1"/>
        <pt x="285" y="671" on="0"/>
        <pt x="327" y="711" on="0"/>
        <pt x="355" y="711" on="1"/>
        <pt x="382" y="711" on="0"/>
        <pt x="423" y="671" on="0"/>
        <pt x="423" y="644" on="1"/>
      </contour>
      <contour>
        <pt x="190" y="433" on="0"/>
        <pt x="151" y="420" on="1"/>
        <pt x="128" y="336" on="1"/>
        <pt x="79" y="336" on="1"/>
        <pt x="62" y="464" on="1"/>
        <pt x="159" y="501" on="0"/>
        <pt x="263" y="501" on="1"/>
        <pt x="341" y="501" on="0"/>
        <pt x="421" y="449" on="0"/>
        <pt x="421" y="382" on="1"/>
        <pt x="421" y="74" on="1"/>
        <pt x="503" y="50" on="1"/>
        <pt x="503" y="12" on="1"/>
        <pt x="439" y="-5" on="0"/>
        <pt x="395" y="-5" on="1"/>
        <pt x="364" y="-5" on="0"/>
        <pt x="314" y="23" on="0"/>
        <pt x="307" y="49" on="1"/>
        <pt x="266" y="20" on="0"/>
        <pt x="192" y="-10" on="0"/>
        <pt x="150" y="-10" on="1"/>
        <pt x="97" y="-10" on="0"/>
        <pt x="36" y="59" on="0"/>
        <pt x="36" y="113" on="1"/>
        <pt x="36" y="161" on="0"/>
        <pt x="93" y="242" on="0"/>
        <pt x="164" y="256" on="1"/>
        <pt x="304" y="283" on="1"/>
        <pt x="304" y="358" on="1"/>
        <pt x="304" y="398" on="0"/>
        <pt x="272" y="433" on="0"/>
        <pt x="232" y="433" on="1"/>
      </contour>
      <contour>
        <pt x="188" y="205" on="0"/>
        <pt x="153" y="161" on="0"/>
        <pt x="153" y="127" on="1"/>
        <pt x="153" y="64" on="0"/>
        <pt x="212" y="64" on="1"/>
        <pt x="233" y="64" on="0"/>
        <pt x="285" y="83" on="0"/>
        <pt x="304" y="95" on="1"/>
        <pt x="304" y="230" on="1"/>
        <pt x="229" y="214" on="1"/>
      </contour>
    </TTGlyph>
    <TTGlyph name="ae" xMin="29" yMin="-10" xMax="693" yMax="501">
      <contour>
        <pt x="89" y="-10" on="0"/>
        <pt x="29" y="57" on="0"/>
        <pt x="29" y="105" on="1"/>
        <pt x="29" y="154" on="0"/>
        <pt x="98" y="228" on="0"/>
        <pt x="170" y="241" on="1"/>
        <pt x="290" y="263" on="1"/>
        <pt x="290" y="358" on="1"/>
        <pt x="290" y="398" on="0"/>
        <pt x="259" y="433" on="0"/>
        <pt x="220" y="433" on="1"/>
        <pt x="181" y="433" on="0"/>
        <pt x="144" y="420" on="1"/>
        <pt x="122" y="336" on="1"/>
        <pt x="72" y="336" on="1"/>
        <pt x="55" y="464" on="1"/>
        <pt x="150" y="501" on="0"/>
        <pt x="250" y="501" on="1"/>
        <pt x="341" y="501" on="0"/>
        <pt x="377" y="450" on="1"/>
        <pt x="430" y="501" on="0"/>
        <pt x="511" y="501" on="1"/>
        <pt x="593" y="501" on="0"/>
        <pt x="693" y="408" on="0"/>
        <pt x="693" y="312" on="1"/>
        <pt x="693" y="291" on="0"/>
        <pt x="691" y="282" on="1"/>
        <pt x="405" y="231" on="1"/>
        <pt x="405" y="137" on="0"/>
        <pt x="464" y="57" on="0"/>
        <pt x="536" y="57" on="1"/>
        <pt x="593" y="57" on="0"/>
        <pt x="676" y="80" on="1"/>
        <pt x="684" y="41" on="1"/>
        <pt x="609" y="-10" on="0"/>
        <pt x="504" y="-10" on="1"/>
        <pt x="438" y="-10" on="0"/>
        <pt x="358" y="30" on="0"/>
        <pt x="331" y="66" on="1"/>
        <pt x="285" y="29" on="0"/>
        <pt x="199" y="-10" on="0"/>
        <pt x="145" y="-10" on="1"/>
      </contour>
      <contour>
        <pt x="574" y="316" on="1"/>
        <pt x="574" y="377" on="0"/>
        <pt x="545" y="439" on="0"/>
        <pt x="505" y="439" on="1"/>
        <pt x="454" y="439" on="0"/>
        <pt x="410" y="360" on="0"/>
        <pt x="407" y="282" on="1"/>
      </contour>
      <contour>
        <pt x="226" y="63" on="0"/>
        <pt x="271" y="81" on="0"/>
        <pt x="290" y="96" on="1"/>
        <pt x="290" y="210" on="1"/>
        <pt x="222" y="198" on="1"/>
        <pt x="180" y="190" on="0"/>
        <pt x="145" y="156" on="0"/>
        <pt x="145" y="127" on="1"/>
        <pt x="145" y="96" on="0"/>
        <pt x="176" y="63" on="0"/>
        <pt x="204" y="63" on="1"/>
      </contour>
    </TTGlyph>
    <TTGlyph name="aeacute" xMin="29" yMin="-10" xMax="693" yMax="722">
      <component glyphName=".ttfautohint" x="29" y="0" flags="0x0"/>
      <component glyphName="ae" x="0" y="0" flags="0x0"/>
      <component glyphName="acute" x="252" y="0" flags="0x0"/>
    </TTGlyph>
    <TTGlyph name="agrave" xMin="36" yMin="-10" xMax="503" yMax="722">
      <contour>
        <pt x="97" y="665" on="1"/>
        <pt x="99" y="686" on="1"/>
        <pt x="189" y="722" on="1"/>
        <pt x="343" y="587" on="1"/>
        <pt x="323" y="558" on="1"/>
      </contour>
      <contour>
        <pt x="190" y="433" on="0"/>
        <pt x="151" y="420" on="1"/>
        <pt x="128" y="336" on="1"/>
        <pt x="79" y="336" on="1"/>
        <pt x="62" y="464" on="1"/>
        <pt x="159" y="501" on="0"/>
        <pt x="263" y="501" on="1"/>
        <pt x="341" y="501" on="0"/>
        <pt x="421" y="449" on="0"/>
        <pt x="421" y="382" on="1"/>
        <pt x="421" y="74" on="1"/>
        <pt x="503" y="50" on="1"/>
        <pt x="503" y="12" on="1"/>
        <pt x="439" y="-5" on="0"/>
        <pt x="395" y="-5" on="1"/>
        <pt x="364" y="-5" on="0"/>
        <pt x="314" y="23" on="0"/>
        <pt x="307" y="49" on="1"/>
        <pt x="266" y="20" on="0"/>
        <pt x="192" y="-10" on="0"/>
        <pt x="150" y="-10" on="1"/>
        <pt x="97" y="-10" on="0"/>
        <pt x="36" y="59" on="0"/>
        <pt x="36" y="113" on="1"/>
        <pt x="36" y="161" on="0"/>
        <pt x="93" y="242" on="0"/>
        <pt x="164" y="256" on="1"/>
        <pt x="304" y="283" on="1"/>
        <pt x="304" y="358" on="1"/>
        <pt x="304" y="398" on="0"/>
        <pt x="272" y="433" on="0"/>
        <pt x="232" y="433" on="1"/>
      </contour>
      <contour>
        <pt x="188" y="205" on="0"/>
        <pt x="153" y="161" on="0"/>
        <pt x="153" y="127" on="1"/>
        <pt x="153" y="64" on="0"/>
        <pt x="212" y="64" on="1"/>
        <pt x="233" y="64" on="0"/>
        <pt x="285" y="83" on="0"/>
        <pt x="304" y="95" on="1"/>
        <pt x="304" y="230" on="1"/>
        <pt x="229" y="214" on="1"/>
      </contour>
    </TTGlyph>
    <TTGlyph name="amacron" xMin="36" yMin="-10" xMax="503" yMax="677">
      <contour>
        <pt x="352" y="677" on="1"/>
        <pt x="352" y="607" on="1"/>
        <pt x="120" y="607" on="1"/>
        <pt x="120" y="677" on="1"/>
      </contour>
      <contour>
        <pt x="190" y="433" on="0"/>
        <pt x="151" y="420" on="1"/>
        <pt x="128" y="336" on="1"/>
        <pt x="79" y="336" on="1"/>
        <pt x="62" y="464" on="1"/>
        <pt x="159" y="501" on="0"/>
        <pt x="263" y="501" on="1"/>
        <pt x="341" y="501" on="0"/>
        <pt x="421" y="449" on="0"/>
        <pt x="421" y="382" on="1"/>
        <pt x="421" y="74" on="1"/>
        <pt x="503" y="50" on="1"/>
        <pt x="503" y="12" on="1"/>
        <pt x="439" y="-5" on="0"/>
        <pt x="395" y="-5" on="1"/>
        <pt x="364" y="-5" on="0"/>
        <pt x="314" y="23" on="0"/>
        <pt x="307" y="49" on="1"/>
        <pt x="266" y="20" on="0"/>
        <pt x="192" y="-10" on="0"/>
        <pt x="150" y="-10" on="1"/>
        <pt x="97" y="-10" on="0"/>
        <pt x="36" y="59" on="0"/>
        <pt x="36" y="113" on="1"/>
        <pt x="36" y="161" on="0"/>
        <pt x="93" y="242" on="0"/>
        <pt x="164" y="256" on="1"/>
        <pt x="304" y="283" on="1"/>
        <pt x="304" y="358" on="1"/>
        <pt x="304" y="398" on="0"/>
        <pt x="272" y="433" on="0"/>
        <pt x="232" y="433" on="1"/>
      </contour>
      <contour>
        <pt x="188" y="205" on="0"/>
        <pt x="153" y="161" on="0"/>
        <pt x="153" y="127" on="1"/>
        <pt x="153" y="64" on="0"/>
        <pt x="212" y="64" on="1"/>
        <pt x="233" y="64" on="0"/>
        <pt x="285" y="83" on="0"/>
        <pt x="304" y="95" on="1"/>
        <pt x="304" y="230" on="1"/>
        <pt x="229" y="214" on="1"/>
      </contour>
    </TTGlyph>
    <TTGlyph name="ampersand" xMin="36" yMin="-8" xMax="619" yMax="627">
      <contour>
        <pt x="371" y="22" on="0"/>
        <pt x="284" y="-8" on="0"/>
        <pt x="225" y="-8" on="1"/>
        <pt x="161" y="-8" on="0"/>
        <pt x="76" y="36" on="0"/>
        <pt x="36" y="108" on="0"/>
        <pt x="36" y="150" on="1"/>
        <pt x="36" y="219" on="0"/>
        <pt x="107" y="307" on="0"/>
        <pt x="167" y="339" on="1"/>
        <pt x="103" y="426" on="0"/>
        <pt x="103" y="490" on="1"/>
        <pt x="103" y="564" on="0"/>
        <pt x="209" y="627" on="0"/>
        <pt x="272" y="627" on="1"/>
        <pt x="340" y="627" on="0"/>
        <pt x="426" y="567" on="0"/>
        <pt x="426" y="511" on="1"/>
        <pt x="426" y="471" on="0"/>
        <pt x="391" y="412" on="0"/>
        <pt x="336" y="369" on="0"/>
        <pt x="289" y="341" on="1"/>
        <pt x="425" y="184" on="1"/>
        <pt x="442" y="227" on="0"/>
        <pt x="444" y="286" on="1"/>
        <pt x="404" y="299" on="1"/>
        <pt x="404" y="339" on="1"/>
        <pt x="585" y="339" on="1"/>
        <pt x="585" y="300" on="1"/>
        <pt x="509" y="285" on="1"/>
        <pt x="500" y="203" on="0"/>
        <pt x="468" y="138" on="1"/>
        <pt x="543" y="59" on="1"/>
        <pt x="619" y="40" on="1"/>
        <pt x="619" y="0" on="1"/>
        <pt x="457" y="0" on="1"/>
        <pt x="405" y="52" on="1"/>
      </contour>
      <contour>
        <pt x="206" y="450" on="0"/>
        <pt x="254" y="390" on="1"/>
        <pt x="293" y="412" on="0"/>
        <pt x="335" y="462" on="0"/>
        <pt x="335" y="498" on="1"/>
        <pt x="335" y="526" on="0"/>
        <pt x="306" y="568" on="0"/>
        <pt x="269" y="568" on="1"/>
        <pt x="238" y="568" on="0"/>
        <pt x="206" y="534" on="0"/>
        <pt x="206" y="503" on="1"/>
      </contour>
      <contour>
        <pt x="290" y="50" on="0"/>
        <pt x="352" y="72" on="0"/>
        <pt x="372" y="92" on="1"/>
        <pt x="357" y="109" on="0"/>
        <pt x="324" y="144" on="1"/>
        <pt x="240" y="234" on="0"/>
        <pt x="200" y="287" on="1"/>
        <pt x="169" y="264" on="0"/>
        <pt x="142" y="211" on="0"/>
        <pt x="142" y="174" on="1"/>
        <pt x="142" y="113" on="0"/>
        <pt x="198" y="50" on="0"/>
        <pt x="252" y="50" on="1"/>
      </contour>
    </TTGlyph>
    <TTGlyph name="ampersand.001" xMin="36" yMin="-9" xMax="619" yMax="648">
      <contour>
        <pt x="371" y="24" on="0"/>
        <pt x="284" y="-9" on="0"/>
        <pt x="225" y="-9" on="1"/>
        <pt x="130" y="-9" on="0"/>
        <pt x="36" y="86" on="0"/>
        <pt x="36" y="154" on="1"/>
        <pt x="36" y="225" on="0"/>
        <pt x="107" y="316" on="0"/>
        <pt x="167" y="350" on="1"/>
        <pt x="137" y="392" on="0"/>
        <pt x="103" y="472" on="0"/>
        <pt x="103" y="506" on="1"/>
        <pt x="103" y="559" on="0"/>
        <pt x="157" y="622" on="0"/>
        <pt x="234" y="648" on="0"/>
        <pt x="272" y="648" on="1"/>
        <pt x="340" y="648" on="0"/>
        <pt x="426" y="586" on="0"/>
        <pt x="426" y="527" on="1"/>
        <pt x="426" y="485" on="0"/>
        <pt x="391" y="424" on="0"/>
        <pt x="336" y="380" on="0"/>
        <pt x="289" y="351" on="1"/>
        <pt x="361" y="261" on="0"/>
        <pt x="425" y="188" on="1"/>
        <pt x="442" y="232" on="0"/>
        <pt x="444" y="296" on="1"/>
        <pt x="404" y="310" on="1"/>
        <pt x="404" y="349" on="1"/>
        <pt x="585" y="349" on="1"/>
        <pt x="585" y="311" on="1"/>
        <pt x="509" y="295" on="1"/>
        <pt x="501" y="209" on="0"/>
        <pt x="468" y="141" on="1"/>
        <pt x="543" y="60" on="1"/>
        <pt x="619" y="40" on="1"/>
        <pt x="619" y="0" on="1"/>
        <pt x="457" y="0" on="1"/>
        <pt x="405" y="56" on="1"/>
      </contour>
      <contour>
        <pt x="206" y="466" on="0"/>
        <pt x="254" y="400" on="1"/>
        <pt x="293" y="424" on="0"/>
        <pt x="335" y="476" on="0"/>
        <pt x="335" y="514" on="1"/>
        <pt x="335" y="544" on="0"/>
        <pt x="306" y="589" on="0"/>
        <pt x="269" y="589" on="1"/>
        <pt x="239" y="589" on="0"/>
        <pt x="206" y="552" on="0"/>
        <pt x="206" y="519" on="1"/>
      </contour>
      <contour>
        <pt x="290" y="51" on="0"/>
        <pt x="352" y="75" on="0"/>
        <pt x="372" y="96" on="1"/>
        <pt x="330" y="143" on="1"/>
        <pt x="298" y="179" on="0"/>
        <pt x="226" y="262" on="0"/>
        <pt x="200" y="298" on="1"/>
        <pt x="169" y="273" on="0"/>
        <pt x="142" y="219" on="0"/>
        <pt x="142" y="179" on="1"/>
        <pt x="142" y="116" on="0"/>
        <pt x="198" y="51" on="0"/>
        <pt x="252" y="51" on="1"/>
      </contour>
    </TTGlyph>
    <TTGlyph name="aogonek" xMin="36" yMin="-234" xMax="511" yMax="501">
      <contour>
        <pt x="511" y="-176" on="1"/>
        <pt x="498" y="-197" on="0"/>
        <pt x="447" y="-234" on="0"/>
        <pt x="407" y="-234" on="1"/>
        <pt x="355" y="-234" on="0"/>
        <pt x="307" y="-186" on="0"/>
        <pt x="307" y="-150" on="1"/>
        <pt x="307" y="-114" on="0"/>
        <pt x="357" y="-36" on="0"/>
        <pt x="399" y="-5" on="1"/>
        <pt x="396" y="-5" on="1"/>
        <pt x="364" y="-5" on="0"/>
        <pt x="313" y="23" on="0"/>
        <pt x="307" y="49" on="1"/>
        <pt x="266" y="20" on="0"/>
        <pt x="192" y="-10" on="0"/>
        <pt x="150" y="-10" on="1"/>
        <pt x="97" y="-10" on="0"/>
        <pt x="36" y="59" on="0"/>
        <pt x="36" y="113" on="1"/>
        <pt x="36" y="161" on="0"/>
        <pt x="93" y="242" on="0"/>
        <pt x="164" y="256" on="1"/>
        <pt x="304" y="283" on="1"/>
        <pt x="304" y="358" on="1"/>
        <pt x="304" y="398" on="0"/>
        <pt x="272" y="433" on="0"/>
        <pt x="232" y="433" on="1"/>
        <pt x="190" y="433" on="0"/>
        <pt x="151" y="420" on="1"/>
        <pt x="128" y="336" on="1"/>
        <pt x="79" y="336" on="1"/>
        <pt x="62" y="464" on="1"/>
        <pt x="159" y="501" on="0"/>
        <pt x="263" y="501" on="1"/>
        <pt x="341" y="501" on="0"/>
        <pt x="421" y="449" on="0"/>
        <pt x="421" y="382" on="1"/>
        <pt x="421" y="74" on="1"/>
        <pt x="503" y="50" on="1"/>
        <pt x="503" y="12" on="1"/>
        <pt x="445" y="-3" on="0"/>
        <pt x="386" y="-84" on="0"/>
        <pt x="386" y="-128" on="1"/>
        <pt x="386" y="-178" on="0"/>
        <pt x="434" y="-178" on="1"/>
        <pt x="466" y="-178" on="0"/>
        <pt x="490" y="-156" on="1"/>
      </contour>
      <contour>
        <pt x="304" y="230" on="1"/>
        <pt x="229" y="214" on="1"/>
        <pt x="188" y="205" on="0"/>
        <pt x="153" y="161" on="0"/>
        <pt x="153" y="127" on="1"/>
        <pt x="153" y="64" on="0"/>
        <pt x="212" y="64" on="1"/>
        <pt x="233" y="64" on="0"/>
        <pt x="285" y="83" on="0"/>
        <pt x="304" y="95" on="1"/>
      </contour>
    </TTGlyph>
    <TTGlyph name="approxequal" xMin="38" yMin="162" xMax="471" yMax="444">
      <contour>
        <pt x="38" y="342" on="1"/>
        <pt x="88" y="443" on="0"/>
        <pt x="159" y="443" on="1"/>
        <pt x="181" y="443" on="0"/>
        <pt x="226" y="428" on="0"/>
        <pt x="256" y="415" on="1"/>
        <pt x="285" y="402" on="0"/>
        <pt x="325" y="388" on="0"/>
        <pt x="344" y="388" on="1"/>
        <pt x="371" y="388" on="0"/>
        <pt x="406" y="413" on="0"/>
        <pt x="426" y="444" on="1"/>
        <pt x="471" y="419" on="1"/>
        <pt x="412" y="314" on="0"/>
        <pt x="339" y="314" on="1"/>
        <pt x="318" y="314" on="0"/>
        <pt x="278" y="328" on="0"/>
        <pt x="248" y="342" on="1"/>
        <pt x="218" y="356" on="0"/>
        <pt x="176" y="371" on="0"/>
        <pt x="155" y="371" on="1"/>
        <pt x="134" y="371" on="0"/>
        <pt x="100" y="345" on="0"/>
        <pt x="80" y="316" on="1"/>
      </contour>
      <contour>
        <pt x="38" y="190" on="1"/>
        <pt x="88" y="291" on="0"/>
        <pt x="159" y="291" on="1"/>
        <pt x="181" y="291" on="0"/>
        <pt x="226" y="276" on="0"/>
        <pt x="256" y="263" on="1"/>
        <pt x="285" y="250" on="0"/>
        <pt x="325" y="236" on="0"/>
        <pt x="344" y="236" on="1"/>
        <pt x="371" y="236" on="0"/>
        <pt x="406" y="261" on="0"/>
        <pt x="426" y="292" on="1"/>
        <pt x="471" y="267" on="1"/>
        <pt x="412" y="162" on="0"/>
        <pt x="339" y="162" on="1"/>
        <pt x="318" y="162" on="0"/>
        <pt x="278" y="176" on="0"/>
        <pt x="248" y="190" on="1"/>
        <pt x="216" y="204" on="0"/>
        <pt x="176" y="218" on="0"/>
        <pt x="155" y="218" on="1"/>
        <pt x="134" y="218" on="0"/>
        <pt x="99" y="193" on="0"/>
        <pt x="80" y="164" on="1"/>
      </contour>
    </TTGlyph>
    <TTGlyph name="aring" xMin="36" yMin="-10" xMax="503" yMax="750">
      <contour>
        <pt x="350" y="598" on="0"/>
        <pt x="293" y="541" on="0"/>
        <pt x="240" y="541" on="1"/>
        <pt x="187" y="541" on="0"/>
        <pt x="130" y="598" on="0"/>
        <pt x="130" y="644" on="1"/>
        <pt x="130" y="690" on="0"/>
        <pt x="187" y="750" on="0"/>
        <pt x="240" y="750" on="1"/>
        <pt x="293" y="750" on="0"/>
        <pt x="350" y="690" on="0"/>
        <pt x="350" y="644" on="1"/>
      </contour>
      <contour>
        <pt x="214" y="703" on="0"/>
        <pt x="197" y="673" on="0"/>
        <pt x="197" y="644" on="1"/>
        <pt x="197" y="616" on="0"/>
        <pt x="214" y="588" on="0"/>
        <pt x="240" y="588" on="1"/>
        <pt x="266" y="588" on="0"/>
        <pt x="283" y="616" on="0"/>
        <pt x="283" y="644" on="1"/>
        <pt x="283" y="672" on="0"/>
        <pt x="265" y="703" on="0"/>
        <pt x="240" y="703" on="1"/>
      </contour>
      <contour>
        <pt x="190" y="433" on="0"/>
        <pt x="151" y="420" on="1"/>
        <pt x="128" y="336" on="1"/>
        <pt x="79" y="336" on="1"/>
        <pt x="62" y="464" on="1"/>
        <pt x="159" y="501" on="0"/>
        <pt x="263" y="501" on="1"/>
        <pt x="341" y="501" on="0"/>
        <pt x="421" y="449" on="0"/>
        <pt x="421" y="382" on="1"/>
        <pt x="421" y="74" on="1"/>
        <pt x="503" y="50" on="1"/>
        <pt x="503" y="12" on="1"/>
        <pt x="439" y="-5" on="0"/>
        <pt x="395" y="-5" on="1"/>
        <pt x="364" y="-5" on="0"/>
        <pt x="314" y="23" on="0"/>
        <pt x="307" y="49" on="1"/>
        <pt x="266" y="20" on="0"/>
        <pt x="192" y="-10" on="0"/>
        <pt x="150" y="-10" on="1"/>
        <pt x="97" y="-10" on="0"/>
        <pt x="36" y="59" on="0"/>
        <pt x="36" y="113" on="1"/>
        <pt x="36" y="161" on="0"/>
        <pt x="93" y="242" on="0"/>
        <pt x="164" y="256" on="1"/>
        <pt x="304" y="283" on="1"/>
        <pt x="304" y="358" on="1"/>
        <pt x="304" y="398" on="0"/>
        <pt x="272" y="433" on="0"/>
        <pt x="232" y="433" on="1"/>
      </contour>
      <contour>
        <pt x="188" y="205" on="0"/>
        <pt x="153" y="161" on="0"/>
        <pt x="153" y="127" on="1"/>
        <pt x="153" y="64" on="0"/>
        <pt x="212" y="64" on="1"/>
        <pt x="233" y="64" on="0"/>
        <pt x="285" y="83" on="0"/>
        <pt x="304" y="95" on="1"/>
        <pt x="304" y="230" on="1"/>
        <pt x="229" y="214" on="1"/>
      </contour>
    </TTGlyph>
    <TTGlyph name="aringacute" xMin="36" yMin="-10" xMax="503" yMax="859">
      <component glyphName=".ttfautohint" x="36" y="0" flags="0x0"/>
      <component glyphName="a" x="0" y="0" flags="0x0"/>
      <component glyphName="uni030A" x="382" y="-121" flags="0x4"/>
      <component glyphName="acutecomb" x="444" y="59" flags="0x4"/>
    </TTGlyph>
    <TTGlyph name="arrowdown" xMin="63" yMin="28" xMax="493" yMax="500">
      <contour>
        <pt x="99" y="359" on="1"/>
        <pt x="246" y="196" on="1"/>
        <pt x="235" y="500" on="1"/>
        <pt x="336" y="500" on="1"/>
        <pt x="322" y="198" on="1"/>
        <pt x="459" y="359" on="1"/>
        <pt x="493" y="323" on="1"/>
        <pt x="292" y="28" on="1"/>
        <pt x="277" y="28" on="1"/>
        <pt x="63" y="323" on="1"/>
      </contour>
    </TTGlyph>
    <TTGlyph name="arrowleft" xMin="42" yMin="46" xMax="514" yMax="475">
      <contour>
        <pt x="514" y="319" on="1"/>
        <pt x="514" y="217" on="1"/>
        <pt x="209" y="229" on="1"/>
        <pt x="372" y="81" on="1"/>
        <pt x="336" y="46" on="1"/>
        <pt x="42" y="259" on="1"/>
        <pt x="42" y="275" on="1"/>
        <pt x="336" y="475" on="1"/>
        <pt x="373" y="441" on="1"/>
        <pt x="210" y="305" on="1"/>
      </contour>
    </TTGlyph>
    <TTGlyph name="arrowright" xMin="44" yMin="46" xMax="515" yMax="475">
      <contour>
        <pt x="184" y="81" on="1"/>
        <pt x="347" y="229" on="1"/>
        <pt x="44" y="217" on="1"/>
        <pt x="44" y="319" on="1"/>
        <pt x="346" y="305" on="1"/>
        <pt x="184" y="441" on="1"/>
        <pt x="220" y="475" on="1"/>
        <pt x="515" y="275" on="1"/>
        <pt x="515" y="259" on="1"/>
        <pt x="220" y="46" on="1"/>
      </contour>
    </TTGlyph>
    <TTGlyph name="arrowup" xMin="64" yMin="22" xMax="494" yMax="492">
      <contour>
        <pt x="458" y="164" on="1"/>
        <pt x="311" y="326" on="1"/>
        <pt x="323" y="22" on="1"/>
        <pt x="221" y="22" on="1"/>
        <pt x="235" y="325" on="1"/>
        <pt x="97" y="163" on="1"/>
        <pt x="64" y="200" on="1"/>
        <pt x="263" y="492" on="1"/>
        <pt x="280" y="492" on="1"/>
        <pt x="494" y="200" on="1"/>
      </contour>
    </TTGlyph>
    <TTGlyph name="asciicircum" xMin="30" yMin="250" xMax="442" yMax="613">
      <contour>
        <pt x="210" y="613" on="1"/>
        <pt x="262" y="613" on="1"/>
        <pt x="442" y="250" on="1"/>
        <pt x="359" y="250" on="1"/>
        <pt x="236" y="504" on="1"/>
        <pt x="112" y="250" on="1"/>
        <pt x="30" y="250" on="1"/>
      </contour>
    </TTGlyph>
    <TTGlyph name="asciitilde" xMin="50" yMin="207" xMax="465" yMax="332">
      <contour>
        <pt x="144" y="261" on="0"/>
        <pt x="112" y="238" on="0"/>
        <pt x="92" y="210" on="1"/>
        <pt x="50" y="234" on="1"/>
        <pt x="97" y="331" on="0"/>
        <pt x="167" y="331" on="1"/>
        <pt x="188" y="331" on="0"/>
        <pt x="228" y="318" on="0"/>
        <pt x="260" y="304" on="1"/>
        <pt x="287" y="292" on="0"/>
        <pt x="324" y="279" on="0"/>
        <pt x="342" y="279" on="1"/>
        <pt x="369" y="279" on="0"/>
        <pt x="401" y="301" on="0"/>
        <pt x="420" y="332" on="1"/>
        <pt x="465" y="307" on="1"/>
        <pt x="410" y="207" on="0"/>
        <pt x="338" y="207" on="1"/>
        <pt x="318" y="207" on="0"/>
        <pt x="277" y="221" on="0"/>
        <pt x="251" y="234" on="1"/>
        <pt x="222" y="248" on="0"/>
        <pt x="184" y="261" on="0"/>
        <pt x="163" y="261" on="1"/>
      </contour>
    </TTGlyph>
    <TTGlyph name="asterisk" xMin="3" yMin="421" xMax="344" yMax="748">
      <contour>
        <pt x="38" y="477" on="1"/>
        <pt x="120" y="561" on="1"/>
        <pt x="117" y="569" on="1"/>
        <pt x="3" y="588" on="1"/>
        <pt x="30" y="679" on="1"/>
        <pt x="138" y="626" on="1"/>
        <pt x="144" y="630" on="1"/>
        <pt x="126" y="748" on="1"/>
        <pt x="219" y="748" on="1"/>
        <pt x="203" y="630" on="1"/>
        <pt x="210" y="625" on="1"/>
        <pt x="316" y="679" on="1"/>
        <pt x="344" y="588" on="1"/>
        <pt x="229" y="569" on="1"/>
        <pt x="226" y="561" on="1"/>
        <pt x="308" y="477" on="1"/>
        <pt x="231" y="421" on="1"/>
        <pt x="178" y="525" on="1"/>
        <pt x="169" y="525" on="1"/>
        <pt x="116" y="421" on="1"/>
      </contour>
    </TTGlyph>
    <TTGlyph name="at" xMin="41" yMin="-80" xMax="702" yMax="557">
      <contour>
        <pt x="139" y="105" on="0"/>
        <pt x="260" y="-20" on="0"/>
        <pt x="365" y="-20" on="1"/>
        <pt x="456" y="-20" on="0"/>
        <pt x="589" y="26" on="1"/>
        <pt x="603" y="-18" on="1"/>
        <pt x="478" y="-80" on="0"/>
        <pt x="348" y="-80" on="1"/>
        <pt x="244" y="-80" on="0"/>
        <pt x="106" y="8" on="0"/>
        <pt x="41" y="154" on="0"/>
        <pt x="41" y="244" on="1"/>
        <pt x="41" y="327" on="0"/>
        <pt x="110" y="469" on="0"/>
        <pt x="259" y="557" on="0"/>
        <pt x="372" y="557" on="1"/>
        <pt x="553" y="557" on="0"/>
        <pt x="702" y="393" on="0"/>
        <pt x="702" y="271" on="1"/>
        <pt x="702" y="203" on="0"/>
        <pt x="647" y="106" on="0"/>
        <pt x="555" y="55" on="0"/>
        <pt x="499" y="55" on="1"/>
        <pt x="472" y="55" on="0"/>
        <pt x="429" y="77" on="0"/>
        <pt x="420" y="96" on="1"/>
        <pt x="397" y="77" on="0"/>
        <pt x="343" y="54" on="0"/>
        <pt x="318" y="54" on="1"/>
        <pt x="273" y="54" on="0"/>
        <pt x="224" y="110" on="0"/>
        <pt x="224" y="150" on="1"/>
        <pt x="224" y="181" on="0"/>
        <pt x="259" y="233" on="0"/>
        <pt x="311" y="246" on="1"/>
        <pt x="415" y="272" on="1"/>
        <pt x="415" y="314" on="1"/>
        <pt x="415" y="340" on="0"/>
        <pt x="390" y="362" on="0"/>
        <pt x="364" y="362" on="1"/>
        <pt x="319" y="362" on="0"/>
        <pt x="251" y="337" on="1"/>
        <pt x="236" y="378" on="1"/>
        <pt x="316" y="417" on="0"/>
        <pt x="385" y="417" on="1"/>
        <pt x="445" y="417" on="0"/>
        <pt x="508" y="378" on="0"/>
        <pt x="508" y="332" on="1"/>
        <pt x="508" y="142" on="1"/>
        <pt x="508" y="131" on="0"/>
        <pt x="517" y="114" on="0"/>
        <pt x="527" y="114" on="1"/>
        <pt x="567" y="114" on="0"/>
        <pt x="608" y="202" on="0"/>
        <pt x="608" y="285" on="1"/>
        <pt x="608" y="344" on="0"/>
        <pt x="559" y="441" on="0"/>
        <pt x="457" y="498" on="0"/>
        <pt x="383" y="498" on="1"/>
        <pt x="256" y="498" on="0"/>
        <pt x="139" y="356" on="0"/>
        <pt x="139" y="239" on="1"/>
      </contour>
      <contour>
        <pt x="334" y="200" on="0"/>
        <pt x="315" y="177" on="0"/>
        <pt x="315" y="158" on="1"/>
        <pt x="315" y="136" on="0"/>
        <pt x="335" y="117" on="0"/>
        <pt x="356" y="117" on="1"/>
        <pt x="381" y="117" on="0"/>
        <pt x="415" y="134" on="1"/>
        <pt x="415" y="221" on="1"/>
        <pt x="358" y="207" on="1"/>
      </contour>
    </TTGlyph>
</ttFont>
